<?xml version="1.0" encoding="utf-8"?>
<!-- Generator: Adobe Illustrator 25.0.1, SVG Export Plug-In . SVG Version: 6.00 Build 0)  -->
<svg version="1.1" id="Layer_1" xmlns="http://www.w3.org/2000/svg" xmlns:xlink="http://www.w3.org/1999/xlink" x="0px" y="0px"
	 viewBox="0 0 18 11" style="enable-background:new 0 0 18 11;" xml:space="preserve">
<style type="text/css">
	.st0{fill:#AFAFAF;}
</style>
<g>
	<path class="st0" d="M13.96,1.08L9,6.81L4.04,1.07c-0.15-0.17-0.31-0.29-0.5-0.36C3.36,0.63,3.17,0.6,2.97,0.61
		C2.76,0.62,2.55,0.67,2.35,0.76c-0.2,0.09-0.38,0.21-0.54,0.36C1.49,1.44,1.32,1.79,1.3,2.18c0,0.02,0,0.04,0,0.05
		c0,0.37,0.16,0.72,0.48,1.07l6.03,6.53c0.22,0.23,0.43,0.38,0.62,0.45c0.2,0.07,0.4,0.11,0.59,0.11c0.18,0,0.37-0.04,0.56-0.11
		c0.12-0.05,0.32-0.16,0.61-0.46l6.02-6.52c0.34-0.37,0.5-0.74,0.48-1.12c-0.02-0.39-0.18-0.74-0.51-1.06
		c-0.16-0.15-0.33-0.27-0.54-0.36c-0.2-0.09-0.41-0.14-0.62-0.15c-0.2-0.01-0.39,0.02-0.57,0.1C14.27,0.79,14.11,0.91,13.96,1.08z"
		/>
</g>
</svg>
