<?xml version="1.0" encoding="utf-8"?>
<!-- Generator: Adobe Illustrator 25.0.1, SVG Export Plug-In . SVG Version: 6.00 Build 0)  -->
<svg version="1.1" id="Layer_1" xmlns="http://www.w3.org/2000/svg" xmlns:xlink="http://www.w3.org/1999/xlink" x="0px" y="0px"
	 viewBox="0 0 42 42" style="enable-background:new 0 0 42 42;" xml:space="preserve">
<style type="text/css">
	.st0{fill:#EF998C;}
	.st1{fill:#FFFFFF;}
	.st2{fill:#7D7E7E;}
</style>
<g>
	<circle class="st0" cx="191.87" cy="83.61" r="21"/>
</g>
<g>
	<path class="st1" d="M189.88,90.61l-6.77-7.6c-0.36-0.4-0.31-1.01,0.11-1.36c0.42-0.35,1.05-0.3,1.41,0.1l5.23,5.87l9.24-10.67
		c0.35-0.41,0.98-0.46,1.41-0.12c0.42,0.34,0.48,0.95,0.13,1.36L189.88,90.61z"/>
</g>
<g>
	<path class="st2" d="M19.01,28l-6.77-7.6c-0.36-0.4-0.31-1.01,0.11-1.36c0.42-0.35,1.05-0.3,1.41,0.1l5.23,5.87l9.24-10.67
		c0.35-0.41,0.98-0.46,1.41-0.12c0.42,0.34,0.48,0.95,0.13,1.36L19.01,28z"/>
</g>
<g>
	<path class="st2" d="M21,1c11.03,0,20,8.97,20,20s-8.97,20-20,20S1,32.03,1,21S9.97,1,21,1 M21,0C9.4,0,0,9.4,0,21s9.4,21,21,21
		s21-9.4,21-21S32.6,0,21,0L21,0z"/>
</g>
<g>
	<g>
		<path class="st0" d="M161.77,126.24l-6.77-7.6c-0.36-0.4-0.31-1.01,0.11-1.36c0.42-0.35,1.05-0.3,1.41,0.1l5.23,5.87l9.24-10.67
			c0.35-0.41,0.98-0.46,1.41-0.12c0.42,0.34,0.48,0.95,0.13,1.36L161.77,126.24z"/>
	</g>
</g>
<g>
	<path class="st2" d="M138.75,126.24l-6.77-7.6c-0.36-0.4-0.31-1.01,0.11-1.36c0.42-0.35,1.05-0.3,1.41,0.1l5.23,5.87l9.24-10.67
		c0.35-0.41,0.98-0.46,1.41-0.12c0.42,0.34,0.48,0.95,0.13,1.36L138.75,126.24z"/>
</g>
</svg>
