<svg id="레이어_1" data-name="레이어 1" xmlns="http://www.w3.org/2000/svg" viewBox="0 0 36 50"><defs><style>.cls-1{fill:none;stroke:#121213;stroke-miterlimit:10;stroke-width:2px;}.cls-2{fill:#121213;}</style></defs><circle class="cls-1" cx="18" cy="25" r="17"/><path class="cls-2" d="M19.88,19.64a2.16,2.16,0,0,0-2.35-2.27,4.26,4.26,0,0,0-3.07,1.55l-2.25-2A7.65,7.65,0,0,1,18,14.11c3.32,0,5.76,1.71,5.76,5.26,0,3.93-4.82,5.26-4.41,9.16H15.84C15.18,24.07,19.88,22.27,19.88,19.64Zm-4.79,13.6a2.54,2.54,0,1,1,2.52,2.65A2.53,2.53,0,0,1,15.09,33.24Z"/></svg>