<svg id="레이어_1" data-name="레이어 1" xmlns="http://www.w3.org/2000/svg" viewBox="0 0 24 34"><defs><style>.cls-1{fill:#ef998c;}</style></defs><path class="cls-1" d="M12,18.57a5.77,5.77,0,0,0,0,11.54,5.77,5.77,0,0,0,0-11.54Zm0,10.25a4.48,4.48,0,0,1,0-9,4.48,4.48,0,0,1,0,9Z"/><path class="cls-1" d="M23.37,10.07h-.23V1.3h.23A.64.64,0,0,0,24,.65.64.64,0,0,0,23.37,0H.63A.64.64,0,0,0,0,.65a.64.64,0,0,0,.63.65H.86v8.77H.63a.65.65,0,0,0,0,1.3H11.35v.83A2.05,2.05,0,0,0,10,14.14a2.24,2.24,0,0,0,.13.73,9.6,9.6,0,0,0-7.49,9.47A9.51,9.51,0,0,0,12,34a9.51,9.51,0,0,0,9.34-9.66,9.6,9.6,0,0,0-7.49-9.47,2.24,2.24,0,0,0,.13-.73,2.06,2.06,0,0,0-1.37-2v-.81H23.37a.65.65,0,0,0,0-1.3ZM20.09,24.34A8.24,8.24,0,0,1,12,32.7,8.38,8.38,0,0,1,11.21,16a1.92,1.92,0,0,0,1.58,0A8.27,8.27,0,0,1,20.09,24.34Zm-7.6-9.65h-1a.72.72,0,0,1-.24-.55.7.7,0,0,1,.15-.45.61.61,0,0,0,.56.37.63.63,0,0,0,.58-.4.76.76,0,0,1-.07,1ZM2.11,1.3H4.72v8.77H2.11ZM6,10.07V1.3H18v8.77Zm13.3,0V1.3h2.61v8.77Z"/></svg>