<svg id="레이어_1" data-name="레이어 1" xmlns="http://www.w3.org/2000/svg" viewBox="0 0 36 34"><defs><style>.cls-1{fill:#58595b;}</style></defs><path class="cls-1" d="M32.3,30.83H3.7a.56.56,0,0,1-.56-.55V11.71a.56.56,0,0,1,1.12,0v18H31.74v-18a.56.56,0,0,1,1.12,0V30.28A.56.56,0,0,1,32.3,30.83Z"/><path class="cls-1" d="M21.28,30.83H14.72a.56.56,0,0,1-.57-.55V17.56a.55.55,0,0,1,.57-.54h6.56a.55.55,0,0,1,.57.54V30.28A.56.56,0,0,1,21.28,30.83Zm-6-1.09h5.44V18.11H15.28Z"/><path class="cls-1" d="M35.4,30.83H.6A.56.56,0,0,1,0,30.28a.55.55,0,0,1,.56-.54H35.4a.55.55,0,0,1,.56.54A.56.56,0,0,1,35.4,30.83Z"/><path class="cls-1" d="M2.82,12.26A2.76,2.76,0,0,1,.37,10.85,2.56,2.56,0,0,1,.51,8.1L3.74,3.41a.56.56,0,0,1,.47-.24H8.15a.56.56,0,0,1,.47.26.51.51,0,0,1,0,.52L5.32,10.73A2.8,2.8,0,0,1,2.82,12.26Zm1.69-8L1.45,8.71a1.47,1.47,0,0,0-.08,1.62,1.62,1.62,0,0,0,1.45.84,1.65,1.65,0,0,0,1.48-.9l3-6Z"/><path class="cls-1" d="M8,12.26a2.94,2.94,0,0,1-2.48-1.32A2.74,2.74,0,0,1,5.3,8.23L7.64,3.48a.56.56,0,0,1,.51-.31h3.94a.56.56,0,0,1,.45.22.53.53,0,0,1,.09.47l-1.87,6.35A2.93,2.93,0,0,1,8,12.26Zm.55-8L6.32,8.69a1.67,1.67,0,0,0,.11,1.67,1.82,1.82,0,0,0,3.24-.45l1.67-5.65Z"/><path class="cls-1" d="M13.1,12.26h-.25a3,3,0,0,1-2.33-1.12A2.74,2.74,0,0,1,10,8.66l1.51-5.09a.56.56,0,0,1,.54-.4H16a.6.6,0,0,1,.42.18.57.57,0,0,1,.14.42L16,9.7A2.88,2.88,0,0,1,13.1,12.26Zm-.59-8L11.13,9a1.67,1.67,0,0,0,.29,1.52,1.79,1.79,0,0,0,1.43.69h.25A1.75,1.75,0,0,0,14.88,9.6l.53-5.34Z"/><path class="cls-1" d="M18.16,12.26h-.32a3,3,0,0,1-2.17-.92,2.78,2.78,0,0,1-.74-2.17l.54-5.51A.56.56,0,0,1,16,3.17H20a.56.56,0,0,1,.56.49l.54,5.51a2.78,2.78,0,0,1-.74,2.17A3,3,0,0,1,18.16,12.26Zm-1.62-8-.49,5a1.64,1.64,0,0,0,.46,1.33,1.78,1.78,0,0,0,1.33.57h.32a1.78,1.78,0,0,0,1.33-.57A1.64,1.64,0,0,0,20,9.27l-.49-5Z"/><path class="cls-1" d="M23.15,12.26H22.9A2.88,2.88,0,0,1,20,9.7l-.58-5.93a.53.53,0,0,1,.14-.42A.6.6,0,0,1,20,3.17h3.94a.56.56,0,0,1,.54.4L26,8.66a2.74,2.74,0,0,1-.48,2.48A3,3,0,0,1,23.15,12.26Zm-2.56-8,.53,5.34a1.75,1.75,0,0,0,1.78,1.57h.25a1.79,1.79,0,0,0,1.43-.69A1.67,1.67,0,0,0,24.87,9l-1.38-4.7Z"/><path class="cls-1" d="M28.05,12.26a2.93,2.93,0,0,1-2.81-2L23.37,3.86a.53.53,0,0,1,.09-.47.56.56,0,0,1,.45-.22h3.94a.56.56,0,0,1,.51.31L30.7,8.23a2.74,2.74,0,0,1-.17,2.71A2.94,2.94,0,0,1,28.05,12.26Zm-3.39-8,1.67,5.65a1.82,1.82,0,0,0,3.24.45,1.67,1.67,0,0,0,.11-1.67L27.5,4.26Z"/><path class="cls-1" d="M33.18,12.26a2.8,2.8,0,0,1-2.5-1.53L27.34,4a.51.51,0,0,1,0-.52.56.56,0,0,1,.47-.26h3.94a.56.56,0,0,1,.47.24L35.49,8.1a2.56,2.56,0,0,1,.14,2.75A2.76,2.76,0,0,1,33.18,12.26Zm-4.44-8,3,6a1.65,1.65,0,0,0,1.48.9,1.62,1.62,0,0,0,1.45-.84,1.47,1.47,0,0,0-.08-1.62L31.49,4.26Z"/><path class="cls-1" d="M11.42,23.51H6.94A.55.55,0,0,1,6.38,23V18.65a.55.55,0,0,1,.56-.54h4.48a.55.55,0,0,1,.56.54V23A.55.55,0,0,1,11.42,23.51ZM7.5,22.43h3.36V19.19H7.5Z"/><path class="cls-1" d="M29.06,23.51H24.58A.55.55,0,0,1,24,23V18.65a.55.55,0,0,1,.56-.54h4.48a.55.55,0,0,1,.56.54V23A.55.55,0,0,1,29.06,23.51Zm-3.92-1.08H28.5V19.19H25.14Z"/></svg>