<svg id="레이어_1" data-name="레이어 1" xmlns="http://www.w3.org/2000/svg" viewBox="0 0 36 34"><defs><style>.cls-1{fill:#575757;}</style></defs><path class="cls-1" d="M28.73,3.62H22.09a2.56,2.56,0,0,0-2.56,2.55v7.16a2.56,2.56,0,0,0,2.56,2.55h6.64a2.56,2.56,0,0,0,2.55-2.55V6.17A2.56,2.56,0,0,0,28.73,3.62Z"/><path class="cls-1" d="M13.91,3.62H7.27A2.65,2.65,0,0,0,4.62,6.27v7.15a2.66,2.66,0,0,0,2.65,2.66h6.64a2.66,2.66,0,0,0,2.66-2.66V6.27A2.66,2.66,0,0,0,13.91,3.62Zm1.44,9.8a1.44,1.44,0,0,1-1.44,1.44H7.27a1.43,1.43,0,0,1-1.43-1.44V6.27A1.43,1.43,0,0,1,7.27,4.84h6.64a1.44,1.44,0,0,1,1.44,1.43Z"/><path class="cls-1" d="M28.73,3.62H22.09a2.66,2.66,0,0,0-2.66,2.65v7.15a2.66,2.66,0,0,0,2.66,2.66h6.64a2.66,2.66,0,0,0,2.65-2.66V6.27A2.65,2.65,0,0,0,28.73,3.62Zm1.43,9.8a1.43,1.43,0,0,1-1.43,1.44H22.09a1.44,1.44,0,0,1-1.44-1.44V6.27a1.44,1.44,0,0,1,1.44-1.43h6.64a1.43,1.43,0,0,1,1.43,1.43Z"/><path class="cls-1" d="M13.91,17.92H7.27a2.66,2.66,0,0,0-2.65,2.66v7.15a2.65,2.65,0,0,0,2.65,2.65h6.64a2.66,2.66,0,0,0,2.66-2.65V20.58A2.66,2.66,0,0,0,13.91,17.92Zm1.44,9.81a1.44,1.44,0,0,1-1.44,1.43H7.27a1.43,1.43,0,0,1-1.43-1.43V20.58a1.43,1.43,0,0,1,1.43-1.44h6.64a1.44,1.44,0,0,1,1.44,1.44Z"/><path class="cls-1" d="M28.73,17.92H22.09a2.66,2.66,0,0,0-2.66,2.66v7.15a2.66,2.66,0,0,0,2.66,2.65h6.64a2.65,2.65,0,0,0,2.65-2.65V20.58A2.66,2.66,0,0,0,28.73,17.92Zm1.43,9.81a1.43,1.43,0,0,1-1.43,1.43H22.09a1.44,1.44,0,0,1-1.44-1.43V20.58a1.44,1.44,0,0,1,1.44-1.44h6.64a1.43,1.43,0,0,1,1.43,1.44Z"/></svg>