<svg id="레이어_1" data-name="레이어 1" xmlns="http://www.w3.org/2000/svg" viewBox="0 0 22 22"><defs><style>.cls-1{fill:#62bece;}.cls-2{fill:#fff;}</style></defs><circle class="cls-1" cx="11" cy="11" r="11"/><path class="cls-2" d="M16.17,6.6A.22.22,0,0,1,16,6.53a.23.23,0,0,1-.07-.18,1.78,1.78,0,1,0-3.52.14,2.45,2.45,0,0,1-.66,2.13L8.56,11.8a2.46,2.46,0,0,1-2.14.66,1.78,1.78,0,0,0-1.73,2.8,1.8,1.8,0,0,0,1.6.73h0a.2.2,0,0,1,.16.07.23.23,0,0,1,.07.18,1.76,1.76,0,0,0,.74,1.61,1.79,1.79,0,0,0,2.1,0,1.81,1.81,0,0,0,.69-1.71A2.46,2.46,0,0,1,10.73,14l3.18-3.18a2.47,2.47,0,0,1,2.14-.66,1.77,1.77,0,0,0,1.73-2.78A1.79,1.79,0,0,0,16.17,6.6Z"/><path class="cls-2" d="M16.39,6.13a2.21,2.21,0,0,0-.92-1.75,2.25,2.25,0,0,0-3.53,2.19,2,2,0,0,1-.53,1.73L8.23,11.47A2,2,0,0,1,6.5,12a2.24,2.24,0,1,0-.43,4.45,2.23,2.23,0,0,0,2.24,2.18A2.24,2.24,0,0,0,10.52,16a2,2,0,0,1,.54-1.74l3.17-3.18A2,2,0,0,1,16,10.59a2.27,2.27,0,0,0,2.15-.86,2.25,2.25,0,0,0-1.73-3.6ZM9.52,18h0Zm8.23-8.55a1.76,1.76,0,0,1-1.7.68,2.47,2.47,0,0,0-2.14.66L10.73,14a2.46,2.46,0,0,0-.66,2.14,1.81,1.81,0,0,1-.69,1.71,1.79,1.79,0,0,1-2.1,0,1.76,1.76,0,0,1-.74-1.61.23.23,0,0,0-.07-.18A.2.2,0,0,0,6.31,16h0a1.8,1.8,0,0,1-1.6-.73,1.78,1.78,0,0,1,1.73-2.8,2.46,2.46,0,0,0,2.14-.66l3.18-3.18a2.45,2.45,0,0,0,.66-2.13,1.78,1.78,0,1,1,3.52-.14.23.23,0,0,0,.07.18.22.22,0,0,0,.18.07,1.79,1.79,0,0,1,1.58,2.85Z"/></svg>