<svg id="레이어_1" data-name="레이어 1" xmlns="http://www.w3.org/2000/svg" viewBox="0 0 36 34"><defs><style>.cls-1{fill:#595959;}</style></defs><path class="cls-1" d="M31.06,8.71v-5a2.24,2.24,0,0,0-1.14-1.95,2.19,2.19,0,0,0-2.25,0,36.53,36.53,0,0,1-16.1,4.92H5.69A2.1,2.1,0,0,0,3.58,8.86v.32H2.74A2.12,2.12,0,0,0,.63,11.29V16a2.11,2.11,0,0,0,2.11,2.11h.84v.33a2.11,2.11,0,0,0,1.62,2l4,10.81a1.82,1.82,0,0,0,1.71,1.2h3.43a1.82,1.82,0,0,0,1.5-.78A1.86,1.86,0,0,0,16,30l-3.5-9.51c5.75.07,11.9,3.17,15.14,5.08a2.23,2.23,0,0,0,2.25,0,2.2,2.2,0,0,0,1.13-1.94v-5.1a5,5,0,0,0,0-9.87ZM3.58,16.78H2.74A.78.78,0,0,1,2,16V11.29a.78.78,0,0,1,.78-.78h.84Zm1.33,1.66V8.86a.78.78,0,0,1,.78-.78h5.24V19.21H5.69A.78.78,0,0,1,4.91,18.44ZM14.79,30.5a.53.53,0,0,1-.06.46.51.51,0,0,1-.41.21H10.89a.51.51,0,0,1-.47-.33L6.64,20.54h4.49ZM29.73,9.33h0V18h0v5.72a.91.91,0,0,1-1.37.78c-3.4-2-9.89-5.26-16-5.26h-.08V8A37.57,37.57,0,0,0,28.35,3a.9.9,0,0,1,.91,0,.91.91,0,0,1,.47.79Zm1.33,7.9V10.06a3.65,3.65,0,0,1,0,7.17Z"/></svg>