<svg id="레이어_1" data-name="레이어 1" xmlns="http://www.w3.org/2000/svg" viewBox="0 0 18 16"><defs><style>.cls-1{fill:#bdbdbd;fill-rule:evenodd;}</style></defs><path class="cls-1" d="M9.13,1.34c4.07,0,7.36,2.92,7.36,6.52s-3.29,6.52-7.36,6.52A8,8,0,0,1,5,13.23l-2.41.7a.19.19,0,0,1-.2,0,.16.16,0,0,1,0-.17l.78-2.16a6,6,0,0,1-1.29-3.7c0-3.6,3.29-6.52,7.35-6.52M9.13,0C14,0,18,3.52,18,7.86s-4,7.86-8.87,7.86a9.71,9.71,0,0,1-4.27-1L.69,16a.59.59,0,0,1-.54-.12A.42.42,0,0,1,0,15.38L1.46,11.8h0A7.14,7.14,0,0,1,.27,7.86C.27,3.52,4.24,0,9.13,0Z"/><path class="cls-1" d="M5.08,7A1.1,1.1,0,0,1,6.24,8,1.1,1.1,0,0,1,5.08,9,1.1,1.1,0,0,1,3.91,8,1.1,1.1,0,0,1,5.08,7"/><path class="cls-1" d="M9.05,7a1.1,1.1,0,0,1,1.16,1A1.1,1.1,0,0,1,9.05,9,1.1,1.1,0,0,1,7.88,8,1.1,1.1,0,0,1,9.05,7"/><path class="cls-1" d="M12.92,7a1.1,1.1,0,0,1,1.17,1,1.1,1.1,0,0,1-1.17,1,1.1,1.1,0,0,1-1.16-1,1.1,1.1,0,0,1,1.16-1"/></svg>