<svg id="레이어_1" data-name="레이어 1" xmlns="http://www.w3.org/2000/svg" viewBox="0 0 38 34"><defs><style>.cls-1{fill:none;}.cls-2{fill:#fff;}</style></defs><path class="cls-1" d="M7.32,25.05a2.74,2.74,0,0,1-2.6-2.84V7.08a2.73,2.73,0,0,1,2.6-2.84H22.06a2.73,2.73,0,0,1,2.61,2.84h.86a3.64,3.64,0,0,0-3.47-3.79H7.32A3.65,3.65,0,0,0,3.85,7.08V22.21A3.64,3.64,0,0,0,7.32,26h4.34v-.94Z"/><path class="cls-2" d="M31.55,8H28.94V23.14c0,3.39-3,6.62-6.07,6.62H12.69A4,4,0,0,0,16.8,32.6H31.55a4.56,4.56,0,0,0,4.33-4.73V12.74A4.56,4.56,0,0,0,31.55,8Z"/><path class="cls-1" d="M22.06,4.24H7.32a2.73,2.73,0,0,0-2.6,2.84V22.21a2.74,2.74,0,0,0,2.6,2.84h4.34V11.8A4.55,4.55,0,0,1,16,7.08h8.68A2.73,2.73,0,0,0,22.06,4.24Z"/><path class="cls-2" d="M22.06,1.4H7.32a5.46,5.46,0,0,0-5.2,5.68V22.21a5.45,5.45,0,0,0,5.2,5.67h4.43a4.83,4.83,0,0,1-.09-.94V26H7.32a3.64,3.64,0,0,1-3.47-3.78V7.08A3.65,3.65,0,0,1,7.32,3.29H22.06a3.64,3.64,0,0,1,3.47,3.79h1.74A5.47,5.47,0,0,0,22.06,1.4Z"/><path class="cls-2" d="M25.53,22.21A3.63,3.63,0,0,1,22.06,26H11.66v1a4.83,4.83,0,0,0,.09.94H22.06a5.46,5.46,0,0,0,5.21-5.67V7.08H25.53Z"/></svg>