<svg id="레이어_1" data-name="레이어 1" xmlns="http://www.w3.org/2000/svg" viewBox="0 0 105 50"><defs><style>.cls-1{fill:#121213;}</style></defs><path class="cls-1" d="M87.5,9A15.51,15.51,0,0,1,103,24.5v1A15.51,15.51,0,0,1,87.5,41h-70A15.51,15.51,0,0,1,2,25.5v-1A15.51,15.51,0,0,1,17.5,9h70m0-2h-70A17.56,17.56,0,0,0,0,24.5v1A17.56,17.56,0,0,0,17.5,43h70A17.56,17.56,0,0,0,105,25.5v-1A17.56,17.56,0,0,0,87.5,7Z"/><path class="cls-1" d="M40.93,30.18v2.49H21.75V30.18H29.8V27H24V19.86H35.78V17.58H23.93V15.17H38.77v7.06H27v2.36H39.25V27H32.83v3.15Z"/><path class="cls-1" d="M62.06,29.74v2.49H42.91V29.74ZM56.68,18.18H44.89V15.76H59.72v2.51a51.52,51.52,0,0,1-.78,10.21l-3-.28a49.16,49.16,0,0,0,.76-9.93Z"/><path class="cls-1" d="M70.14,25.9a5.38,5.38,0,1,1,5.75-5.35A5.46,5.46,0,0,1,70.14,25.9Zm0-2.62a2.61,2.61,0,0,0,2.78-2.73,2.61,2.61,0,0,0-2.78-2.76,2.75,2.75,0,1,0,0,5.49Zm12,8.93v2.41H67.56V27.54h3v4.67ZM81.66,29H78.6V13.83h3.06Z"/></svg>