<svg id="레이어_1" data-name="레이어 1" xmlns="http://www.w3.org/2000/svg" viewBox="0 0 36 50"><defs><style>.cls-1{fill:none;stroke:#121213;stroke-miterlimit:10;stroke-width:2px;}</style></defs><path class="cls-1" d="M19,9.11l3.3,10.41a1,1,0,0,0,1,.74H34a1.07,1.07,0,0,1,.61,1.93l-8.64,6.43a1.1,1.1,0,0,0-.38,1.2l3.3,10.41a1,1,0,0,1-1.6,1.19L18.61,35a1,1,0,0,0-1.22,0L8.75,41.42a1,1,0,0,1-1.6-1.19l3.3-10.41a1.1,1.1,0,0,0-.38-1.2L1.43,22.19A1.07,1.07,0,0,1,2,20.26H12.72a1,1,0,0,0,1-.74L17,9.11A1,1,0,0,1,19,9.11Z"/></svg>