<?xml version="1.0" encoding="utf-8"?>
<!-- Generator: Adobe Illustrator 25.2.0, SVG Export Plug-In . SVG Version: 6.00 Build 0)  -->
<svg version="1.1" id="레이어_1" xmlns="http://www.w3.org/2000/svg" xmlns:xlink="http://www.w3.org/1999/xlink" x="0px"
	 y="0px" viewBox="0 0 626.5 340.2" style="enable-background:new 0 0 626.5 340.2;" xml:space="preserve">
<style type="text/css">
	.st0{fill:none;}
	.st1{fill:#BDBDBD;}
</style>
<path class="st0" d="M268,98.9c-8.5,0-15.5-6.5-15.5-14.4s6.9-14.4,15.5-14.4s15.5,6.5,15.5,14.4S276.5,98.9,268,98.9z"/>
<path class="st1" d="M311,0.8c-50.2,0-91,36.9-91,82.2c0,14.6,4.3,28.8,12.2,41.1l0.9,1.4l-15.8,40.4c-0.3,0.6-0.1,1.3,0.5,1.7
	c0.8,0.7,1.8,0.9,2.8,0.6l45.4-13.7l1.1,0.5c13.7,6.8,28.7,10.3,44,10.2c50.2,0,91-36.9,91-82.2S361.2,0.8,311,0.8z M311,157
	c-15.8,0.1-31.3-4.2-44.8-12.3L242,152c-1.8,0.5-3.7,0.1-5-1.1c-1.5-1.3-2.1-3.5-1.4-5.4l7.7-21.8c-8.6-11.8-13.3-26.1-13.3-40.7
	c0-40.8,36.4-74,81.2-74s81.2,33.2,81.2,74S355.8,157,311,157z"/>
<path class="st1" d="M268,76.4c-5.1,0-9.3,3.6-9.3,8s4.2,8.1,9.3,8.1s9.3-3.6,9.3-8.1S273.1,76.4,268,76.4z"/>
<path class="st1" d="M310.1,76.4c-5.1,0-9.3,3.6-9.3,8s4.2,8.1,9.3,8.1s9.3-3.6,9.3-8.1S315.2,76.4,310.1,76.4z"/>
<path class="st1" d="M351.3,76.4c-5.1,0-9.3,3.6-9.3,8s4.2,8.1,9.3,8.1s9.3-3.6,9.3-8.1S356.4,76.4,351.3,76.4z"/>
<g>
	<path class="st1" d="M38.9,296c-10.6,2.2-19.6,2.5-32.8,2.5h-6v-40.9h34.5v8.3H10.2v24.2c10.7-0.1,18.7-0.6,27.8-2.5L38.9,296z
		 M47.1,308.1c0,10.8,12.3,20.8,29.6,23.4l-4.2,7.9c-13.7-2.4-24.9-8.9-30.3-18.2c-5.5,9.3-16.7,15.8-30.5,18.2l-4.2-7.9
		c17.2-2.6,29.5-12.6,29.5-23.4V305h10.1V308.1z M52.7,301.4h-9.5v-49.7h9.5v21h9.9v-22.6h9.7v59.1h-9.7v-28.2h-9.9V301.4z"/>
	<path class="st1" d="M162.8,282.7v8.2h-81v-8.2h58.8c1.4-6.8,2.1-13.7,2.1-20.6H92v-8.2h60.7v5.9c0.2,7.7-0.5,15.3-1.9,22.9H162.8z
		 M101.5,330.7h53.6v8H91.3v-24h51.2v-8H91.1v-8.1h61.7v23.8h-51.2L101.5,330.7z"/>
	<path class="st1" d="M215.9,288.3c0,19.4-9.7,31.6-23.1,31.6s-23-12.2-23-31.6c0-19.2,9.7-31.5,23-31.5
		C206.2,256.8,215.9,269.1,215.9,288.3z M179.7,288.3c0,14.1,5.4,22.5,13.2,22.5s13.3-8.4,13.3-22.5c0-13.9-5.4-22.3-13.3-22.3
		S179.7,274.4,179.7,288.3L179.7,288.3z M240.5,250.2v89.7h-10.3v-89.7H240.5z"/>
	<path class="st1" d="M315.7,278.8c-2,10.1-11,16.8-22.9,16.8c-13.4,0-23.3-8.5-23.3-20.9c0-12.2,9.9-20.7,23.3-20.7
		c11.8,0,20.8,6.5,22.8,16.3h16.6v-20h10.2v47.2h-10.2v-18.8H315.7z M310.1,302.8v35.8h-31.7v-35.9h9.5v10.1h12.8v-10.1L310.1,302.8
		z M292.9,287.2c7.8,0,13.6-5,13.6-12.5s-5.7-12.3-13.6-12.3s-13.5,4.9-13.5,12.3S285,287.2,292.9,287.2L292.9,287.2z M300.7,320.4
		h-12.8v10.4h12.8L300.7,320.4z M336,309.2c0,9.5,5,18.6,15.7,22.6l-5,7.7c-7.3-2.7-13-8.4-15.8-15.7c-3,7.1-8.6,12.7-15.6,15.7
		l-5.1-7.7c10.8-4.5,15.8-13.8,15.8-22.6v-7.1H336V309.2z"/>
	<path class="st1" d="M434.4,290.3v8.1h-81v-8.1H434.4z M426.4,284.9c-14.5-2-26.6-8.7-32.5-18c-5.8,9.3-17.8,16-32.4,18l-3.8-7.9
		c17.9-2.3,30.9-12,30.9-22.4v-3.5h10.5v3.5c0,10.3,13.2,20.1,30.9,22.4L426.4,284.9z M413.9,303.9h10.2v34.6h-60.6v-34.6h10.1v9.1
		h40.3L413.9,303.9z M413.9,320.8h-40.3v9.6h40.3L413.9,320.8z"/>
	<path class="st1" d="M454,308.4c13.5,0,26.9-1.4,40.1-4.1l1.1,8.5c-14.4,2.9-29,4.3-43.7,4.3h-7.6V259H454L454,308.4z M512.5,250.3
		v89.4h-10.2v-89.4H512.5z"/>
	<path class="st1" d="M537.5,309.3c14.5-0.1,25.3-0.7,37.8-2.9l1.1,8.4c-13.6,2.5-25.6,3-41.8,3h-7.3v-59.1h41.6v8.3h-31.4V309.3z
		 M606.9,293h-14v46.7h-10.1v-89.6H593v34.5h14L606.9,293z"/>
	<path class="st1" d="M611,325.4c0-4.7,3.4-8.1,7.6-8.1s7.6,3.5,7.6,8.1c0.2,4.2-3.1,7.7-7.3,7.9s-7.7-3.1-7.9-7.3
		C611,325.8,611,325.6,611,325.4z"/>
</g>
</svg>
