<?xml version="1.0" encoding="utf-8"?>
<!-- Generator: Adobe Illustrator 25.0.1, SVG Export Plug-In . SVG Version: 6.00 Build 0)  -->
<svg version="1.1" id="Layer_1" xmlns="http://www.w3.org/2000/svg" xmlns:xlink="http://www.w3.org/1999/xlink" x="0px" y="0px"
	 viewBox="0 0 18 14" style="enable-background:new 0 0 18 14;" xml:space="preserve">
<style type="text/css">
	.st0{fill:#EF998C;}
	.st1{fill:#FFFFFF;}
	.st2{fill:#7D7E7E;}
</style>
<g>
	<circle class="st0" cx="31.11" cy="-64.83" r="21"/>
</g>
<g>
	<path class="st1" d="M29.12-57.83l-6.77-7.6c-0.36-0.4-0.31-1.01,0.11-1.36c0.42-0.35,1.05-0.3,1.41,0.1l5.23,5.87l9.24-10.67
		c0.35-0.41,0.98-0.46,1.41-0.12c0.42,0.34,0.48,0.95,0.13,1.36L29.12-57.83z"/>
</g>
<g>
	<path class="st2" d="M-99.75-57.83l-6.77-7.6c-0.36-0.4-0.31-1.01,0.11-1.36c0.42-0.35,1.05-0.3,1.41,0.1l5.23,5.87l9.24-10.67
		c0.35-0.41,0.98-0.46,1.41-0.12c0.42,0.34,0.48,0.95,0.13,1.36L-99.75-57.83z"/>
</g>
<g>
	<path class="st2" d="M-97.76-84.83c11.03,0,20,8.97,20,20s-8.97,20-20,20s-20-8.97-20-20S-108.79-84.83-97.76-84.83 M-97.76-85.83
		c-11.6,0-21,9.4-21,21s9.4,21,21,21s21-9.4,21-21S-86.16-85.83-97.76-85.83L-97.76-85.83z"/>
</g>
<g>
	<g>
		<path class="st0" d="M7.01,14L0.24,6.4C-0.12,6-0.07,5.39,0.35,5.04c0.42-0.35,1.05-0.3,1.41,0.1l5.23,5.87l9.24-10.67
			c0.35-0.41,0.98-0.46,1.41-0.12c0.42,0.34,0.48,0.95,0.13,1.36L7.01,14z"/>
	</g>
</g>
<g>
	<path class="st2" d="M-68.45,15.96l-6.77-7.6c-0.36-0.4-0.31-1.01,0.11-1.36c0.42-0.35,1.05-0.3,1.41,0.1l5.23,5.87l9.24-10.67
		c0.35-0.41,0.98-0.46,1.41-0.12c0.42,0.34,0.48,0.95,0.13,1.36L-68.45,15.96z"/>
</g>
</svg>
