<svg id="레이어_1" data-name="레이어 1" xmlns="http://www.w3.org/2000/svg" viewBox="0 0 38 34"><defs><style>.cls-1{fill:#fff;}</style></defs><path class="cls-1" d="M37.35,6.28a1.13,1.13,0,0,0-1.15,0L30.3,9.41V24.59l5.9,3.17a1.18,1.18,0,0,0,.55.14,1.13,1.13,0,0,0,.6-.18A1.42,1.42,0,0,0,38,26.5V7.5a1.42,1.42,0,0,0-.65-1.22Z"/><path class="cls-1" d="M22,17a8.08,8.08,0,0,1-8,8.14A8.14,8.14,0,0,1,14,8.86,8.08,8.08,0,0,1,22,17ZM23.65,2.8H4.27A4.32,4.32,0,0,0,0,7.15v19.7A4.32,4.32,0,0,0,4.27,31.2H23.65a4.31,4.31,0,0,0,4.27-4.35V7.15A4.31,4.31,0,0,0,23.65,2.8Z"/><path class="cls-1" d="M14,11.72A5.28,5.28,0,1,0,19.15,17,5.24,5.24,0,0,0,14,11.72Z"/></svg>