<?xml version="1.0" encoding="utf-8"?>
<!-- Generator: Adobe Illustrator 25.0.1, SVG Export Plug-In . SVG Version: 6.00 Build 0)  -->
<svg version="1.1" id="Layer_1" xmlns="http://www.w3.org/2000/svg" xmlns:xlink="http://www.w3.org/1999/xlink" x="0px" y="0px"
	 viewBox="0 0 143 148" style="enable-background:new 0 0 143 148;" xml:space="preserve">
<style type="text/css">
	.st0{fill:#FFFFFF;}
	.st1{fill:#F6F6F6;}
	.st2{fill:#DCDCDC;}
	.st3{fill:#EF998C;}
	.st4{enable-background:new    ;}
	.st5{fill:#BDBDBD;}
</style>
<rect x="566.6" y="680.8" class="st0" width="143" height="148"/>
<rect x="727.2" y="680.8" class="st0" width="143" height="148"/>
<g>
	<circle class="st1" cx="76" cy="-258.8" r="79"/>
	<g>
		<path class="st2" d="M73.8-256.7H61.7v-4.1h12.2V-274h4.4v13.1h12.2v4.1H78.2v13.1h-4.4C73.8-243.7,73.8-256.7,73.8-256.7z"/>
	</g>
</g>
<text transform="matrix(1 0 0 1 599.1354 795.5615)" class="st5" style="font-family:'NotoSansKR-Regular-KSCpc-EUC-H'; font-size:25px; letter-spacing:-1;">1:1문의</text>
<g>
	<g>
		<path class="st3" d="M635.7,759.8c-2,0-3.7-0.6-4.9-1.8c-1.3-1.3-2-2.8-2-4.7c0-1,0.2-2.3,0.7-3.8l3.6-12.7v-0.1l1.5-5.4
			c-0.2,0.3-0.4,0.6-0.6,1c0,0,0,0,0,0.1c0,0-0.1,0.1-0.1,0.2l0,0c0,0-0.1,0.1-0.1,0.2l0,0l0,0c-0.1,0.1-0.1,0.2-0.2,0.2l0,0l0,0
			l0,0l0,0c-0.2,0.2-0.5,0.4-0.7,0.6l0,0l0,0c-0.2,0.1-0.3,0.2-0.5,0.2h-0.1c-0.1,0-0.3,0.1-0.5,0.1c-0.1,0-0.2,0-0.3,0h-0.1
			c-0.1,0-0.2,0-0.3,0s-0.1,0-0.2,0c-0.1,0-0.2-0.1-0.3-0.1c0,0-0.1,0-0.1-0.1l0,0c-0.1-0.1-0.3-0.2-0.4-0.2c-0.1,0-0.1-0.1-0.2-0.1
			c-1.1-1-1.1-2.5-0.7-3.5c0,0,0-0.1,0.1-0.1c3.7-6.6,8-10,12.5-10c2,0,3.7,0.6,4.9,1.8c1.3,1.3,2,2.8,2,4.7c0,1-0.2,2.3-0.7,3.8
			l-2,7v0.1l-1.6,5.5v0.1l-1.5,5.4c0.2-0.3,0.4-0.6,0.6-1l0,0l0,0l0,0c0,0,0.1-0.1,0.1-0.2l0,0l0,0c0-0.1,0.1-0.1,0.1-0.2l0,0
			c0.1-0.1,0.1-0.2,0.2-0.3l0,0l0,0l0,0c0.2-0.2,0.5-0.4,0.7-0.6l0,0l0,0l0,0c0.2-0.1,0.4-0.2,0.5-0.2l0,0c0.2,0,0.4-0.1,0.5-0.1
			s0.2,0,0.3,0h0.1c0.1,0,0.2,0,0.3,0l0,0c0.1,0,0.1,0,0.2,0c0.1,0,0.2,0,0.3,0.1c0.1,0,0.1,0,0.2,0.1c0.1,0.1,0.3,0.1,0.4,0.2
			c0.1,0,0.1,0.1,0.2,0.1c1.1,1,1.1,2.5,0.7,3.5c0,0,0,0.1-0.1,0.1C644.5,756.5,640.3,759.8,635.7,759.8z M636.3,727.5
			c0.1,0,0.3,0,0.4,0.1c0.3,0.2,0.4,0.5,0.4,0.9c-0.1,0.4-0.2,0.9-0.4,1.5l0,0l-2,7.1v0.1l0,0l-3.6,12.7l0,0
			c-0.4,1.3-0.6,2.5-0.6,3.3c0,1.4,0.5,2.6,1.5,3.5s2.2,1.4,3.8,1.4c4,0,7.7-3.1,11.1-9.1l0,0c0,0,0.4-0.9-0.3-1.6l0.5-0.7l-0.5,0.7
			c0,0-0.1-0.1-0.2-0.1l0,0c0,0,0,0-0.1,0h-0.1c0,0,0,0-0.1,0c0,0,0,0-0.1,0l0,0l0,0l0,0l0,0c-0.1,0-0.1,0-0.2,0l0,0l0,0
			c-0.1,0-0.2,0-0.2,0.1l0,0l0,0c-0.1,0.1-0.2,0.2-0.4,0.3l0,0l0,0l0,0c0,0-0.1,0.1-0.1,0.2l0,0l0,0L645,748l0,0c0,0,0,0.1-0.1,0.1
			l0,0l0,0l0,0l0,0l0,0c-1.3,2.1-2.2,3-3.1,3.7c-0.3,0.2-0.6,0.3-0.9,0.1s-0.4-0.5-0.4-0.9c0.1-0.4,0.2-0.9,0.4-1.5l0,0l2-7.1v-0.1
			l0,0l1.6-5.5l0,0l0,0l0,0l2-7l0,0c0.4-1.3,0.6-2.5,0.6-3.3c0-1.4-0.5-2.6-1.5-3.5s-2.2-1.4-3.8-1.4c-4,0-7.7,3.1-11.1,9.1
			c0,0-0.4,0.9,0.3,1.6l0,0c0,0,0.1,0.1,0.2,0.1l0,0l0,0h0.1l0,0c0,0,0,0,0.1,0h0.1l0,0l0,0l0,0l0,0c0.1,0,0.2,0,0.2,0l0,0l0,0
			c0.1,0,0.1,0,0.2-0.1l0,0c0.1-0.1,0.2-0.2,0.4-0.3l0,0l0,0l0.1-0.1l0,0l0,0l0.1-0.1l0,0l0,0c0,0,0-0.1,0.1-0.1l0,0l0,0l0,0
			c1.3-2.1,2.2-3,3.1-3.7C635.9,727.5,636.1,727.5,636.3,727.5z M644.9,747.9L644.9,747.9L644.9,747.9z"/>
	</g>
	<g>
		<path class="st3" d="M644.7,719.3c-3.9,0-7.1-3.3-7.1-7.2s3.2-7.2,7.1-7.2c3.9,0,7.1,3.3,7.1,7.2
			C651.8,716.1,648.6,719.3,644.7,719.3z M644.7,706.5c-3,0-5.5,2.5-5.5,5.6s2.5,5.6,5.5,5.6s5.5-2.5,5.5-5.6
			S647.8,706.5,644.7,706.5z"/>
	</g>
</g>
<text transform="matrix(1 0 0 1 755.5743 795.5615)" class="st5" style="font-family:'NotoSansKR-Regular-KSCpc-EUC-H'; font-size:25px; letter-spacing:-1;">찜한목록</text>
<g>
	<path class="st3" d="M812.7,756.8c-0.2,0-0.4-0.1-0.6-0.2l-11.9-9.3l-11.9,9.3c-0.3,0.2-0.7,0.3-1.1,0.1c-0.3-0.2-0.6-0.5-0.6-0.9
		v-39c0-0.5,0.5-1,1-1h25c0.5,0,1,0.4,1,1v39c0,0.4-0.2,0.7-0.6,0.9C813,756.7,812.8,756.8,812.7,756.8z M800.2,745.1
		c0.2,0,0.4,0.1,0.6,0.2l10.9,8.5v-36h-23v36l10.9-8.5C799.7,745.1,799.9,745.1,800.2,745.1z"/>
</g>
<rect x="250.3" y="680.1" class="st0" width="143" height="148"/>
<text transform="matrix(1 0 0 1 278.7729 795.5614)" class="st5" style="font-family:'NotoSansKR-Regular-KSCpc-EUC-H'; font-size:25px; letter-spacing:-1;">트릿관리</text>
<g>
	<g>
		<path class="st3" d="M311.8,756.8c-1.5,0-3.1-0.5-4.4-1.4c-2-1.4-3.1-3.6-3.2-6c-2.4-0.1-4.5-1.2-6-3.1c-2-2.7-1.9-6.3,0-9
			c1.7-2.3,4.6-3.5,7.4-3c2.2,0.4,4.4-0.3,5.9-1.8l10.8-10.8c1.5-1.5,2.2-3.7,1.8-5.9c-0.5-2.8,0.7-5.7,3-7.4c2.6-2,6.4-2,9,0
			c1.9,1.4,3.1,3.6,3.1,6c2.4,0.1,4.6,1.2,6,3.2c1.9,2.7,1.9,6.4-0.1,9c-1.7,2.3-4.5,3.4-7.3,2.9c-2.2-0.4-4.4,0.3-5.9,1.8
			l-10.8,10.8c-1.5,1.5-2.2,3.7-1.8,5.9c0.5,2.8-0.7,5.6-2.9,7.3l0,0C315.1,756.2,313.5,756.8,311.8,756.8z M305,747.7
			c0.2,0,0.4,0.1,0.6,0.2c0.2,0.2,0.3,0.4,0.2,0.6c-0.2,2.2,0.8,4.2,2.5,5.5c2.1,1.5,5.1,1.5,7.2-0.1l0,0c1.8-1.4,2.7-3.6,2.3-5.8
			c-0.4-2.7,0.4-5.4,2.3-7.3l10.8-10.8c1.9-1.8,4.6-2.7,7.3-2.3c2.2,0.4,4.4-0.5,5.8-2.3c1.6-2.1,1.6-5,0.1-7.2
			c-1.3-1.8-3.3-2.7-5.5-2.5c-0.2,0-0.5-0.1-0.6-0.2s-0.3-0.4-0.2-0.6c0.2-2.1-0.7-4.2-2.5-5.4c-2.1-1.5-5-1.5-7.1,0
			c-1.9,1.4-2.8,3.6-2.4,5.9c0.5,2.7-0.4,5.4-2.3,7.3l-10.8,10.8c-1.9,1.9-4.6,2.7-7.3,2.3c-2.2-0.4-4.5,0.5-5.9,2.4
			c-1.6,2.1-1.6,5,0,7.1C300.8,747,302.8,747.9,305,747.7L305,747.7z M316,754.6L316,754.6L316,754.6z"/>
	</g>
</g>
<rect x="404.3" y="517" class="st0" width="143" height="148"/>
<rect x="566.6" y="517" class="st0" width="143" height="148"/>
<rect x="727.2" y="517" class="st0" width="143" height="148"/>
<g>
	<g>
		<g>
			<g>
				<path class="st3" d="M457,594c-0.5,0-1.1-0.2-1.5-0.7c-0.6-0.6-0.8-1.5-0.5-2.3l13.6-33.6c0.2-0.4,0.6-0.6,1-0.4
					c0.4,0.2,0.6,0.6,0.4,1l-13.6,33.6c-0.1,0.2,0,0.5,0.2,0.6c0.1,0.1,0.4,0.3,0.6,0.2l33.4-13.7c0.4-0.2,0.8,0,1,0.4s0,0.8-0.4,1
					l-33.4,13.7C457.5,593.9,457.3,594,457,594z"/>
			</g>
			<g>
				<path class="st3" d="M490.3,580.4c-1,0-2.5-0.7-4.5-2c-2.5-1.7-5.5-4.2-8.4-7.1c-2.9-2.9-5.4-5.9-7.1-8.4c-2-3-2.4-4.8-1.5-5.7
					s2.7-0.4,5.7,1.5c2.5,1.7,5.5,4.2,8.4,7.1c2.9,2.9,5.4,5.9,7.1,8.4c2,3,2.4,4.8,1.5,5.7C491.2,580.3,490.8,580.4,490.3,580.4z
					 M470.1,558.3c-0.1,0-0.1,0-0.2,0c-0.4,0.8,2.3,5.6,8.6,12c6.3,6.3,11,9,11.9,8.6c0.3-0.9-2.3-5.7-8.6-12
					C475.9,560.9,471.3,558.3,470.1,558.3z"/>
			</g>
		</g>
		<g>
			<path class="st3" d="M481.3,557.9c-0.1,0-0.1,0-0.2,0c-0.3-0.1-0.5-0.3-0.6-0.7l-0.5-4.6l-4.4-1.3c-0.3-0.1-0.5-0.4-0.5-0.7
				s0.2-0.6,0.5-0.7l4.2-1.9l-0.1-4.6c0-0.3,0.2-0.6,0.5-0.7c0.3-0.1,0.6,0,0.8,0.2l3.1,3.4l4.3-1.5c0.3-0.1,0.6,0,0.8,0.2
				c0.2,0.2,0.2,0.6,0.1,0.9l-2.3,4l2.8,3.7c0.2,0.3,0.2,0.6,0,0.9c-0.2,0.3-0.5,0.4-0.8,0.3l-4.5-1l-2.6,3.8
				C481.8,557.8,481.6,557.9,481.3,557.9z M478.1,550.4l2.9,0.9c0.3,0.1,0.5,0.3,0.5,0.7l0.3,3.1l1.8-2.5c0.2-0.3,0.5-0.4,0.8-0.3
				l3,0.7l-1.9-2.5c-0.2-0.2-0.2-0.6,0-0.8l1.5-2.7l-2.9,1c-0.3,0.1-0.6,0-0.8-0.2l-2-2.3l0.1,3.1c0,0.3-0.2,0.6-0.5,0.7
				L478.1,550.4z"/>
		</g>
		<g>
			<path class="st3" d="M498,556.3c-0.1,0-0.2,0-0.2,0c-0.3-0.1-0.5-0.4-0.5-0.7l-0.2-4.6l-4.3-1.6c-0.3-0.1-0.5-0.4-0.5-0.7
				s0.2-0.6,0.5-0.7l4.3-1.6l0.2-4.6c0-0.3,0.2-0.6,0.5-0.7c0.3-0.1,0.6,0,0.8,0.3l2.8,3.6l4.4-1.2c0.3-0.1,0.6,0,0.8,0.3
				c0.2,0.3,0.2,0.6,0,0.9l-2.6,3.8l2.5,3.9c0.2,0.3,0.2,0.6,0,0.9c-0.2,0.3-0.5,0.4-0.8,0.3l-4.4-1.3l-2.9,3.6
				C498.4,556.2,498.2,556.3,498,556.3z M495.2,548.6l2.9,1.1c0.3,0.1,0.5,0.4,0.5,0.7l0.1,3.1l1.9-2.4c0.2-0.2,0.5-0.3,0.8-0.3
				l3,0.8l-1.7-2.6c-0.2-0.3-0.2-0.6,0-0.8l1.7-2.6l-3,0.8c-0.3,0.1-0.6,0-0.8-0.3l-1.9-2.4l-0.1,3.1c0,0.3-0.2,0.6-0.5,0.7
				L495.2,548.6z"/>
		</g>
		<g>
			<path class="st3" d="M492.5,573c-0.1,0-0.2,0-0.4-0.1c-0.3-0.1-0.4-0.5-0.4-0.8l0.5-4.6l-4-2.3c-0.3-0.2-0.4-0.5-0.4-0.8
				s0.3-0.6,0.6-0.6l4.5-0.9l0.9-4.5c0.1-0.3,0.3-0.5,0.6-0.6c0.3,0,0.6,0.1,0.8,0.4l2.2,4l4.6-0.5c0.3,0,0.6,0.1,0.8,0.4
				c0.1,0.3,0.1,0.6-0.1,0.8l-3.1,3.4l1.9,4.2c0.1,0.3,0.1,0.6-0.2,0.8c-0.2,0.2-0.6,0.3-0.9,0.2l-4.2-1.9l-3.4,3.1
				C492.9,572.9,492.7,573,492.5,573z M490.8,565l2.7,1.5c0.3,0.2,0.4,0.5,0.4,0.8l-0.4,3.1l2.3-2.1c0.2-0.2,0.5-0.3,0.8-0.1
				l2.8,1.3l-1.3-2.8c-0.1-0.3-0.1-0.6,0.1-0.8l2.1-2.3l-3,0.3c-0.3,0-0.6-0.1-0.7-0.4l-1.5-2.7l-0.6,3c-0.1,0.3-0.3,0.5-0.6,0.6
				L490.8,565z"/>
		</g>
	</g>
	
		<text transform="matrix(1 0 0 1 432.7664 632.5001)" class="st3" style="font-family:'NotoSansKR-Regular-KSCpc-EUC-H'; font-size:25px; letter-spacing:-1;">당첨내역</text>
</g>
<g>
	
		<text transform="matrix(1 0 0 1 595.1349 632.5001)" class="st3" style="font-family:'NotoSansKR-Regular-KSCpc-EUC-H'; font-size:25px; letter-spacing:-1;">이용문의</text>
	<g>
		<g>
			<path class="st3" d="M635.7,591.9c-2,0-3.7-0.6-4.9-1.8c-1.3-1.3-2-2.8-2-4.7c0-1,0.2-2.3,0.7-3.8l3.6-12.7v-0.1l1.5-5.4
				c-0.2,0.3-0.4,0.6-0.6,1c0,0,0,0,0,0.1c0,0-0.1,0.1-0.1,0.2l0,0c0,0-0.1,0.1-0.1,0.2l0,0l0,0c-0.1,0.1-0.1,0.2-0.2,0.2l0,0l0,0
				l0,0l0,0c-0.2,0.2-0.5,0.4-0.7,0.6l0,0l0,0c-0.2,0.1-0.3,0.2-0.5,0.2h-0.1c-0.1,0-0.3,0.1-0.5,0.1c-0.1,0-0.2,0-0.3,0h-0.1
				c-0.1,0-0.2,0-0.3,0s-0.1,0-0.2,0c-0.1,0-0.2-0.1-0.3-0.1c0,0-0.1,0-0.1-0.1l0,0c-0.1-0.1-0.3-0.2-0.4-0.2
				c-0.1,0-0.1-0.1-0.2-0.1c-1.1-1-1.1-2.5-0.7-3.5c0,0,0-0.1,0.1-0.1c3.7-6.6,8-10,12.5-10c2,0,3.7,0.6,4.9,1.8
				c1.3,1.3,2,2.8,2,4.7c0,1-0.2,2.3-0.7,3.8l-2,7v0.1l-1.6,5.5v0.1l-1.5,5.4c0.2-0.3,0.4-0.6,0.6-1l0,0l0,0l0,0
				c0,0,0.1-0.1,0.1-0.2l0,0l0,0c0-0.1,0.1-0.1,0.1-0.2l0,0c0.1-0.1,0.1-0.2,0.2-0.3l0,0l0,0l0,0c0.2-0.2,0.5-0.4,0.7-0.6l0,0l0,0
				l0,0c0.2-0.1,0.4-0.2,0.5-0.2l0,0c0.2,0,0.4-0.1,0.5-0.1s0.2,0,0.3,0h0.1c0.1,0,0.2,0,0.3,0l0,0c0.1,0,0.1,0,0.2,0
				c0.1,0,0.2,0,0.3,0.1c0.1,0,0.1,0,0.2,0.1c0.1,0.1,0.3,0.1,0.4,0.2c0.1,0,0.1,0.1,0.2,0.1c1.1,1,1.1,2.5,0.7,3.5
				c0,0,0,0.1-0.1,0.1C644.5,588.5,640.3,591.9,635.7,591.9z M636.3,559.5c0.1,0,0.3,0,0.4,0.1c0.3,0.2,0.4,0.5,0.4,0.9
				c-0.1,0.4-0.2,0.9-0.4,1.5l0,0l-2,7.1v0.1l0,0l-3.6,12.7l0,0c-0.4,1.3-0.6,2.5-0.6,3.3c0,1.4,0.5,2.6,1.5,3.5s2.2,1.4,3.8,1.4
				c4,0,7.7-3.1,11.1-9.1l0,0c0,0,0.4-0.9-0.3-1.6l0.5-0.7l-0.5,0.7c0,0-0.1-0.1-0.2-0.1l0,0c0,0,0,0-0.1,0h-0.1c0,0,0,0-0.1,0
				c0,0,0,0-0.1,0l0,0l0,0l0,0l0,0c-0.1,0-0.1,0-0.2,0l0,0l0,0c-0.1,0-0.2,0-0.2,0.1l0,0l0,0c-0.1,0.1-0.2,0.2-0.4,0.3l0,0l0,0l0,0
				c0,0-0.1,0.1-0.1,0.2l0,0l0,0L645,580l0,0c0,0,0,0.1-0.1,0.1l0,0l0,0l0,0l0,0l0,0c-1.3,2.1-2.2,3-3.1,3.7
				c-0.3,0.2-0.6,0.3-0.9,0.1s-0.4-0.5-0.4-0.9c0.1-0.4,0.2-0.9,0.4-1.5l0,0l2-7.1v-0.1l0,0l1.6-5.5l0,0l0,0l0,0l2-7l0,0
				c0.4-1.3,0.6-2.5,0.6-3.3c0-1.4-0.5-2.6-1.5-3.5s-2.2-1.4-3.8-1.4c-4,0-7.7,3.1-11.1,9.1c0,0-0.4,0.9,0.3,1.6l0,0
				c0,0,0.1,0.1,0.2,0.1l0,0l0,0h0.1l0,0c0,0,0,0,0.1,0h0.1l0,0l0,0l0,0l0,0c0.1,0,0.2,0,0.2,0l0,0l0,0c0.1,0,0.1,0,0.2-0.1l0,0
				c0.1-0.1,0.2-0.2,0.4-0.3l0,0l0,0l0.1-0.1l0,0l0,0l0.1-0.1l0,0l0,0c0,0,0-0.1,0.1-0.1l0,0l0,0l0,0c1.3-2.1,2.2-3,3.1-3.7
				C635.9,559.6,636.1,559.5,636.3,559.5z M644.9,580L644.9,580L644.9,580z"/>
		</g>
		<g>
			<path class="st3" d="M644.7,551.4c-3.9,0-7.1-3.3-7.1-7.2s3.2-7.2,7.1-7.2c3.9,0,7.1,3.3,7.1,7.2
				C651.8,548.1,648.6,551.4,644.7,551.4z M644.7,538.5c-3,0-5.5,2.5-5.5,5.6s2.5,5.6,5.5,5.6s5.5-2.5,5.5-5.6
				C650.2,541.1,647.8,538.5,644.7,538.5z"/>
		</g>
	</g>
</g>
<g>
	
		<text transform="matrix(1 0 0 1 755.5743 632.5001)" class="st3" style="font-family:'NotoSansKR-Regular-KSCpc-EUC-H'; font-size:25px; letter-spacing:-1;">찜한목록</text>
	<g>
		<path class="st3" d="M812.7,588c-0.2,0-0.4-0.1-0.6-0.2l-11.9-9.3l-11.9,9.3c-0.3,0.2-0.7,0.3-1.1,0.1c-0.3-0.2-0.6-0.5-0.6-0.9
			v-39c0-0.5,0.5-1,1-1h25c0.5,0,1,0.4,1,1v39c0,0.4-0.2,0.7-0.6,0.9C813,588,812.8,588,812.7,588z M800.2,576.3
			c0.2,0,0.4,0.1,0.6,0.2l10.9,8.5v-36h-23v36l10.9-8.5C799.7,576.4,799.9,576.3,800.2,576.3z"/>
	</g>
</g>
<g>
	<rect x="250.3" y="517" class="st0" width="143" height="148"/>
	<g>
		
			<text transform="matrix(1 0 0 1 278.7729 632.5001)" class="st3" style="font-family:'NotoSansKR-Regular-KSCpc-EUC-H'; font-size:25px; letter-spacing:-1;">트릿관리</text>
		<g>
			<g>
				<path class="st3" d="M311.8,592.6c-1.5,0-3.1-0.5-4.4-1.4c-2-1.4-3.1-3.6-3.2-6c-2.4-0.1-4.5-1.2-6-3.1c-2-2.7-1.9-6.3,0-9
					c1.7-2.3,4.6-3.5,7.4-3c2.2,0.4,4.4-0.3,5.9-1.8l10.8-10.8c1.5-1.5,2.2-3.7,1.8-5.9c-0.5-2.8,0.7-5.7,3-7.4c2.6-2,6.4-2,9,0
					c1.9,1.4,3.1,3.6,3.1,6c2.4,0.1,4.6,1.2,6,3.2c1.9,2.7,1.9,6.4-0.1,9c-1.7,2.3-4.5,3.4-7.3,2.9c-2.2-0.4-4.4,0.3-5.9,1.8
					l-10.8,10.8c-1.5,1.5-2.2,3.7-1.8,5.9c0.5,2.8-0.7,5.6-2.9,7.3l0,0C315.1,592.1,313.5,592.6,311.8,592.6z M305,583.6
					c0.2,0,0.4,0.1,0.6,0.2c0.2,0.2,0.3,0.4,0.2,0.6c-0.2,2.2,0.8,4.2,2.5,5.5c2.1,1.5,5.1,1.5,7.2-0.1l0,0c1.8-1.4,2.7-3.6,2.3-5.8
					c-0.4-2.7,0.4-5.4,2.3-7.3l10.8-10.8c1.9-1.8,4.6-2.7,7.3-2.3c2.2,0.4,4.4-0.5,5.8-2.3c1.6-2.1,1.6-5,0.1-7.2
					c-1.3-1.8-3.3-2.7-5.5-2.5c-0.2,0-0.5-0.1-0.6-0.2s-0.3-0.4-0.2-0.6c0.2-2.1-0.7-4.2-2.5-5.4c-2.1-1.5-5-1.5-7.1,0
					c-1.9,1.4-2.8,3.6-2.4,5.9c0.5,2.7-0.4,5.4-2.3,7.3l-10.8,10.8c-1.9,1.9-4.6,2.7-7.3,2.3c-2.2-0.4-4.5,0.5-5.9,2.4
					c-1.6,2.1-1.6,5,0,7.1C300.8,582.8,302.8,583.7,305,583.6L305,583.6z M316,590.4L316,590.4L316,590.4z"/>
			</g>
		</g>
	</g>
</g>
<g>
	<rect x="404.3" y="680.8" class="st0" width="143" height="148"/>
	
		<text transform="matrix(1 0 0 1 432.7664 795.5615)" class="st5" style="font-family:'NotoSansKR-Regular-KSCpc-EUC-H'; font-size:25px; letter-spacing:-1;">당첨내역</text>
	<g>
		<g>
			<g>
				<path class="st3" d="M457,756.8c-0.5,0-1.1-0.2-1.5-0.7c-0.6-0.6-0.8-1.5-0.5-2.3l13.3-32.9c0.2-0.4,0.6-0.6,1-0.4
					c0.4,0.2,0.6,0.6,0.4,1l-13.3,32.9c-0.1,0.2,0,0.5,0.2,0.6c0.1,0.1,0.4,0.3,0.6,0.2l32.7-13.4c0.4-0.2,0.8,0,1,0.4s0,0.8-0.4,1
					l-32.7,13.4C457.4,756.7,457.2,756.8,457,756.8z"/>
			</g>
			<g>
				<path class="st3" d="M489.6,743.5c-1,0-2.4-0.7-4.4-2c-2.4-1.7-5.4-4.1-8.2-6.9c-2.8-2.8-5.3-5.8-6.9-8.2
					c-2-2.9-2.3-4.7-1.5-5.6s2.6-0.4,5.6,1.5c2.4,1.7,5.4,4.1,8.2,6.9c2.8,2.8,5.3,5.8,6.9,8.2c2,2.9,2.3,4.7,1.5,5.6
					C490.4,743.4,490,743.5,489.6,743.5z M469.8,721.9c-0.1,0-0.1,0-0.2,0c-0.4,0.8,2.3,5.5,8.4,11.7c6.2,6.2,10.8,8.8,11.6,8.4
					c0.3-0.9-2.3-5.6-8.4-11.7C475.5,724.5,471,721.9,469.8,721.9z"/>
			</g>
		</g>
		<g>
			<path class="st3" d="M480.7,721.5c-0.1,0-0.1,0-0.2,0c-0.3-0.1-0.5-0.3-0.6-0.7l-0.5-4.5l-4.3-1.3c-0.3-0.1-0.5-0.4-0.5-0.7
				s0.2-0.6,0.5-0.7l4.1-1.9l-0.1-4.5c0-0.3,0.2-0.6,0.5-0.7s0.6,0,0.8,0.2l3,3.3l4.2-1.5c0.3-0.1,0.6,0,0.8,0.2
				c0.2,0.2,0.2,0.6,0.1,0.9l-2.3,3.9l2.7,3.6c0.2,0.3,0.2,0.6,0,0.9c-0.2,0.3-0.5,0.4-0.8,0.3l-4.4-1l-2.5,3.7
				C481.2,721.4,481,721.5,480.7,721.5z M477.6,714.1l2.8,0.9c0.3,0.1,0.5,0.3,0.5,0.7l0.3,3l1.8-2.4c0.2-0.3,0.5-0.4,0.8-0.3
				l2.9,0.7l-1.9-2.4c-0.2-0.2-0.2-0.6,0-0.8l1.5-2.6l-2.8,1c-0.3,0.1-0.6,0-0.8-0.2l-2-2.3l0.1,3c0,0.3-0.2,0.6-0.5,0.7
				L477.6,714.1z"/>
		</g>
		<g>
			<path class="st3" d="M497.1,719.9c-0.1,0-0.2,0-0.2,0c-0.3-0.1-0.5-0.4-0.5-0.7l-0.2-4.5l-4.2-1.6c-0.3-0.1-0.5-0.4-0.5-0.7
				s0.2-0.6,0.5-0.7l4.2-1.6l0.2-4.5c0-0.3,0.2-0.6,0.5-0.7c0.3-0.1,0.6,0,0.8,0.3l2.7,3.5l4.3-1.2c0.3-0.1,0.6,0,0.8,0.3
				c0.2,0.3,0.2,0.6,0,0.9l-2.5,3.7l2.4,3.8c0.2,0.3,0.2,0.6,0,0.9c-0.2,0.3-0.5,0.4-0.8,0.3l-4.3-1.3l-2.8,3.5
				C497.5,719.8,497.3,719.9,497.1,719.9z M494.3,712.4l2.8,1.1c0.3,0.1,0.5,0.4,0.5,0.7l0.1,3l1.9-2.3c0.2-0.2,0.5-0.3,0.8-0.3
				l2.9,0.8l-1.7-2.5c-0.2-0.3-0.2-0.6,0-0.8l1.7-2.5l-2.9,0.8c-0.3,0.1-0.6,0-0.8-0.3l-1.9-2.3l-0.1,3c0,0.3-0.2,0.6-0.5,0.7
				L494.3,712.4z"/>
		</g>
		<g>
			<path class="st3" d="M491.7,736.2c-0.1,0-0.2,0-0.4-0.1c-0.3-0.1-0.4-0.5-0.4-0.8l0.5-4.5l-3.9-2.3c-0.3-0.2-0.4-0.5-0.4-0.8
				s0.3-0.6,0.6-0.6l4.4-0.9l0.9-4.4c0.1-0.3,0.3-0.5,0.6-0.6c0.3,0,0.6,0.1,0.8,0.4l2.2,3.9l4.5-0.5c0.3,0,0.6,0.1,0.8,0.4
				c0.1,0.3,0.1,0.6-0.1,0.8l-3,3.3l1.9,4.1c0.1,0.3,0.1,0.6-0.2,0.8c-0.2,0.2-0.6,0.3-0.9,0.2l-4.1-1.9l-3.3,3
				C492.1,736.2,491.9,736.2,491.7,736.2z M490,728.4l2.6,1.5c0.3,0.2,0.4,0.5,0.4,0.8l-0.4,3l2.3-2.1c0.2-0.2,0.5-0.3,0.8-0.1
				l2.7,1.3l-1.3-2.7c-0.1-0.3-0.1-0.6,0.1-0.8l2.1-2.3l-2.9,0.3c-0.3,0-0.6-0.1-0.7-0.4l-1.5-2.6l-0.6,2.9
				c-0.1,0.3-0.3,0.5-0.6,0.6L490,728.4z"/>
		</g>
	</g>
</g>
<g>
	<rect class="st0" width="143" height="148"/>
	<g class="st4">
		<path class="st5" d="M43,105c-3.1,0.6-5.7,0.8-10.5,0.8h-1.8v-9.8h9.9v1.6h-7.9v6.5c4.4,0,7-0.2,10-0.8L43,105z M47.4,112.3
			c0,2.7-2.8,4.3-7.4,4.3c-4.5,0-7.4-1.6-7.4-4.3s2.8-4.3,7.4-4.3C44.6,108,47.4,109.6,47.4,112.3z M45.4,112.3c0-1.6-2-2.6-5.3-2.6
			c-3.3,0-5.4,1-5.4,2.6s2,2.6,5.4,2.6C43.4,114.9,45.4,113.9,45.4,112.3z M50.5,100v1.7h-3.3v5.8h-2.1V94.2h2.1v5.8H50.5z"/>
		<path class="st5" d="M64.1,106.7c-2.6-0.8-4.6-2.4-5.7-4.6c-0.9,2.3-3,4.2-5.6,5l-1-1.6c3.3-1,5.6-3.6,5.6-6.6v-0.4h-5v-1.7h5
			v-2.7h2v2.7h4.9v1.7h-4.9v0.4c0,2.8,2.3,5.2,5.6,6.2L64.1,106.7z M55.7,108.6h14.6v7.7H55.7V108.6z M57.7,114.7h10.6v-4.4H57.7
			V114.7z M70.3,94.2v13.3h-2.1v-5.3h-4.4v-1.7h4.4v-6.2H70.3z"/>
		<path class="st5" d="M76.9,109c2.1,0,4.5-0.2,7.2-0.7l0.2,1.8c-3,0.6-5.6,0.7-8,0.7h-1.4V96.9h2V109z M92.8,94.2v22.4h-2V105h-3.2
			v10.4h-1.9V94.7h1.9v8.6h3.2v-9.1H92.8z"/>
		<path class="st5" d="M114.3,94.2v13.2h-2.1v-3.2h-5.7c-1,1.3-2.7,2-4.6,2c-3.3,0-5.7-2.3-5.7-5.4c0-3.1,2.4-5.4,5.7-5.4
			c2,0,3.6,0.8,4.6,2h5.6v-3.3L114.3,94.2z M105.7,100.8c0-2.1-1.6-3.6-3.8-3.6c-2.2,0-3.8,1.5-3.8,3.6c0,2.2,1.6,3.7,3.8,3.7
			C104.1,104.5,105.7,103,105.7,100.8z M99.3,108.6h15v8h-2.1v-6.3H99.3V108.6z M112.2,102.5v-3.4h-4.8c0.1,0.5,0.3,1.1,0.3,1.7
			c0,0.6-0.1,1.2-0.3,1.7H112.2z"/>
	</g>
	<g>
		<g>
			<g>
				<path class="st3" d="M52.7,76c-0.5,0-1.1-0.2-1.5-0.7c-0.6-0.6-0.8-1.5-0.5-2.3L64,40.2c0.2-0.4,0.6-0.6,1-0.4
					c0.4,0.2,0.6,0.6,0.4,1L52.1,73.7c-0.1,0.2,0,0.5,0.2,0.6c0.1,0.1,0.4,0.3,0.6,0.2L85.5,61c0.4-0.2,0.8,0,1,0.4s0,0.8-0.4,1
					L53.4,75.8C53.1,75.9,52.9,76,52.7,76z"/>
			</g>
			<g>
				<path class="st3" d="M85.3,62.7c-1,0-2.4-0.7-4.4-2c-2.4-1.7-5.4-4.1-8.2-6.9c-2.8-2.8-5.3-5.8-6.9-8.2c-2-2.9-2.3-4.7-1.5-5.6
					c0.9-0.9,2.6-0.4,5.6,1.5c2.4,1.7,5.4,4.1,8.2,6.9c2.8,2.8,5.3,5.8,6.9,8.2c2,2.9,2.3,4.7,1.5,5.6
					C86.1,62.6,85.7,62.7,85.3,62.7z M65.5,41.1c-0.1,0-0.1,0-0.2,0c-0.4,0.8,2.3,5.5,8.4,11.7c6.2,6.2,10.8,8.8,11.6,8.4
					c0.3-0.9-2.3-5.6-8.4-11.7C71.2,43.7,66.7,41.1,65.5,41.1z"/>
			</g>
		</g>
		<g>
			<path class="st3" d="M76.4,40.7c-0.1,0-0.1,0-0.2,0c-0.3-0.1-0.5-0.3-0.6-0.7l-0.5-4.5l-4.3-1.3c-0.3-0.1-0.5-0.4-0.5-0.7
				s0.2-0.6,0.5-0.7L75,31l-0.1-4.5c0-0.3,0.2-0.6,0.5-0.7s0.6,0,0.8,0.2l3,3.3l4.2-1.5c0.3-0.1,0.6,0,0.8,0.2
				c0.2,0.2,0.2,0.6,0.1,0.9L82,32.8l2.7,3.6c0.2,0.3,0.2,0.6,0,0.9c-0.2,0.3-0.5,0.4-0.8,0.3l-4.4-1L77,40.4
				C76.9,40.6,76.7,40.7,76.4,40.7z M73.3,33.3l2.8,0.9c0.3,0.1,0.5,0.3,0.5,0.7l0.3,3l1.8-2.4c0.2-0.3,0.5-0.4,0.8-0.3l2.9,0.7
				l-1.9-2.4c-0.2-0.2-0.2-0.6,0-0.8L82,30l-2.8,1c-0.3,0.1-0.6,0-0.8-0.2l-2-2.3l0.1,3c0,0.3-0.2,0.6-0.5,0.7L73.3,33.3z"/>
		</g>
		<g>
			<path class="st3" d="M92.8,39.1c-0.1,0-0.2,0-0.2,0c-0.3-0.1-0.5-0.4-0.5-0.7l-0.2-4.5l-4.2-1.6c-0.3-0.1-0.5-0.4-0.5-0.7
				s0.2-0.6,0.5-0.7l4.2-1.6l0.2-4.5c0-0.3,0.2-0.6,0.5-0.7s0.6,0,0.8,0.3l2.7,3.5l4.3-1.2c0.3-0.1,0.6,0,0.8,0.3
				c0.2,0.3,0.2,0.6,0,0.9l-2.5,3.7l2.4,3.8c0.2,0.3,0.2,0.6,0,0.9c-0.2,0.3-0.5,0.4-0.8,0.3L96,35.5L93.2,39
				C93.2,39,93,39.1,92.8,39.1z M90,31.6l2.8,1.1c0.3,0.1,0.5,0.4,0.5,0.7l0.1,3l1.9-2.3c0.2-0.2,0.5-0.3,0.8-0.3l2.9,0.8L97.4,32
				c-0.2-0.3-0.2-0.6,0-0.8l1.7-2.5l-2.9,0.8c-0.3,0.1-0.6,0-0.8-0.3l-1.9-2.3l-0.1,3c0,0.3-0.2,0.6-0.5,0.7L90,31.6z"/>
		</g>
		<g>
			<path class="st3" d="M87.4,55.4c-0.1,0-0.2,0-0.4-0.1c-0.3-0.1-0.4-0.5-0.4-0.8l0.5-4.5l-3.9-2.3c-0.3-0.2-0.4-0.5-0.4-0.8
				s0.3-0.6,0.6-0.6l4.4-0.9l0.9-4.4c0.1-0.3,0.3-0.5,0.6-0.6c0.3,0,0.6,0.1,0.8,0.4l2.2,3.9l4.5-0.5c0.3,0,0.6,0.1,0.8,0.4
				c0.1,0.3,0.1,0.6-0.1,0.8l-3,3.3l1.9,4.1c0.1,0.3,0.1,0.6-0.2,0.8c-0.2,0.2-0.6,0.3-0.9,0.2L91,52.1l-3.3,3
				C87.8,55.4,87.6,55.4,87.4,55.4z M85.7,47.6l2.6,1.5c0.3,0.2,0.4,0.5,0.4,0.8l-0.4,3l2.3-2.1c0.2-0.2,0.5-0.3,0.8-0.1l2.7,1.3
				l-1.3-2.7c-0.1-0.3-0.1-0.6,0.1-0.8l2.1-2.3l-2.9,0.3c-0.3,0-0.6-0.1-0.7-0.4l-1.5-2.6l-0.6,2.9c-0.1,0.3-0.3,0.5-0.6,0.6
				L85.7,47.6z"/>
		</g>
	</g>
</g>
<text transform="matrix(1 0 0 1 432.7664 1000.605)" class="st5" style="font-family:'NotoSansKR-Regular-KSCpc-EUC-H'; font-size:25px; letter-spacing:-1;">당첨내역</text>
<text transform="matrix(1 0 0 1 599.1354 1000.605)" class="st5" style="font-family:'NotoSansKR-Regular-KSCpc-EUC-H'; font-size:25px; letter-spacing:-1;">1:1문의</text>
<g>
	<g>
		<path class="st3" d="M635.7,964.8c-2,0-3.7-0.6-4.9-1.8c-1.3-1.3-2-2.8-2-4.7c0-1,0.2-2.3,0.7-3.8l3.6-12.7v-0.1l1.5-5.4
			c-0.2,0.3-0.4,0.6-0.6,1c0,0,0,0,0,0.1c0,0-0.1,0.1-0.1,0.2l0,0c0,0-0.1,0.1-0.1,0.2l0,0l0,0c-0.1,0.1-0.1,0.2-0.2,0.2l0,0l0,0
			l0,0l0,0c-0.2,0.2-0.5,0.4-0.7,0.6l0,0l0,0c-0.2,0.1-0.3,0.2-0.5,0.2h-0.1c-0.1,0-0.3,0.1-0.5,0.1c-0.1,0-0.2,0-0.3,0h-0.1
			c-0.1,0-0.2,0-0.3,0s-0.1,0-0.2,0c-0.1,0-0.2-0.1-0.3-0.1c0,0-0.1,0-0.1-0.1l0,0c-0.1-0.1-0.3-0.2-0.4-0.2c-0.1,0-0.1-0.1-0.2-0.1
			c-1.1-1-1.1-2.5-0.7-3.5c0,0,0-0.1,0.1-0.1c3.7-6.6,8-10,12.5-10c2,0,3.7,0.6,4.9,1.8c1.3,1.3,2,2.8,2,4.7c0,1-0.2,2.3-0.7,3.8
			l-2,7v0.1l-1.6,5.5v0.1l-1.5,5.4c0.2-0.3,0.4-0.6,0.6-1l0,0l0,0l0,0c0,0,0.1-0.1,0.1-0.2l0,0l0,0c0-0.1,0.1-0.1,0.1-0.2l0,0
			c0.1-0.1,0.1-0.2,0.2-0.3l0,0l0,0l0,0c0.2-0.2,0.5-0.4,0.7-0.6l0,0l0,0l0,0c0.2-0.1,0.4-0.2,0.5-0.2l0,0c0.2,0,0.4-0.1,0.5-0.1
			s0.2,0,0.3,0h0.1c0.1,0,0.2,0,0.3,0l0,0c0.1,0,0.1,0,0.2,0c0.1,0,0.2,0,0.3,0.1c0.1,0,0.1,0,0.2,0.1c0.1,0.1,0.3,0.1,0.4,0.2
			c0.1,0,0.1,0.1,0.2,0.1c1.1,1,1.1,2.5,0.7,3.5c0,0,0,0.1-0.1,0.1C644.5,961.5,640.3,964.8,635.7,964.8z M636.3,932.5
			c0.1,0,0.3,0,0.4,0.1c0.3,0.2,0.4,0.5,0.4,0.9c-0.1,0.4-0.2,0.9-0.4,1.5l0,0l-2,7.1v0.1l0,0l-3.6,12.7l0,0
			c-0.4,1.3-0.6,2.5-0.6,3.3c0,1.4,0.5,2.6,1.5,3.5s2.2,1.4,3.8,1.4c4,0,7.7-3.1,11.1-9.1l0,0c0,0,0.4-0.9-0.3-1.6l0.5-0.7l-0.5,0.7
			c0,0-0.1-0.1-0.2-0.1l0,0c0,0,0,0-0.1,0h-0.1c0,0,0,0-0.1,0c0,0,0,0-0.1,0l0,0l0,0l0,0l0,0c-0.1,0-0.1,0-0.2,0l0,0l0,0
			c-0.1,0-0.2,0-0.2,0.1l0,0l0,0c-0.1,0.1-0.2,0.2-0.4,0.3l0,0l0,0l0,0c0,0-0.1,0.1-0.1,0.2l0,0l0,0L645,953l0,0c0,0,0,0.1-0.1,0.1
			l0,0l0,0l0,0l0,0l0,0c-1.3,2.1-2.2,3-3.1,3.7c-0.3,0.2-0.6,0.3-0.9,0.1s-0.4-0.5-0.4-0.9c0.1-0.4,0.2-0.9,0.4-1.5l0,0l2-7.1v-0.1
			l0,0l1.6-5.5l0,0l0,0l0,0l2-7l0,0c0.4-1.3,0.6-2.5,0.6-3.3c0-1.4-0.5-2.6-1.5-3.5s-2.2-1.4-3.8-1.4c-4,0-7.7,3.1-11.1,9.1
			c0,0-0.4,0.9,0.3,1.6l0,0c0,0,0.1,0.1,0.2,0.1l0,0l0,0h0.1l0,0c0,0,0,0,0.1,0h0.1l0,0l0,0l0,0l0,0c0.1,0,0.2,0,0.2,0l0,0l0,0
			c0.1,0,0.1,0,0.2-0.1l0,0c0.1-0.1,0.2-0.2,0.4-0.3l0,0l0,0l0.1-0.1l0,0l0,0l0.1-0.1l0,0l0,0c0,0,0-0.1,0.1-0.1l0,0l0,0l0,0
			c1.3-2.1,2.2-3,3.1-3.7C635.9,932.5,636.1,932.5,636.3,932.5z M644.9,952.9L644.9,952.9L644.9,952.9z"/>
	</g>
	<g>
		<path class="st3" d="M644.7,924.3c-3.9,0-7.1-3.3-7.1-7.2s3.2-7.2,7.1-7.2c3.9,0,7.1,3.3,7.1,7.2
			C651.8,921.1,648.6,924.3,644.7,924.3z M644.7,911.5c-3,0-5.5,2.5-5.5,5.6s2.5,5.6,5.5,5.6s5.5-2.5,5.5-5.6
			S647.8,911.5,644.7,911.5z"/>
	</g>
</g>
<text transform="matrix(1 0 0 1 755.5743 1000.605)" class="st5" style="font-family:'NotoSansKR-Regular-KSCpc-EUC-H'; font-size:25px; letter-spacing:-1;">찜한목록</text>
<g>
	<path class="st3" d="M812.7,961.8c-0.2,0-0.4-0.1-0.6-0.2l-11.9-9.3l-11.9,9.3c-0.3,0.2-0.7,0.3-1.1,0.1c-0.3-0.2-0.6-0.5-0.6-0.9
		v-39c0-0.5,0.5-1,1-1h25c0.5,0,1,0.4,1,1v39c0,0.4-0.2,0.7-0.6,0.9C813,961.7,812.8,961.8,812.7,961.8z M800.2,950.1
		c0.2,0,0.4,0.1,0.6,0.2l10.9,8.5v-36h-23v36l10.9-8.5C799.7,950.1,799.9,950.1,800.2,950.1z"/>
</g>
<text transform="matrix(1 0 0 1 278.7729 1000.6049)" class="st5" style="font-family:'NotoSansKR-Regular-KSCpc-EUC-H'; font-size:25px; letter-spacing:-1;">트릿관리</text>
<g>
	<g>
		<path class="st3" d="M311.8,961.8c-1.5,0-3.1-0.5-4.4-1.4c-2-1.4-3.1-3.6-3.2-6c-2.4-0.1-4.5-1.2-6-3.1c-2-2.7-1.9-6.3,0-9
			c1.7-2.3,4.6-3.5,7.4-3c2.2,0.4,4.4-0.3,5.9-1.8l10.8-10.8c1.5-1.5,2.2-3.7,1.8-5.9c-0.5-2.8,0.7-5.7,3-7.4c2.6-2,6.4-2,9,0
			c1.9,1.4,3.1,3.6,3.1,6c2.4,0.1,4.6,1.2,6,3.2c1.9,2.7,1.9,6.4-0.1,9c-1.7,2.3-4.5,3.4-7.3,2.9c-2.2-0.4-4.4,0.3-5.9,1.8
			l-10.8,10.8c-1.5,1.5-2.2,3.7-1.8,5.9c0.5,2.8-0.7,5.6-2.9,7.3l0,0C315.1,961.2,313.5,961.8,311.8,961.8z M305,952.7
			c0.2,0,0.4,0.1,0.6,0.2c0.2,0.2,0.3,0.4,0.2,0.6c-0.2,2.2,0.8,4.2,2.5,5.5c2.1,1.5,5.1,1.5,7.2-0.1l0,0c1.8-1.4,2.7-3.6,2.3-5.8
			c-0.4-2.7,0.4-5.4,2.3-7.3l10.8-10.8c1.9-1.8,4.6-2.7,7.3-2.3c2.2,0.4,4.4-0.5,5.8-2.3c1.6-2.1,1.6-5,0.1-7.2
			c-1.3-1.8-3.3-2.7-5.5-2.5c-0.2,0-0.5-0.1-0.6-0.2s-0.3-0.4-0.2-0.6c0.2-2.1-0.7-4.2-2.5-5.4c-2.1-1.5-5-1.5-7.1,0
			c-1.9,1.4-2.8,3.6-2.4,5.9c0.5,2.7-0.4,5.4-2.3,7.3l-10.8,10.8c-1.9,1.9-4.6,2.7-7.3,2.3c-2.2-0.4-4.5,0.5-5.9,2.4
			c-1.6,2.1-1.6,5,0,7.1C300.8,952,302.8,952.9,305,952.7L305,952.7z M316,959.6L316,959.6L316,959.6z"/>
	</g>
</g>
<g>
	<g>
		<g>
			<path class="st3" d="M457,961.8c-0.5,0-1.1-0.2-1.5-0.7c-0.6-0.6-0.8-1.5-0.5-2.3l13.3-32.9c0.2-0.4,0.6-0.6,1-0.4
				c0.4,0.2,0.6,0.6,0.4,1l-13.3,32.9c-0.1,0.2,0,0.5,0.2,0.6c0.1,0.1,0.4,0.3,0.6,0.2l32.7-13.4c0.4-0.2,0.8,0,1,0.4s0,0.8-0.4,1
				l-32.7,13.4C457.4,961.7,457.2,961.8,457,961.8z"/>
		</g>
		<g>
			<path class="st3" d="M489.6,948.5c-1,0-2.4-0.7-4.4-2c-2.4-1.7-5.4-4.1-8.2-6.9c-2.8-2.8-5.3-5.8-6.9-8.2c-2-2.9-2.3-4.7-1.5-5.6
				s2.6-0.4,5.6,1.5c2.4,1.7,5.4,4.1,8.2,6.9c2.8,2.8,5.3,5.8,6.9,8.2c2,2.9,2.3,4.7,1.5,5.6C490.4,948.4,490,948.5,489.6,948.5z
				 M469.8,926.9c-0.1,0-0.1,0-0.2,0c-0.4,0.8,2.3,5.5,8.4,11.7c6.2,6.2,10.8,8.8,11.6,8.4c0.3-0.9-2.3-5.6-8.4-11.7
				C475.5,929.5,471,926.9,469.8,926.9z"/>
		</g>
	</g>
	<g>
		<path class="st3" d="M480.7,926.5c-0.1,0-0.1,0-0.2,0c-0.3-0.1-0.5-0.3-0.6-0.7l-0.5-4.5l-4.3-1.3c-0.3-0.1-0.5-0.4-0.5-0.7
			s0.2-0.6,0.5-0.7l4.1-1.9l-0.1-4.5c0-0.3,0.2-0.6,0.5-0.7c0.3-0.1,0.6,0,0.8,0.2l3,3.3l4.2-1.5c0.3-0.1,0.6,0,0.8,0.2
			c0.2,0.2,0.2,0.6,0.1,0.9l-2.3,3.9l2.7,3.6c0.2,0.3,0.2,0.6,0,0.9c-0.2,0.3-0.5,0.4-0.8,0.3l-4.4-1l-2.5,3.7
			C481.2,926.4,481,926.5,480.7,926.5z M477.6,919.2l2.8,0.9c0.3,0.1,0.5,0.3,0.5,0.7l0.3,3l1.8-2.4c0.2-0.3,0.5-0.4,0.8-0.3
			l2.9,0.7l-1.9-2.4c-0.2-0.2-0.2-0.6,0-0.8l1.5-2.6l-2.8,1c-0.3,0.1-0.6,0-0.8-0.2l-2-2.3l0.1,3c0,0.3-0.2,0.6-0.5,0.7L477.6,919.2
			z"/>
	</g>
	<g>
		<path class="st3" d="M497.1,924.9c-0.1,0-0.2,0-0.2,0c-0.3-0.1-0.5-0.4-0.5-0.7l-0.2-4.5l-4.2-1.6c-0.3-0.1-0.5-0.4-0.5-0.7
			s0.2-0.6,0.5-0.7l4.2-1.6l0.2-4.5c0-0.3,0.2-0.6,0.5-0.7s0.6,0,0.8,0.3l2.7,3.5l4.3-1.2c0.3-0.1,0.6,0,0.8,0.3
			c0.2,0.3,0.2,0.6,0,0.9l-2.5,3.7l2.4,3.8c0.2,0.3,0.2,0.6,0,0.9c-0.2,0.3-0.5,0.4-0.8,0.3l-4.3-1.3l-2.8,3.5
			C497.5,924.8,497.3,924.9,497.1,924.9z M494.3,917.4l2.8,1.1c0.3,0.1,0.5,0.4,0.5,0.7l0.1,3l1.9-2.3c0.2-0.2,0.5-0.3,0.8-0.3
			l2.9,0.8l-1.7-2.5c-0.2-0.3-0.2-0.6,0-0.8l1.7-2.5l-2.9,0.8c-0.3,0.1-0.6,0-0.8-0.3l-1.9-2.3l-0.1,3c0,0.3-0.2,0.6-0.5,0.7
			L494.3,917.4z"/>
	</g>
	<g>
		<path class="st3" d="M491.7,941.3c-0.1,0-0.2,0-0.4-0.1c-0.3-0.1-0.4-0.5-0.4-0.8l0.5-4.5l-3.9-2.3c-0.3-0.2-0.4-0.5-0.4-0.8
			s0.3-0.6,0.6-0.6l4.4-0.9l0.9-4.4c0.1-0.3,0.3-0.5,0.6-0.6c0.3,0,0.6,0.1,0.8,0.4l2.2,3.9l4.5-0.5c0.3,0,0.6,0.1,0.8,0.4
			c0.1,0.3,0.1,0.6-0.1,0.8l-3,3.3l1.9,4.1c0.1,0.3,0.1,0.6-0.2,0.8c-0.2,0.2-0.6,0.3-0.9,0.2l-4.1-1.9l-3.3,3
			C492.1,941.3,491.9,941.3,491.7,941.3z M490,933.5l2.6,1.5c0.3,0.2,0.4,0.5,0.4,0.8l-0.4,3l2.3-2.1c0.2-0.2,0.5-0.3,0.8-0.1
			l2.7,1.3l-1.3-2.7c-0.1-0.3-0.1-0.6,0.1-0.8l2.1-2.3l-2.9,0.3c-0.3,0-0.6-0.1-0.7-0.4l-1.5-2.6l-0.6,2.9c-0.1,0.3-0.3,0.5-0.6,0.6
			L490,933.5z"/>
	</g>
</g>
</svg>
