<?xml version="1.0" encoding="utf-8"?>
<!-- Generator: Adobe Illustrator 25.0.1, SVG Export Plug-In . SVG Version: 6.00 Build 0)  -->
<svg version="1.1" id="Layer_1" xmlns="http://www.w3.org/2000/svg" xmlns:xlink="http://www.w3.org/1999/xlink" x="0px" y="0px"
	 viewBox="0 0 143 148" style="enable-background:new 0 0 143 148;" xml:space="preserve">
<style type="text/css">
	.st0{fill:#FFFFFF;}
	.st1{fill:#F6F6F6;}
	.st2{fill:#DCDCDC;}
	.st3{fill:#525252;}
	.st4{enable-background:new    ;}
	.st5{fill:#7E7E7E;}
	.st6{fill:#EF998C;}
</style>
<rect x="404.3" y="680.8" class="st0" width="143" height="148"/>
<rect x="566.6" y="680.8" class="st0" width="143" height="148"/>
<rect x="727.2" y="680.8" class="st0" width="143" height="148"/>
<g>
	<circle class="st1" cx="76" cy="-405.5" r="79"/>
	<g>
		<path class="st2" d="M73.8-403.5H61.7v-4.1h12.2v-13.1h4.4v13.1h12.2v4.1H78.2v13.1h-4.4V-403.5z"/>
	</g>
</g>
<image style="overflow:visible;enable-background:new    ;" width="720" height="1287" xlink:href="A376FE51.jpeg"  transform="matrix(1 0 0 1 998.1087 -337.7826)">
</image>
<g>
	<g>
		<g>
			<g>
				<path class="st3" d="M457,757.8c-0.5,0-1.1-0.2-1.5-0.7c-0.6-0.6-0.8-1.5-0.5-2.3l13.6-33.6c0.2-0.4,0.6-0.6,1-0.4
					c0.4,0.2,0.6,0.6,0.4,1l-13.6,33.6c-0.1,0.2,0,0.5,0.2,0.6c0.1,0.1,0.4,0.3,0.6,0.2l33.4-13.7c0.4-0.2,0.8,0,1,0.4
					c0.2,0.4,0,0.8-0.4,1l-33.4,13.7C457.5,757.7,457.3,757.8,457,757.8z"/>
			</g>
			<g>
				<path class="st3" d="M490.3,744.2c-1,0-2.5-0.7-4.5-2c-2.5-1.7-5.5-4.2-8.4-7.1c-2.9-2.9-5.4-5.9-7.1-8.4c-2-3-2.4-4.8-1.5-5.7
					c0.9-0.9,2.7-0.4,5.7,1.5c2.5,1.7,5.5,4.2,8.4,7.1c2.9,2.9,5.4,5.9,7.1,8.4c2,3,2.4,4.8,1.5,5.7
					C491.2,744.1,490.8,744.2,490.3,744.2z M470.1,722.1c-0.1,0-0.1,0-0.2,0c-0.4,0.8,2.3,5.6,8.6,12c6.3,6.3,11,9,11.9,8.6
					c0.3-0.9-2.3-5.7-8.6-12C475.9,724.8,471.3,722.1,470.1,722.1z"/>
			</g>
		</g>
		<g>
			<path class="st3" d="M481.3,721.7c-0.1,0-0.1,0-0.2,0c-0.3-0.1-0.5-0.3-0.6-0.7l-0.5-4.6l-4.4-1.3c-0.3-0.1-0.5-0.4-0.5-0.7
				c0-0.3,0.2-0.6,0.5-0.7l4.2-1.9l-0.1-4.6c0-0.3,0.2-0.6,0.5-0.7c0.3-0.1,0.6,0,0.8,0.2l3.1,3.4l4.3-1.5c0.3-0.1,0.6,0,0.8,0.2
				c0.2,0.2,0.2,0.6,0.1,0.9l-2.3,4l2.8,3.7c0.2,0.3,0.2,0.6,0,0.9c-0.2,0.3-0.5,0.4-0.8,0.3l-4.5-1l-2.6,3.8
				C481.8,721.6,481.6,721.7,481.3,721.7z M478.1,714.2l2.9,0.9c0.3,0.1,0.5,0.3,0.5,0.7l0.3,3.1l1.8-2.5c0.2-0.3,0.5-0.4,0.8-0.3
				l3,0.7l-1.9-2.5c-0.2-0.2-0.2-0.6,0-0.8l1.5-2.7l-2.9,1c-0.3,0.1-0.6,0-0.8-0.2l-2-2.3l0.1,3.1c0,0.3-0.2,0.6-0.5,0.7
				L478.1,714.2z"/>
		</g>
		<g>
			<path class="st3" d="M498,720.1c-0.1,0-0.2,0-0.2,0c-0.3-0.1-0.5-0.4-0.5-0.7l-0.2-4.6l-4.3-1.6c-0.3-0.1-0.5-0.4-0.5-0.7
				s0.2-0.6,0.5-0.7l4.3-1.6l0.2-4.6c0-0.3,0.2-0.6,0.5-0.7c0.3-0.1,0.6,0,0.8,0.3l2.8,3.6l4.4-1.2c0.3-0.1,0.6,0,0.8,0.3
				c0.2,0.3,0.2,0.6,0,0.9l-2.6,3.8l2.5,3.9c0.2,0.3,0.2,0.6,0,0.9c-0.2,0.3-0.5,0.4-0.8,0.3l-4.4-1.3l-2.9,3.6
				C498.4,720,498.2,720.1,498,720.1z M495.2,712.4l2.9,1.1c0.3,0.1,0.5,0.4,0.5,0.7l0.1,3.1l1.9-2.4c0.2-0.2,0.5-0.3,0.8-0.3l3,0.8
				l-1.7-2.6c-0.2-0.3-0.2-0.6,0-0.8l1.7-2.6l-3,0.8c-0.3,0.1-0.6,0-0.8-0.3l-1.9-2.4l-0.1,3.1c0,0.3-0.2,0.6-0.5,0.7L495.2,712.4z"
				/>
		</g>
		<g>
			<path class="st3" d="M492.5,736.8c-0.1,0-0.2,0-0.4-0.1c-0.3-0.1-0.4-0.5-0.4-0.8l0.5-4.6l-4-2.3c-0.3-0.2-0.4-0.5-0.4-0.8
				c0-0.3,0.3-0.6,0.6-0.6l4.5-0.9l0.9-4.5c0.1-0.3,0.3-0.5,0.6-0.6c0.3,0,0.6,0.1,0.8,0.4l2.2,4l4.6-0.5c0.3,0,0.6,0.1,0.8,0.4
				c0.1,0.3,0.1,0.6-0.1,0.8l-3.1,3.4l1.9,4.2c0.1,0.3,0.1,0.6-0.2,0.8c-0.2,0.2-0.6,0.3-0.9,0.2l-4.2-1.9l-3.4,3.1
				C492.9,736.8,492.7,736.8,492.5,736.8z M490.8,728.8l2.7,1.5c0.3,0.2,0.4,0.5,0.4,0.8l-0.4,3.1l2.3-2.1c0.2-0.2,0.5-0.3,0.8-0.1
				l2.8,1.3l-1.3-2.8c-0.1-0.3-0.1-0.6,0.1-0.8l2.1-2.3l-3,0.3c-0.3,0-0.6-0.1-0.7-0.4l-1.5-2.7l-0.6,3c-0.1,0.3-0.3,0.5-0.6,0.6
				L490.8,728.8z"/>
		</g>
	</g>
	
		<text transform="matrix(1 0 0 1 432.7664 796.3262)" class="st5" style="font-family:'NotoSansKR-Regular-KSCpc-EUC-H'; font-size:25px; letter-spacing:-1;">당첨내역</text>
</g>
<g>
	
		<text transform="matrix(1 0 0 1 595.1349 796.3262)" class="st5" style="font-family:'NotoSansKR-Regular-KSCpc-EUC-H'; font-size:25px; letter-spacing:-1;">이용문의</text>
	<g>
		<g>
			<path class="st3" d="M635.7,755.7c-2,0-3.7-0.6-4.9-1.8c-1.3-1.3-2-2.8-2-4.7c0-1,0.2-2.3,0.7-3.8l3.6-12.7c0,0,0-0.1,0-0.1
				l1.5-5.4c-0.2,0.3-0.4,0.6-0.6,1c0,0,0,0,0,0.1c0,0-0.1,0.1-0.1,0.2c0,0,0,0,0,0c0,0-0.1,0.1-0.1,0.2l0,0c0,0,0,0,0,0
				c-0.1,0.1-0.1,0.2-0.2,0.2l0,0c0,0,0,0,0,0l0,0c0,0,0,0,0,0c-0.2,0.2-0.5,0.4-0.7,0.6l0,0c0,0,0,0,0,0c-0.2,0.1-0.3,0.2-0.5,0.2
				c0,0-0.1,0-0.1,0c-0.1,0-0.3,0.1-0.5,0.1c-0.1,0-0.2,0-0.3,0c0,0-0.1,0-0.1,0c-0.1,0-0.2,0-0.3,0c-0.1,0-0.1,0-0.2,0
				c-0.1,0-0.2-0.1-0.3-0.1c0,0-0.1,0-0.1-0.1c0,0,0,0,0,0c-0.1-0.1-0.3-0.2-0.4-0.2c-0.1,0-0.1-0.1-0.2-0.1c-1.1-1-1.1-2.5-0.7-3.5
				c0,0,0-0.1,0.1-0.1c3.7-6.6,8-10,12.5-10c2,0,3.7,0.6,4.9,1.8c1.3,1.3,2,2.8,2,4.7c0,1-0.2,2.3-0.7,3.8l-2,7c0,0,0,0.1,0,0.1
				l-1.6,5.5c0,0,0,0.1,0,0.1l-1.5,5.4c0.2-0.3,0.4-0.6,0.6-1l0,0c0,0,0,0,0,0c0,0,0,0,0,0c0,0,0.1-0.1,0.1-0.2l0,0c0,0,0,0,0,0
				c0-0.1,0.1-0.1,0.1-0.2c0,0,0,0,0,0c0.1-0.1,0.1-0.2,0.2-0.3l0,0c0,0,0,0,0,0l0,0c0.2-0.2,0.5-0.4,0.7-0.6c0,0,0,0,0,0l0,0
				c0,0,0,0,0,0c0.2-0.1,0.4-0.2,0.5-0.2c0,0,0,0,0,0c0.2,0,0.4-0.1,0.5-0.1c0.1,0,0.2,0,0.3,0c0,0,0.1,0,0.1,0c0.1,0,0.2,0,0.3,0h0
				c0.1,0,0.1,0,0.2,0c0.1,0,0.2,0,0.3,0.1c0.1,0,0.1,0,0.2,0.1c0.1,0.1,0.3,0.1,0.4,0.2c0.1,0,0.1,0.1,0.2,0.1
				c1.1,1,1.1,2.5,0.7,3.5c0,0,0,0.1-0.1,0.1C644.5,752.4,640.3,755.7,635.7,755.7z M636.3,723.4c0.1,0,0.3,0,0.4,0.1
				c0.3,0.2,0.4,0.5,0.4,0.9c-0.1,0.4-0.2,0.9-0.4,1.5c0,0,0,0,0,0l-2,7.1c0,0,0,0.1,0,0.1v0l-3.6,12.7v0c-0.4,1.3-0.6,2.5-0.6,3.3
				c0,1.4,0.5,2.6,1.5,3.5c1,0.9,2.2,1.4,3.8,1.4c4,0,7.7-3.1,11.1-9.1l0,0c0,0,0.4-0.9-0.3-1.6l0.5-0.7l-0.5,0.7
				c0,0-0.1-0.1-0.2-0.1c0,0,0,0,0,0c0,0,0,0-0.1,0c0,0-0.1,0-0.1,0c0,0,0,0-0.1,0c0,0,0,0-0.1,0c0,0,0,0,0,0h0c0,0,0,0,0,0
				c0,0,0,0,0,0c-0.1,0-0.1,0-0.2,0h0h0c-0.1,0-0.2,0-0.2,0.1c0,0,0,0,0,0l0,0c-0.1,0.1-0.2,0.2-0.4,0.3l0,0l0,0l0,0
				c0,0-0.1,0.1-0.1,0.2l0,0l0,0c0,0-0.1,0.1-0.1,0.1c0,0,0,0,0,0c0,0,0,0.1-0.1,0.1c0,0,0,0,0,0l0,0l0,0l0,0c0,0,0,0,0,0
				c-1.3,2.1-2.2,3-3.1,3.7c-0.3,0.2-0.6,0.3-0.9,0.1s-0.4-0.5-0.4-0.9c0.1-0.4,0.2-0.9,0.4-1.5c0,0,0,0,0,0l2-7.1c0,0,0-0.1,0-0.1
				c0,0,0,0,0,0l1.6-5.5c0,0,0,0,0,0s0,0,0,0s0,0,0,0l2-7v0c0.4-1.3,0.6-2.5,0.6-3.3c0-1.4-0.5-2.6-1.5-3.5c-1-0.9-2.2-1.4-3.8-1.4
				c-4,0-7.7,3.1-11.1,9.1c0,0-0.4,0.9,0.3,1.6l0,0c0,0,0.1,0.1,0.2,0.1c0,0,0,0,0,0c0,0,0,0,0,0c0,0,0.1,0,0.1,0h0c0,0,0,0,0.1,0
				c0,0,0.1,0,0.1,0c0,0,0,0,0,0c0,0,0,0,0,0s0,0,0,0c0,0,0,0,0,0c0.1,0,0.2,0,0.2,0c0,0,0,0,0,0s0,0,0,0c0.1,0,0.1,0,0.2-0.1l0,0
				c0.1-0.1,0.2-0.2,0.4-0.3l0,0l0,0c0,0,0.1-0.1,0.1-0.1l0,0c0,0,0,0,0,0c0,0,0.1-0.1,0.1-0.1c0,0,0,0,0,0l0,0c0,0,0-0.1,0.1-0.1
				c0,0,0,0,0,0v0c0,0,0,0,0,0c1.3-2.1,2.2-3,3.1-3.7C635.9,723.4,636.1,723.4,636.3,723.4z M644.9,743.8L644.9,743.8L644.9,743.8z"
				/>
		</g>
		<g>
			<path class="st3" d="M644.7,715.2c-3.9,0-7.1-3.3-7.1-7.2s3.2-7.2,7.1-7.2c3.9,0,7.1,3.3,7.1,7.2
				C651.8,712,648.6,715.2,644.7,715.2z M644.7,702.4c-3,0-5.5,2.5-5.5,5.6c0,3.1,2.5,5.6,5.5,5.6s5.5-2.5,5.5-5.6
				C650.2,704.9,647.8,702.4,644.7,702.4z"/>
		</g>
	</g>
</g>
<g>
	
		<text transform="matrix(1 0 0 1 755.5743 796.3262)" class="st5" style="font-family:'NotoSansKR-Regular-KSCpc-EUC-H'; font-size:25px; letter-spacing:-1;">찜한목록</text>
	<g>
		<path class="st3" d="M812.7,751.9c-0.2,0-0.4-0.1-0.6-0.2l-11.9-9.3l-11.9,9.3c-0.3,0.2-0.7,0.3-1.1,0.1c-0.3-0.2-0.6-0.5-0.6-0.9
			v-39c0-0.5,0.5-1,1-1h25c0.5,0,1,0.4,1,1v39c0,0.4-0.2,0.7-0.6,0.9C813,751.8,812.8,751.9,812.7,751.9z M800.2,740.2
			c0.2,0,0.4,0.1,0.6,0.2l10.9,8.5v-36h-23v36l10.9-8.5C799.7,740.2,799.9,740.2,800.2,740.2z"/>
	</g>
</g>
<rect x="0.7" y="-0.2" class="st0" width="143" height="148"/>
<g>
	<g class="st4">
		<path class="st5" d="M43.3,107.2c-1.7-0.9-2.8-2.6-3.4-4.3c-0.5,1.8-1.4,3.5-3.2,4.5c-1.7-1-2.7-2.8-3.2-4.6
			c-0.6,1.8-1.7,3.4-3.4,4.4l-1.1-1.5c2.5-1.4,3.5-4.3,3.5-6.4v-0.9h-2.8v-1.7h6.4v1.7h-1.7v0.9c0,1.7,0.5,4.2,2.2,5.9
			c1.7-1.6,2.2-4.1,2.2-5.9v-0.9h-1.7v-1.7h6.3v1.7h-2.7v0.9c0,2.2,1,5.1,3.5,6.4L43.3,107.2z M32.8,109.4h14.8v7.8H32.8V109.4z
			 M34.8,115.5h10.8v-4.4H34.8V115.5z M47.7,95.1v13.1h-2V95.1H47.7z"/>
		<path class="st5" d="M64.4,99.5H51.2v-1.6h5.6v-2.7h2v2.7h5.6V99.5z M57.7,109c-3.2,0-5.3-1.6-5.3-4.2c0-2.5,2.2-4.1,5.3-4.1
			s5.4,1.6,5.4,4.1C63.1,107.4,60.9,109,57.7,109z M57.7,107.4c2,0,3.4-1,3.4-2.6c0-1.5-1.4-2.5-3.4-2.5s-3.4,1-3.4,2.5
			C54.3,106.4,55.7,107.4,57.7,107.4z M56.6,115.3h12.9v1.7H54.5v-6.4h2V115.3z M71.8,102.5v1.7h-3.3v7.7h-2V95.1h2v7.4H71.8z"/>
		<path class="st5" d="M93.3,106.4v1.6H73.1v-1.6h9.1v-2.8h-6.5V96h15.1v7.6h-6.5v2.8H93.3z M75.3,110.4h15.5v7.1h-2v-5.4H75.3
			V110.4z M77.7,102h11v-4.3h-11V102z"/>
		<path class="st5" d="M115.4,107.4v1.7H95.1v-1.7h9.1V105h-6.5v-5.5h13.1v-2.3H97.6v-1.6h15.2v5.4H99.7v2.3h13.6v1.6h-7v2.3H115.4z
			 M97.3,110.8h15.6v6.5h-2v-4.8H97.3V110.8z"/>
	</g>
	<g>
		<path class="st3" d="M85.5,71.2c-0.2,0-0.4-0.1-0.6-0.2L73,61.7L61.1,71c-0.3,0.2-0.7,0.3-1.1,0.1c-0.3-0.2-0.6-0.5-0.6-0.9V31.1
			c0-0.5,0.5-1,1-1h25c0.6,0,1,0.4,1,1v39c0,0.4-0.2,0.7-0.6,0.9C85.8,71.1,85.7,71.2,85.5,71.2z M73,59.5c0.2,0,0.4,0.1,0.6,0.2
			l10.9,8.5v-36h-23v36l10.9-8.5C72.6,59.5,72.8,59.5,73,59.5z"/>
	</g>
</g>
<g>
	<rect x="250.3" y="680.1" class="st0" width="143" height="148"/>
	<g>
		
			<text transform="matrix(1 0 0 1 278.7729 795.5614)" class="st5" style="font-family:'NotoSansKR-Regular-KSCpc-EUC-H'; font-size:25px; letter-spacing:-1;">트릿관리</text>
		<g>
			<g>
				<path class="st3" d="M311.8,755.7c-1.5,0-3.1-0.5-4.4-1.4c-2-1.4-3.1-3.6-3.2-6c-2.4-0.1-4.5-1.2-6-3.1c-2-2.7-1.9-6.3,0-9
					c1.7-2.3,4.6-3.5,7.4-3c2.2,0.4,4.4-0.3,5.9-1.8l10.8-10.8c1.5-1.5,2.2-3.7,1.8-5.9c-0.5-2.8,0.7-5.7,3-7.4c2.6-2,6.4-2,9,0
					c1.9,1.4,3.1,3.6,3.1,6c2.4,0.1,4.6,1.2,6,3.2c1.9,2.7,1.9,6.4-0.1,9c-1.7,2.3-4.5,3.4-7.3,2.9c-2.2-0.4-4.4,0.3-5.9,1.8
					l-10.8,10.8c-1.5,1.5-2.2,3.7-1.8,5.9c0.5,2.8-0.7,5.6-2.9,7.3l0,0C315.1,755.1,313.5,755.7,311.8,755.7z M305,746.6
					c0.2,0,0.4,0.1,0.6,0.2c0.2,0.2,0.3,0.4,0.2,0.6c-0.2,2.2,0.8,4.2,2.5,5.5c2.1,1.5,5.1,1.5,7.2-0.1l0,0c1.8-1.4,2.7-3.6,2.3-5.8
					c-0.4-2.7,0.4-5.4,2.3-7.3l10.8-10.8c1.9-1.8,4.6-2.7,7.3-2.3c2.2,0.4,4.4-0.5,5.8-2.3c1.6-2.1,1.6-5,0.1-7.2
					c-1.3-1.8-3.3-2.7-5.5-2.5c-0.2,0-0.5-0.1-0.6-0.2s-0.3-0.4-0.2-0.6c0.2-2.1-0.7-4.2-2.5-5.4c-2.1-1.5-5-1.5-7.1,0
					c-1.9,1.4-2.8,3.6-2.4,5.9c0.5,2.7-0.4,5.4-2.3,7.3l-10.8,10.8c-1.9,1.9-4.6,2.7-7.3,2.3c-2.2-0.4-4.5,0.5-5.9,2.4
					c-1.6,2.1-1.6,5,0,7.1C300.8,745.9,302.8,746.8,305,746.6C305,746.6,305,746.6,305,746.6z M316,753.5L316,753.5L316,753.5z"/>
			</g>
		</g>
	</g>
</g>
<rect x="404.3" y="517" class="st0" width="143" height="148"/>
<rect x="566.6" y="517" class="st0" width="143" height="148"/>
<rect x="727.2" y="517" class="st0" width="143" height="148"/>
<g>
	<g>
		<g>
			<g>
				<path class="st6" d="M457,594c-0.5,0-1.1-0.2-1.5-0.7c-0.6-0.6-0.8-1.5-0.5-2.3l13.6-33.6c0.2-0.4,0.6-0.6,1-0.4
					c0.4,0.2,0.6,0.6,0.4,1l-13.6,33.6c-0.1,0.2,0,0.5,0.2,0.6c0.1,0.1,0.4,0.3,0.6,0.2l33.4-13.7c0.4-0.2,0.8,0,1,0.4
					c0.2,0.4,0,0.8-0.4,1l-33.4,13.7C457.5,593.9,457.3,594,457,594z"/>
			</g>
			<g>
				<path class="st6" d="M490.3,580.4c-1,0-2.5-0.7-4.5-2c-2.5-1.7-5.5-4.2-8.4-7.1c-2.9-2.9-5.4-5.9-7.1-8.4c-2-3-2.4-4.8-1.5-5.7
					c0.9-0.9,2.7-0.4,5.7,1.5c2.5,1.7,5.5,4.2,8.4,7.1c2.9,2.9,5.4,5.9,7.1,8.4c2,3,2.4,4.8,1.5,5.7
					C491.2,580.3,490.8,580.4,490.3,580.4z M470.1,558.3c-0.1,0-0.1,0-0.2,0c-0.4,0.8,2.3,5.6,8.6,12c6.3,6.3,11,9,11.9,8.6
					c0.3-0.9-2.3-5.7-8.6-12C475.9,560.9,471.3,558.3,470.1,558.3z"/>
			</g>
		</g>
		<g>
			<path class="st6" d="M481.3,557.9c-0.1,0-0.1,0-0.2,0c-0.3-0.1-0.5-0.3-0.6-0.7l-0.5-4.6l-4.4-1.3c-0.3-0.1-0.5-0.4-0.5-0.7
				c0-0.3,0.2-0.6,0.5-0.7l4.2-1.9l-0.1-4.6c0-0.3,0.2-0.6,0.5-0.7c0.3-0.1,0.6,0,0.8,0.2l3.1,3.4l4.3-1.5c0.3-0.1,0.6,0,0.8,0.2
				c0.2,0.2,0.2,0.6,0.1,0.9l-2.3,4l2.8,3.7c0.2,0.3,0.2,0.6,0,0.9c-0.2,0.3-0.5,0.4-0.8,0.3l-4.5-1l-2.6,3.8
				C481.8,557.8,481.6,557.9,481.3,557.9z M478.1,550.4l2.9,0.9c0.3,0.1,0.5,0.3,0.5,0.7l0.3,3.1l1.8-2.5c0.2-0.3,0.5-0.4,0.8-0.3
				l3,0.7l-1.9-2.5c-0.2-0.2-0.2-0.6,0-0.8l1.5-2.7l-2.9,1c-0.3,0.1-0.6,0-0.8-0.2l-2-2.3l0.1,3.1c0,0.3-0.2,0.6-0.5,0.7
				L478.1,550.4z"/>
		</g>
		<g>
			<path class="st6" d="M498,556.3c-0.1,0-0.2,0-0.2,0c-0.3-0.1-0.5-0.4-0.5-0.7l-0.2-4.6l-4.3-1.6c-0.3-0.1-0.5-0.4-0.5-0.7
				s0.2-0.6,0.5-0.7l4.3-1.6l0.2-4.6c0-0.3,0.2-0.6,0.5-0.7c0.3-0.1,0.6,0,0.8,0.3l2.8,3.6l4.4-1.2c0.3-0.1,0.6,0,0.8,0.3
				c0.2,0.3,0.2,0.6,0,0.9l-2.6,3.8l2.5,3.9c0.2,0.3,0.2,0.6,0,0.9c-0.2,0.3-0.5,0.4-0.8,0.3l-4.4-1.3l-2.9,3.6
				C498.4,556.2,498.2,556.3,498,556.3z M495.2,548.6l2.9,1.1c0.3,0.1,0.5,0.4,0.5,0.7l0.1,3.1l1.9-2.4c0.2-0.2,0.5-0.3,0.8-0.3
				l3,0.8l-1.7-2.6c-0.2-0.3-0.2-0.6,0-0.8l1.7-2.6l-3,0.8c-0.3,0.1-0.6,0-0.8-0.3l-1.9-2.4l-0.1,3.1c0,0.3-0.2,0.6-0.5,0.7
				L495.2,548.6z"/>
		</g>
		<g>
			<path class="st6" d="M492.5,573c-0.1,0-0.2,0-0.4-0.1c-0.3-0.1-0.4-0.5-0.4-0.8l0.5-4.6l-4-2.3c-0.3-0.2-0.4-0.5-0.4-0.8
				c0-0.3,0.3-0.6,0.6-0.6l4.5-0.9l0.9-4.5c0.1-0.3,0.3-0.5,0.6-0.6c0.3,0,0.6,0.1,0.8,0.4l2.2,4l4.6-0.5c0.3,0,0.6,0.1,0.8,0.4
				c0.1,0.3,0.1,0.6-0.1,0.8l-3.1,3.4l1.9,4.2c0.1,0.3,0.1,0.6-0.2,0.8c-0.2,0.2-0.6,0.3-0.9,0.2l-4.2-1.9l-3.4,3.1
				C492.9,572.9,492.7,573,492.5,573z M490.8,565l2.7,1.5c0.3,0.2,0.4,0.5,0.4,0.8l-0.4,3.1l2.3-2.1c0.2-0.2,0.5-0.3,0.8-0.1
				l2.8,1.3l-1.3-2.8c-0.1-0.3-0.1-0.6,0.1-0.8l2.1-2.3l-3,0.3c-0.3,0-0.6-0.1-0.7-0.4l-1.5-2.7l-0.6,3c-0.1,0.3-0.3,0.5-0.6,0.6
				L490.8,565z"/>
		</g>
	</g>
	
		<text transform="matrix(1 0 0 1 432.7664 632.5001)" class="st6" style="font-family:'NotoSansKR-Regular-KSCpc-EUC-H'; font-size:25px; letter-spacing:-1;">당첨내역</text>
</g>
<g>
	
		<text transform="matrix(1 0 0 1 595.1349 632.5001)" class="st6" style="font-family:'NotoSansKR-Regular-KSCpc-EUC-H'; font-size:25px; letter-spacing:-1;">이용문의</text>
	<g>
		<g>
			<path class="st6" d="M635.7,591.9c-2,0-3.7-0.6-4.9-1.8c-1.3-1.3-2-2.8-2-4.7c0-1,0.2-2.3,0.7-3.8l3.6-12.7c0,0,0-0.1,0-0.1
				l1.5-5.4c-0.2,0.3-0.4,0.6-0.6,1c0,0,0,0,0,0.1c0,0-0.1,0.1-0.1,0.2c0,0,0,0,0,0c0,0-0.1,0.1-0.1,0.2l0,0c0,0,0,0,0,0
				c-0.1,0.1-0.1,0.2-0.2,0.2l0,0c0,0,0,0,0,0l0,0c0,0,0,0,0,0c-0.2,0.2-0.5,0.4-0.7,0.6l0,0c0,0,0,0,0,0c-0.2,0.1-0.3,0.2-0.5,0.2
				c0,0-0.1,0-0.1,0c-0.1,0-0.3,0.1-0.5,0.1c-0.1,0-0.2,0-0.3,0c0,0-0.1,0-0.1,0c-0.1,0-0.2,0-0.3,0c-0.1,0-0.1,0-0.2,0
				c-0.1,0-0.2-0.1-0.3-0.1c0,0-0.1,0-0.1-0.1c0,0,0,0,0,0c-0.1-0.1-0.3-0.2-0.4-0.2c-0.1,0-0.1-0.1-0.2-0.1c-1.1-1-1.1-2.5-0.7-3.5
				c0,0,0-0.1,0.1-0.1c3.7-6.6,8-10,12.5-10c2,0,3.7,0.6,4.9,1.8c1.3,1.3,2,2.8,2,4.7c0,1-0.2,2.3-0.7,3.8l-2,7c0,0,0,0.1,0,0.1
				l-1.6,5.5c0,0,0,0.1,0,0.1l-1.5,5.4c0.2-0.3,0.4-0.6,0.6-1l0,0c0,0,0,0,0,0c0,0,0,0,0,0c0,0,0.1-0.1,0.1-0.2l0,0c0,0,0,0,0,0
				c0-0.1,0.1-0.1,0.1-0.2c0,0,0,0,0,0c0.1-0.1,0.1-0.2,0.2-0.3l0,0c0,0,0,0,0,0l0,0c0.2-0.2,0.5-0.4,0.7-0.6c0,0,0,0,0,0l0,0
				c0,0,0,0,0,0c0.2-0.1,0.4-0.2,0.5-0.2c0,0,0,0,0,0c0.2,0,0.4-0.1,0.5-0.1c0.1,0,0.2,0,0.3,0c0,0,0.1,0,0.1,0c0.1,0,0.2,0,0.3,0h0
				c0.1,0,0.1,0,0.2,0c0.1,0,0.2,0,0.3,0.1c0.1,0,0.1,0,0.2,0.1c0.1,0.1,0.3,0.1,0.4,0.2c0.1,0,0.1,0.1,0.2,0.1
				c1.1,1,1.1,2.5,0.7,3.5c0,0,0,0.1-0.1,0.1C644.5,588.5,640.3,591.9,635.7,591.9z M636.3,559.5c0.1,0,0.3,0,0.4,0.1
				c0.3,0.2,0.4,0.5,0.4,0.9c-0.1,0.4-0.2,0.9-0.4,1.5c0,0,0,0,0,0l-2,7.1c0,0,0,0.1,0,0.1v0l-3.6,12.7v0c-0.4,1.3-0.6,2.5-0.6,3.3
				c0,1.4,0.5,2.6,1.5,3.5c1,0.9,2.2,1.4,3.8,1.4c4,0,7.7-3.1,11.1-9.1l0,0c0,0,0.4-0.9-0.3-1.6l0.5-0.7l-0.5,0.7
				c0,0-0.1-0.1-0.2-0.1c0,0,0,0,0,0c0,0,0,0-0.1,0c0,0-0.1,0-0.1,0c0,0,0,0-0.1,0c0,0,0,0-0.1,0c0,0,0,0,0,0h0c0,0,0,0,0,0
				c0,0,0,0,0,0c-0.1,0-0.1,0-0.2,0h0h0c-0.1,0-0.2,0-0.2,0.1c0,0,0,0,0,0l0,0c-0.1,0.1-0.2,0.2-0.4,0.3l0,0l0,0l0,0
				c0,0-0.1,0.1-0.1,0.2l0,0l0,0c0,0-0.1,0.1-0.1,0.1c0,0,0,0,0,0c0,0,0,0.1-0.1,0.1c0,0,0,0,0,0l0,0l0,0l0,0c0,0,0,0,0,0
				c-1.3,2.1-2.2,3-3.1,3.7c-0.3,0.2-0.6,0.3-0.9,0.1s-0.4-0.5-0.4-0.9c0.1-0.4,0.2-0.9,0.4-1.5c0,0,0,0,0,0l2-7.1c0,0,0-0.1,0-0.1
				c0,0,0,0,0,0l1.6-5.5c0,0,0,0,0,0s0,0,0,0s0,0,0,0l2-7v0c0.4-1.3,0.6-2.5,0.6-3.3c0-1.4-0.5-2.6-1.5-3.5c-1-0.9-2.2-1.4-3.8-1.4
				c-4,0-7.7,3.1-11.1,9.1c0,0-0.4,0.9,0.3,1.6l0,0c0,0,0.1,0.1,0.2,0.1c0,0,0,0,0,0c0,0,0,0,0,0c0,0,0.1,0,0.1,0h0c0,0,0,0,0.1,0
				c0,0,0.1,0,0.1,0c0,0,0,0,0,0c0,0,0,0,0,0s0,0,0,0c0,0,0,0,0,0c0.1,0,0.2,0,0.2,0c0,0,0,0,0,0s0,0,0,0c0.1,0,0.1,0,0.2-0.1l0,0
				c0.1-0.1,0.2-0.2,0.4-0.3l0,0l0,0c0,0,0.1-0.1,0.1-0.1l0,0c0,0,0,0,0,0c0,0,0.1-0.1,0.1-0.1c0,0,0,0,0,0l0,0c0,0,0-0.1,0.1-0.1
				c0,0,0,0,0,0v0c0,0,0,0,0,0c1.3-2.1,2.2-3,3.1-3.7C635.9,559.6,636.1,559.5,636.3,559.5z M644.9,580L644.9,580L644.9,580z"/>
		</g>
		<g>
			<path class="st6" d="M644.7,551.4c-3.9,0-7.1-3.3-7.1-7.2s3.2-7.2,7.1-7.2c3.9,0,7.1,3.3,7.1,7.2
				C651.8,548.1,648.6,551.4,644.7,551.4z M644.7,538.5c-3,0-5.5,2.5-5.5,5.6c0,3.1,2.5,5.6,5.5,5.6s5.5-2.5,5.5-5.6
				C650.2,541.1,647.8,538.5,644.7,538.5z"/>
		</g>
	</g>
</g>
<g>
	
		<text transform="matrix(1 0 0 1 755.5743 632.5001)" class="st6" style="font-family:'NotoSansKR-Regular-KSCpc-EUC-H'; font-size:25px; letter-spacing:-1;">찜한목록</text>
	<g>
		<path class="st6" d="M812.7,588c-0.2,0-0.4-0.1-0.6-0.2l-11.9-9.3l-11.9,9.3c-0.3,0.2-0.7,0.3-1.1,0.1c-0.3-0.2-0.6-0.5-0.6-0.9
			v-39c0-0.5,0.5-1,1-1h25c0.5,0,1,0.4,1,1v39c0,0.4-0.2,0.7-0.6,0.9C813,588,812.8,588,812.7,588z M800.2,576.3
			c0.2,0,0.4,0.1,0.6,0.2l10.9,8.5v-36h-23v36l10.9-8.5C799.7,576.4,799.9,576.3,800.2,576.3z"/>
	</g>
</g>
<g>
	<rect x="250.3" y="517" class="st0" width="143" height="148"/>
	<g>
		
			<text transform="matrix(1 0 0 1 278.7729 632.5001)" class="st6" style="font-family:'NotoSansKR-Regular-KSCpc-EUC-H'; font-size:25px; letter-spacing:-1;">트릿관리</text>
		<g>
			<g>
				<path class="st6" d="M311.8,592.6c-1.5,0-3.1-0.5-4.4-1.4c-2-1.4-3.1-3.6-3.2-6c-2.4-0.1-4.5-1.2-6-3.1c-2-2.7-1.9-6.3,0-9
					c1.7-2.3,4.6-3.5,7.4-3c2.2,0.4,4.4-0.3,5.9-1.8l10.8-10.8c1.5-1.5,2.2-3.7,1.8-5.9c-0.5-2.8,0.7-5.7,3-7.4c2.6-2,6.4-2,9,0
					c1.9,1.4,3.1,3.6,3.1,6c2.4,0.1,4.6,1.2,6,3.2c1.9,2.7,1.9,6.4-0.1,9c-1.7,2.3-4.5,3.4-7.3,2.9c-2.2-0.4-4.4,0.3-5.9,1.8
					l-10.8,10.8c-1.5,1.5-2.2,3.7-1.8,5.9c0.5,2.8-0.7,5.6-2.9,7.3l0,0C315.1,592.1,313.5,592.6,311.8,592.6z M305,583.6
					c0.2,0,0.4,0.1,0.6,0.2c0.2,0.2,0.3,0.4,0.2,0.6c-0.2,2.2,0.8,4.2,2.5,5.5c2.1,1.5,5.1,1.5,7.2-0.1l0,0c1.8-1.4,2.7-3.6,2.3-5.8
					c-0.4-2.7,0.4-5.4,2.3-7.3l10.8-10.8c1.9-1.8,4.6-2.7,7.3-2.3c2.2,0.4,4.4-0.5,5.8-2.3c1.6-2.1,1.6-5,0.1-7.2
					c-1.3-1.8-3.3-2.7-5.5-2.5c-0.2,0-0.5-0.1-0.6-0.2s-0.3-0.4-0.2-0.6c0.2-2.1-0.7-4.2-2.5-5.4c-2.1-1.5-5-1.5-7.1,0
					c-1.9,1.4-2.8,3.6-2.4,5.9c0.5,2.7-0.4,5.4-2.3,7.3l-10.8,10.8c-1.9,1.9-4.6,2.7-7.3,2.3c-2.2-0.4-4.5,0.5-5.9,2.4
					c-1.6,2.1-1.6,5,0,7.1C300.8,582.8,302.8,583.7,305,583.6C305,583.6,305,583.6,305,583.6z M316,590.4L316,590.4L316,590.4z"/>
			</g>
		</g>
	</g>
</g>
</svg>
