<?xml version="1.0" encoding="utf-8"?>
<!-- Generator: Adobe Illustrator 25.0.1, SVG Export Plug-In . SVG Version: 6.00 Build 0)  -->
<svg version="1.1" id="Layer_1" xmlns="http://www.w3.org/2000/svg" xmlns:xlink="http://www.w3.org/1999/xlink" x="0px" y="0px"
	 viewBox="0 0 68 68" style="enable-background:new 0 0 68 68;" xml:space="preserve">
<style type="text/css">
	.st0{fill:#EF998C;}
	.st1{fill:#FFFFFF;}
	.st2{fill:#BDBDBD;}
</style>
<g>
	<circle class="st0" cx="34" cy="-118.67" r="34"/>
	<g>
		<path class="st1" d="M31.13-109c-5.37-1.02-8.94-5.78-8.94-12.95c0-8.19,4.59-12.95,11.25-12.95c6.66,0,11.25,4.79,11.25,12.95
			c0,6.87-3.26,11.49-8.26,12.78c1.16,1.9,3.43,2.69,5.71,2.69c1.09,0,2.04-0.17,2.75-0.41l0.92,3.71
			c-0.88,0.41-2.41,0.75-4.25,0.75C36.43-102.44,32.86-105.19,31.13-109z M39.56-121.95c0-5.41-2.38-8.64-6.12-8.64
			c-3.74,0-6.12,3.23-6.12,8.64c0,5.64,2.38,9.04,6.12,9.04C37.18-112.91,39.56-116.31,39.56-121.95z"/>
	</g>
</g>
<g>
	<path class="st1" d="M-121.6-140.43h5.92l8.09,25.19h-5.27l-1.77-6.46h-8.16l-1.77,6.46h-5.1L-121.6-140.43z M-121.7-125.61h5.98
		l-0.75-2.75c-0.78-2.62-1.46-5.51-2.18-8.23h-0.17c-0.65,2.75-1.39,5.61-2.14,8.23L-121.7-125.61z"/>
</g>
<g>
	<circle class="st2" cx="34" cy="34" r="34"/>
	<g>
		<path class="st1" d="M31.03,21.4h5.92l8.09,25.19h-5.27l-1.77-6.46h-8.16l-1.77,6.46h-5.1L31.03,21.4z M30.92,36.23h5.98
			l-0.75-2.75c-0.78-2.62-1.46-5.51-2.18-8.23h-0.17c-0.65,2.75-1.39,5.61-2.14,8.23L30.92,36.23z"/>
	</g>
</g>
</svg>
