<svg id="레이어_1" data-name="레이어 1" xmlns="http://www.w3.org/2000/svg" viewBox="0 0 36 50"><defs><style>.cls-1{fill:#afafaf;}</style></defs><path class="cls-1" d="M26.07,34,15.61,25l10.46-9a2.47,2.47,0,0,0,.67-.9,2.34,2.34,0,0,0,.18-1A3.23,3.23,0,0,0,26,11.92,2.8,2.8,0,0,0,24.05,11H24a2.86,2.86,0,0,0-1.95.88l-11.92,11A3.29,3.29,0,0,0,9.28,24,3.25,3.25,0,0,0,9.08,25a2.82,2.82,0,0,0,.19,1,3.35,3.35,0,0,0,.84,1.12L22,38.12a2.78,2.78,0,0,0,2,.88A2.81,2.81,0,0,0,26,38.07,3.23,3.23,0,0,0,26.92,36a2.34,2.34,0,0,0-.18-1A2.47,2.47,0,0,0,26.07,34Z"/></svg>