<svg id="레이어_1" data-name="레이어 1" xmlns="http://www.w3.org/2000/svg" viewBox="0 0 59 59"><defs><style>.cls-1{fill:#e15b55;}.cls-2{fill:#fff;}</style></defs><circle class="cls-1" cx="29.5" cy="29.5" r="29.5"/><path class="cls-2" d="M48.17,18.78a1.18,1.18,0,0,0-1.18,0l-6,3.17V37.09l6,3.17a1.25,1.25,0,0,0,.56.14,1.17,1.17,0,0,0,.62-.18A1.42,1.42,0,0,0,48.83,39V20a1.42,1.42,0,0,0-.66-1.22Z"/><path class="cls-2" d="M32.52,29.5a8.15,8.15,0,1,1-8.14-8.14,8.15,8.15,0,0,1,8.14,8.14Zm1.71-14.2H14.52a4.35,4.35,0,0,0-4.35,4.35v19.7a4.35,4.35,0,0,0,4.35,4.35H34.23a4.35,4.35,0,0,0,4.35-4.35V19.65a4.35,4.35,0,0,0-4.35-4.35Z"/><path class="cls-2" d="M24.38,24.22a5.28,5.28,0,1,0,5.27,5.28,5.29,5.29,0,0,0-5.27-5.28Z"/></svg>