<svg id="레이어_1" data-name="레이어 1" xmlns="http://www.w3.org/2000/svg" viewBox="0 0 29 29"><defs><style>.cls-1{fill:#bdbdbd;}</style></defs><path class="cls-1" d="M27.28,14.63a12.77,12.77,0,1,0-25.53,0A12.86,12.86,0,0,0,5.5,23.74L4.39,28.66c-.07.31.1.43.37.26l4.29-2.66a12.73,12.73,0,0,0,10.92,0l4.29,2.66c.27.17.43,0,.36-.26l-1.1-4.91A12.9,12.9,0,0,0,27.28,14.63Zm-22.64,0a9.92,9.92,0,0,1,9.87-10h0a9.75,9.75,0,0,1,7,2.91,9.91,9.91,0,1,1-16.85,7Z"/><path class="cls-1" d="M7.74,1.71A4.26,4.26,0,0,0,4.32,0,4.36,4.36,0,0,0,1.7,7.81,14.62,14.62,0,0,1,7.74,1.71Z"/><path class="cls-1" d="M24.68,0a4.3,4.3,0,0,0-3.4,1.68,14.31,14.31,0,0,1,3.48,2.6,14.52,14.52,0,0,1,2.58,3.5A4.36,4.36,0,0,0,24.68,0Z"/><path class="cls-1" d="M20,14.61H14.52V9a.59.59,0,0,0-.58-.59H12.79a.59.59,0,0,0-.58.59v7.33a.58.58,0,0,0,.58.58H20a.58.58,0,0,0,.58-.58V15.19A.58.58,0,0,0,20,14.61Z"/></svg>