<svg xmlns="http://www.w3.org/2000/svg" viewBox="0 0 156 150"><defs><style>.cls-1{fill:#ef9a8d;}</style></defs><g id="_2" data-name="2"><path class="cls-1" d="M49.84,23.5,87,60.62a34.84,34.84,0,0,0,2.38-10.88,29.62,29.62,0,0,0-8.49-23L62.74,8.64C50.48-3.62,28.54-1.64,14.93,12S-.67,47.53,11.58,59.79L29.72,78c8.77,8.76,22,10.66,33.84,6.06L26.46,46.88C21.6,42,23.38,32.35,29.34,26.38S45,18.64,49.84,23.5Zm94.5,66.73L126.11,72a29.78,29.78,0,0,0-23-8.55,35.06,35.06,0,0,0-10.91,2.36L129.32,103c4.86,4.86,3.07,14.53-2.89,20.46s-15.63,7.77-20.49,2.9L68.8,89.25c-4.57,11.84-2.65,25.11,6.16,33.92l18.23,18.24c12.31,12.3,34.29,10.35,47.91-3.26S156.67,102.55,144.34,90.23Z"/><path class="cls-1" d="M107.08,90.71a7.57,7.57,0,0,1,2.07,6,10.32,10.32,0,0,1-3.08,6.4c-3.69,3.7-9.26,4.15-12.4,1L50.92,61.37c-3.15-3.15-2.7-8.71,1-12.4s9.27-4.16,12.43-1Z"/></g></svg>