<svg id="레이어_1" data-name="레이어 1" xmlns="http://www.w3.org/2000/svg" viewBox="0 0 236 32"><defs><style>.cls-1{fill:#ef998c;}.cls-2{fill:#4e4e4e;}.cls-3{fill:#d4d4d4;}</style></defs><path class="cls-1" d="M0,1.93H8.84a13.91,13.91,0,0,1,6.5,1.44,10.21,10.21,0,0,1,4.25,4,11.76,11.76,0,0,1,1.49,5.95,11.73,11.73,0,0,1-1.49,6,10.07,10.07,0,0,1-4.25,4,14,14,0,0,1-6.5,1.43H0ZM8.93,20.24a7.18,7.18,0,0,0,5.18-1.8A6.74,6.74,0,0,0,16,13.35a6.76,6.76,0,0,0-1.87-5.09A7.1,7.1,0,0,0,8.93,6.44H5.09v13.8Z"/><path class="cls-1" d="M26.42,24A7.54,7.54,0,0,1,23.6,21a9.44,9.44,0,0,1-1-4.42,9.45,9.45,0,0,1,1-4.43,7.51,7.51,0,0,1,2.82-3.06A7.83,7.83,0,0,1,30.57,8,5.49,5.49,0,0,1,35.27,10V8.34h5V24.75h-5V23.07a5.49,5.49,0,0,1-4.7,2.07A7.92,7.92,0,0,1,26.42,24Zm7.84-4.37a4.48,4.48,0,0,0,1.09-3.12,4.52,4.52,0,0,0-1.09-3.13,3.72,3.72,0,0,0-2.91-1.21,3.57,3.57,0,0,0-2.83,1.21,4.6,4.6,0,0,0-1.06,3.13,4.56,4.56,0,0,0,1.06,3.12,3.58,3.58,0,0,0,2.83,1.22A3.73,3.73,0,0,0,34.26,19.67Z"/><path class="cls-1" d="M48.11,1.29A2.93,2.93,0,0,1,49,3.47a3.05,3.05,0,1,1-6.1,0,3.08,3.08,0,0,1,5.23-2.18Zm.31,23.52h-5V8.34h5Z"/><path class="cls-1" d="M56.6,24.75h-5V1.23h5Z"/><path class="cls-1" d="M76,8.34,66.53,31.58h-4.9l3-7.28-6.46-16h5.51L67.2,18.48,70.79,8.34Z"/><path class="cls-2" d="M111.33,19.69a37.45,37.45,0,0,0,8.17-.75l.26,2.55a45.65,45.65,0,0,1-9.64.75h-1.79V4.63h10V7.15h-7ZM121.79,2h2.85V27.25h-2.85V14.11h-5.23V11.59h5.23Zm8.32-.6V28.51H127.2V1.42Z"/><path class="cls-2" d="M140.16,14.53c-4,0-6.94-2.52-6.94-6.09s2.94-6.12,6.94-6.12,7,2.55,7,6.12S144.18,14.53,140.16,14.53Zm0-2.52c2.32,0,4.05-1.41,4.05-3.57s-1.73-3.57-4.05-3.57-4,1.41-4,3.57S137.87,12,140.16,12Zm15.22,13.77v2.43H137.25V21.1h14.34V18.85h-14.4V16.42h17.4v7H140.22v2.4Zm-.79-10.59h-3V1.42h3Z"/><path class="cls-2" d="M162.55,19.6a74.39,74.39,0,0,0,12.08-.93l.33,2.52a71.72,71.72,0,0,1-13.2,1H159.5V11.41h9.26v-5h-9.32V3.85h12.37V13.9h-9.26ZM179.9,1.39V28.6h-3.06V1.39Z"/><path class="cls-2" d="M202,4V21.91H189.53V4Zm-9.5,2.46v13H199v-13Zm17.46-5V28.6H206.9V1.42Z"/><path class="cls-2" d="M227.36,17.89a11.34,11.34,0,0,1-6-6.33A11.32,11.32,0,0,1,215,18.25l-1.64-2.43a10,10,0,0,0,6.44-9.51V3h3.08V6.31A9.76,9.76,0,0,0,229,15.46ZM236,25.51V28H218.1V19.66h3.06v5.85Zm-3.64-12.36h-4.94V10.66h4.94V7.75h-4.94V5.23h4.94V1.45h3V21.61h-3Z"/><path class="cls-3" d="M92.47,4.4v23h-1.4V4.4Z"/></svg>