<svg id="레이어_1" data-name="레이어 1" xmlns="http://www.w3.org/2000/svg" viewBox="0 0 328 51"><defs><style>.cls-1{fill:#fafafa;}.cls-2{fill:#dcdcdc;}.cls-3{fill:#ef998c;}.cls-4{fill:#4e4e4e;}</style></defs><rect class="cls-1" width="328" height="51" rx="24"/><rect class="cls-1" x="117.5" y="13" width="187" height="24"/><rect class="cls-2" x="229.5" y="19" width="32" height="12"/><rect class="cls-2" x="195" y="19" width="32.5" height="12"/><rect class="cls-2" x="160.5" y="19" width="32.5" height="12"/><path class="cls-3" d="M133.5,19c-3.85,0-6,2.15-6,6s2.15,6,6,6h25V19Z"/><path class="cls-2" d="M288.5,19h-25V31h25c3.85,0,6-2.15,6-6S292.35,19,288.5,19Z"/><rect class="cls-1" x="158.5" y="19" width="2" height="12"/><rect class="cls-1" x="193" y="19" width="2" height="12"/><rect class="cls-1" x="227.5" y="19" width="2" height="12"/><rect class="cls-1" x="261.5" y="19" width="2" height="12"/><path class="cls-4" d="M51.88,25.7a51.86,51.86,0,0,1-10.54,1H39.51V15.63h2.58v8.89a50.82,50.82,0,0,0,9.47-1ZM44.5,34.57H57v2.15H41.89V29.11H44.5ZM59.41,20.73v2.21H56.2V30.7H53.61V14.05H56.2v6.68Z"/><path class="cls-4" d="M72.52,23.86c0,5-2.46,8.17-5.85,8.17s-5.83-3.15-5.83-8.17,2.46-8.15,5.83-8.15S72.52,18.89,72.52,23.86Zm-9.19,0c0,3.64,1.38,5.81,3.34,5.81S70,27.5,70,23.86s-1.38-5.77-3.36-5.77S63.33,20.27,63.33,23.86ZM78.74,14V37.21H76.13V14Z"/><path class="cls-4" d="M102.21,32.21v2.18H81.68V32.21h8.93V26.75H84.19v-11H99.7v2.13H86.77v6.74H99.9v2.12H93.2v5.46Z"/></svg>