<svg id="레이어_1" data-name="레이어 1" xmlns="http://www.w3.org/2000/svg" viewBox="0 0 243 32"><defs><style>.cls-1{fill:#e5b36b;}.cls-2{fill:#4e4e4e;}.cls-3{fill:#d4d4d4;}</style></defs><path class="cls-1" d="M0,2.92H17V7.34H5.09V12H16v4.43H5.09v4.9H17.21v4.42H0Z"/><path class="cls-1" d="M35.32,9.33,29,25.74H23.85L17.55,9.33H23L26.62,20l3.67-10.7Z"/><path class="cls-1" d="M39.42,25a7.91,7.91,0,0,1-3-3.07,8.91,8.91,0,0,1-1.09-4.42,8.92,8.92,0,0,1,1.09-4.43,7.82,7.82,0,0,1,3-3.06,9.32,9.32,0,0,1,8.82,0,7.78,7.78,0,0,1,3,3.06,8.92,8.92,0,0,1,1.09,4.43,11.9,11.9,0,0,1-.11,1.59h-12a3.7,3.7,0,0,0,1.23,2.21,3.55,3.55,0,0,0,2.35.79,4.86,4.86,0,0,0,1.89-.35,2.24,2.24,0,0,0,1.14-.94h5A6.32,6.32,0,0,1,50.3,23.6a8.11,8.11,0,0,1-2.83,1.86,9.66,9.66,0,0,1-3.64.67A8.85,8.85,0,0,1,39.42,25Zm8.08-9.12a3.79,3.79,0,0,0-1.26-2.25,3.67,3.67,0,0,0-2.41-.77,3.57,3.57,0,0,0-2.38.77,3.86,3.86,0,0,0-1.23,2.25Z"/><path class="cls-1" d="M54.75,9.33h5V11a5.36,5.36,0,0,1,4.59-2.07,6.33,6.33,0,0,1,3.36.88,5.82,5.82,0,0,1,2.25,2.54,8.72,8.72,0,0,1,.8,3.89v9.49h-5V17.09A4.77,4.77,0,0,0,65,14.22a2.5,2.5,0,0,0-2.14-1,2.75,2.75,0,0,0-2.3,1.1,4.77,4.77,0,0,0-.84,3v8.43h-5Z"/><path class="cls-1" d="M83.33,13.62H80.08V25.74h-5V13.62H71.85V9.33H75.1V4.46h5V9.33h3.25Z"/><path class="cls-2" d="M129,14c0,5.88-2.89,9.57-6.85,9.57s-6.82-3.69-6.82-9.57,2.88-9.54,6.82-9.54S129,8.14,129,14Zm-10.76,0c0,4.26,1.61,6.81,3.91,6.81s3.94-2.55,3.94-6.81-1.62-6.75-3.94-6.75S118.24,9.76,118.24,14Zm18-11.55V29.59h-3.06V2.41Z"/><path class="cls-2" d="M151.15,18H140.78V4.57h2.85V9h4.7V4.57h2.82v5.55h3V3H157v19.2h-2.85V12.64h-3Zm-2.82-6.69h-4.7v4.23h4.7ZM162.91,26.5V29H144.63V20.26h3.06V26.5ZM162.18,23H159.3V2.44h2.88Z"/><path class="cls-2" d="M189.07,23.68V26.2H165V23.68Zm-2.7-4.44H168V4.63h18.2V7.12H171.05V10.6h14.52V13H171.05v3.72h15.32Z"/><path class="cls-2" d="M209,5V22.9H196.53V5ZM199.5,7.45v13H206v-13Zm17.46-5V29.59H213.9V2.41Z"/><path class="cls-2" d="M234.36,18.88a11.34,11.34,0,0,1-6-6.33A11.32,11.32,0,0,1,222,19.24l-1.64-2.43a10,10,0,0,0,6.43-9.51V3.94h3.09V7.3A9.76,9.76,0,0,0,236,16.45ZM243,26.5V29H225.1V20.65h3.06V26.5Zm-3.64-12.36h-4.94V11.65h4.94V8.74h-4.94V6.22h4.94V2.44h3V22.6h-3Z"/><path class="cls-3" d="M100.47,4.39v23h-1.4v-23Z"/></svg>