<?xml version="1.0" encoding="utf-8"?>
<!-- Generator: Adobe Illustrator 25.0.1, SVG Export Plug-In . SVG Version: 6.00 Build 0)  -->
<svg version="1.1" id="Layer_1" xmlns="http://www.w3.org/2000/svg" xmlns:xlink="http://www.w3.org/1999/xlink" x="0px" y="0px"
	 viewBox="0 0 33 33" style="enable-background:new 0 0 33 33;" xml:space="preserve">
<style type="text/css">
	.st0{fill:#BDBDBD;}
	.st1{fill:#FFFFFF;stroke:#FFFFFF;stroke-width:0.3;stroke-miterlimit:10;}
	.st2{fill:#FFFFFF;}
</style>
<circle class="st0" cx="127" cy="75.5" r="16.2"/>
<g>
	<path class="st1" d="M125.6,73.9L125.6,73.9c0.2,0.1,0.2,0.2,0.2,0.3c0,0.1-0.1,0.3-0.1,0.5l0,0L125,77l0,0l0,0l-1.2,4.1l0,0
		c-0.1,0.4-0.2,0.8-0.2,1.1c0,0.5,0.2,0.9,0.5,1.2c0.3,0.3,0.7,0.5,1.3,0.5c1.3,0,2.6-1,3.7-3l0,0c0,0,0.1-0.3-0.1-0.5l0.2-0.2
		l-0.2,0.2c0,0,0,0-0.1,0l0,0l0,0l0,0l0,0l0,0l0,0l0,0l0,0l0,0c0,0,0,0-0.1,0l0,0l0,0c0,0,0,0-0.1,0l0,0l0,0l-0.1,0.1l0,0l0,0l0,0
		l0,0l0,0l0,0l0,0l0,0l0,0l0,0l0,0l0,0l0,0l0,0c-0.4,0.7-0.7,1-1,1.2c-0.1,0.1-0.2,0.1-0.3,0c-0.1-0.1-0.1-0.2-0.1-0.3
		c0-0.1,0.1-0.3,0.1-0.5l0,0l0.7-2.3l0,0l0,0l0.5-1.8l0,0l0,0l0,0l0.7-2.3l0,0c0.1-0.4,0.2-0.8,0.2-1.1c0-0.5-0.2-0.9-0.5-1.2
		c-0.3-0.3-0.7-0.5-1.3-0.5c-1.3,0-2.6,1-3.7,3c0,0-0.1,0.3,0.1,0.5l0,0c0,0,0,0,0.1,0l0,0l0,0l0,0l0,0l0,0l0,0l0,0l0,0l0,0l0,0h0.1
		l0,0l0,0c0,0,0,0,0.1,0l0,0l0.1-0.1l0,0l0,0l0,0l0,0l0,0l0,0l0,0l0,0l0,0l0,0l0,0l0,0c0.4-0.7,0.7-1,1-1.2
		C125.5,73.9,125.6,73.9,125.6,73.9z"/>
	<path class="st1" d="M128.4,67c-1,0-1.8,0.8-1.8,1.8s0.8,1.8,1.8,1.8s1.8-0.8,1.8-1.8C130.3,67.9,129.4,67,128.4,67z"/>
</g>
<circle class="st0" cx="167.2" cy="74.9" r="16.2"/>
<text transform="matrix(1 0 0 1 159.3983 81.9041)" class="st2" style="font-family:'MS-PGothic'; font-size:22.0563px;">Q</text>
<text transform="matrix(1 0 0 1 159.3983 81.9041)" style="fill:none;stroke:#FFFFFF;stroke-width:0.9;stroke-linecap:round;stroke-linejoin:round;stroke-miterlimit:10; font-family:'MS-PGothic'; font-size:22.0563px;">Q</text>
<circle class="st0" cx="16.5" cy="16.5" r="16.2"/>
<path class="st2" d="M21.7,21.4c1.1-1.5,1.7-3.4,1.7-5.5c0-2.5-0.7-4.5-2.2-6c-1.3-1.3-2.9-1.9-4.7-1.9S13,8.6,11.7,9.9
	c-1.5,1.5-2.2,3.5-2.2,6s0.7,4.5,2.2,6c1.3,1.3,2.9,1.9,4.7,1.9c1.1,0,2.1-0.3,3.2-0.8l1.2,1.5c0.1,0.1,0.2,0.2,0.3,0.2c0,0,0,0,0,0
	c0.1,0,0.2,0,0.3-0.1l1.3-1.2c0.2-0.2,0.2-0.4,0-0.6L21.7,21.4z M16.3,18.5c-0.2,0.2-0.2,0.4-0.1,0.6l1.6,1.9
	c-0.4,0.2-0.8,0.3-1.4,0.3c-1,0-1.8-0.4-2.6-1.2c-0.9-0.9-1.3-2.3-1.3-4.2c0-1.9,0.4-3.4,1.3-4.2c0.8-0.8,1.6-1.2,2.6-1.2
	c1,0,1.8,0.4,2.6,1.2c0.9,0.9,1.3,2.3,1.3,4.2c0,1.4-0.2,2.5-0.6,3.3l-1.5-1.8c-0.1-0.1-0.2-0.1-0.3-0.2c-0.1,0-0.2,0-0.3,0.1
	L16.3,18.5z"/>
<g>
	<circle class="st0" cx="90.2" cy="75.5" r="16.2"/>
	<path class="st2" d="M96.2,78.5c-0.8-0.8-0.8-2-0.8-3.2c0-0.2,0-0.3,0-0.5c0-0.1,0-0.1,0-0.2c0-0.6,0-1.7-0.4-2.9
		c-0.5-1.4-1.5-2.3-2.9-2.8H92v-0.1c0-0.3-0.2-0.8-0.5-1.2c-0.3-0.3-0.8-0.5-1.3-0.5s-1,0.2-1.3,0.5c-0.4,0.4-0.5,0.8-0.5,1.2v0.1
		h-0.1c-1.4,0.5-2.4,1.5-2.9,2.8C85,72.8,85,74,85,74.6c0,0.1,0,0.2,0,0.2c0,0.2,0,0.3,0,0.5c0,1.2,0,2.4-0.8,3.2
		c-0.8,0.9-1,1.8-1.1,2.3c0,0.1,0,0.2,0.1,0.3c0.1,0.1,0.2,0.1,0.3,0.1h3.7v0.1c0.3,1.5,1.6,2.6,3.1,2.6s2.8-1.1,3.1-2.6v-0.1H97
		c0.1,0,0.2,0,0.3-0.1c0.1-0.1,0.1-0.2,0.1-0.3C97.2,80.3,97,79.4,96.2,78.5z"/>
</g>
</svg>
