<svg xmlns="http://www.w3.org/2000/svg" viewBox="0 0 80 77"><defs><style>.cls-1{fill:#391b1b;}.cls-2{fill:#fae300;}</style></defs><g id="Blue"><path class="cls-1" d="M40.91,13.63C24.38,13.63,11,24.22,11,37.3c0,8.51,5.68,16,14.21,20.13-.63,2.34-2.27,8.48-2.6,9.79-.4,1.62.6,1.6,1.25,1.16S32,62.81,35.36,60.56a38.76,38.76,0,0,0,5.55.41c16.54,0,29.94-10.6,29.94-23.67S57.45,13.63,40.91,13.63"/><path class="cls-2" d="M28.87,30.33H20.11a1.49,1.49,0,1,0,0,3H23V43.79a1.47,1.47,0,0,0,1.45,1.46h.32a1.47,1.47,0,0,0,1.45-1.46V33.3h2.69a1.49,1.49,0,1,0,0-3Z"/><path class="cls-2" d="M49.91,42.44H45.84V31.73a1.62,1.62,0,0,0-3.23,0V43.28a2.28,2.28,0,0,0,0,.26,1.06,1.06,0,0,0,0,.25A1.35,1.35,0,0,0,44,45.15h5.95a1.36,1.36,0,0,0,0-2.71Z"/><path class="cls-2" d="M62.92,42.94l-4.54-6,4.1-4.1a1.42,1.42,0,0,0-2-2l-5.08,5.08V31.73a1.62,1.62,0,0,0-3.23,0v11.9a1.62,1.62,0,1,0,3.23,0V40l.93-.92,4.29,5.63a1.44,1.44,0,0,0,2.31-1.73Z"/><path class="cls-2" d="M41.4,43.32,37,31.39v0A2.16,2.16,0,0,0,35,30.12a2.09,2.09,0,0,0-2.12,1.5,1.54,1.54,0,0,0-.08.19L28.48,43.32a1.45,1.45,0,1,0,2.73,1L32,42.16h6l.75,2.12a1.44,1.44,0,0,0,1.84.89A1.46,1.46,0,0,0,41.4,43.32Zm-8.5-3.86,2-5.73H35l2,5.72Z"/></g></svg>