<?xml version="1.0" encoding="utf-8"?>
<!-- Generator: Adobe Illustrator 25.0.1, SVG Export Plug-In . SVG Version: 6.00 Build 0)  -->
<svg version="1.1" id="Layer_1" xmlns="http://www.w3.org/2000/svg" xmlns:xlink="http://www.w3.org/1999/xlink" x="0px" y="0px"
	 viewBox="0 0 68 68" style="enable-background:new 0 0 68 68;" xml:space="preserve">
<style type="text/css">
	.st0{fill:#F2DEBF;}
	.st1{fill:#FFFFFF;}
</style>
<g>
	<circle class="st0" cx="34" cy="34" r="34"/>
	<g>
		<path class="st1" d="M46.88,37.5c-0.71,0.47-1.56,0.69-2.34,0.89c-0.61,0.16-1.25,0.33-1.59,0.57c-0.33,0.24-0.68,0.78-1.01,1.31
			c-0.64,1-1.37,2.14-2.68,2.57c-0.32,0.1-0.66,0.16-1.02,0.16c-0.91,0-1.75-0.33-2.57-0.64c-0.29-0.11-0.58-0.23-0.86-0.32
			l7.11,14.35l3.24-8.12l8.33,2.58L46.88,37.5z"/>
		<path class="st1" d="M29.75,43c-0.36,0-0.7-0.05-1.02-0.16c-1.31-0.43-2.04-1.56-2.68-2.57c-0.34-0.53-0.69-1.08-1.01-1.31
			c-0.34-0.24-0.97-0.41-1.59-0.57c-0.78-0.2-1.62-0.43-2.34-0.89L14.5,50.85l8.32-2.1l3.25,7.64l7.11-14.35
			c-0.28,0.09-0.57,0.2-0.86,0.32C31.5,42.67,30.66,43,29.75,43z"/>
		<path class="st1" d="M38.85,41.56c1.49-0.48,2.07-2.78,3.32-3.69c1.25-0.91,3.62-0.76,4.53-2.02c0.9-1.24,0.04-3.44,0.52-4.93
			c0.47-1.44,2.47-2.7,2.47-4.3c0-1.6-2.01-2.86-2.47-4.3c-0.48-1.49,0.38-3.69-0.52-4.93c-0.91-1.25-3.28-1.1-4.53-2.02
			c-1.24-0.9-1.82-3.2-3.32-3.69c-1.44-0.47-3.25,1.03-4.85,1.03s-3.41-1.5-4.85-1.03c-1.49,0.48-2.07,2.78-3.32,3.69
			c-1.25,0.91-3.62,0.76-4.53,2.02c-0.9,1.24-0.04,3.44-0.52,4.93c-0.47,1.44-2.47,2.7-2.47,4.3c0,1.6,2.01,2.86,2.47,4.3
			c0.48,1.49-0.38,3.69,0.52,4.93c0.91,1.25,3.28,1.1,4.53,2.02c1.24,0.9,1.82,3.2,3.32,3.69c1.44,0.47,3.25-1.03,4.85-1.03
			C35.6,40.53,37.41,42.03,38.85,41.56z"/>
	</g>
</g>
</svg>
