<?xml version="1.0" encoding="utf-8"?>
<!-- Generator: Adobe Illustrator 25.0.1, SVG Export Plug-In . SVG Version: 6.00 Build 0)  -->
<svg version="1.1" id="Layer_1" xmlns="http://www.w3.org/2000/svg" xmlns:xlink="http://www.w3.org/1999/xlink" x="0px" y="0px"
	 viewBox="0 0 68 68" style="enable-background:new 0 0 68 68;" xml:space="preserve">
<style type="text/css">
	.st0{fill:#F2CFCA;}
	.st1{fill:#FFFFFF;}
</style>
<g>
	<circle class="st0" cx="34" cy="34" r="34"/>
	<path class="st1" d="M42.42,19.32c-3.4,0-6.55,1.71-8.42,4.47c-1.87-2.76-5.02-4.47-8.42-4.47c-5.6,0-10.16,4.56-10.16,10.16
		c0,0.09,0,0.18,0,0.28c0.06,2.52,0.98,5.21,2.73,8c1.39,2.22,3.32,4.53,5.74,6.86c4.13,3.98,8.41,6.82,9.62,7.59
		c0.15,0.1,0.32,0.14,0.49,0.14c0.17,0,0.34-0.05,0.49-0.14c1.21-0.77,5.49-3.61,9.62-7.59c2.42-2.33,4.35-4.63,5.74-6.86
		c1.75-2.79,2.67-5.48,2.73-8.01c0-0.09,0-0.18,0-0.28C52.59,23.88,48.03,19.32,42.42,19.32z"/>
</g>
</svg>
