<svg id="레이어_1" data-name="레이어 1" xmlns="http://www.w3.org/2000/svg" viewBox="0 0 614 198"><defs><style>.cls-1{font-size:37px;font-family:NotoSansKR-Medium-KSCpc-EUC-H, Noto Sans KR;letter-spacing:-0.06em;}.cls-1,.cls-2{fill:#fff;}</style></defs><text class="cls-1" transform="translate(244.49 124.87) rotate(-12.75) scale(0.98 1)">미션 완료</text><path class="cls-2" d="M359.64,48.22c.45-.11.52.16.07.27h0C360.16,48.38,359.64,48.22,359.64,48.22Zm.79,1.34.41-.1h0Zm-5.81.11c-.25-1.09-.63-.14-.25-1.09h0l.39-.09h0s.19.82.57-.13l1-.22h0l.34-.08,2.82-.66h0l.11.46.08.36-.33.36h0c-.46.59.11.45-.46.59l.11.45h0l.56-.13h0l.4-.09-.4.09c.07.27.15.63.07.27h0l-.57.13-.06-.27c-.28.35-.34.08-.76.84.57-.13,1,.25.9-.21a1.71,1.71,0,0,1,1.52.13c.3-.55,1.26-.78,1,0l-1,.23-.06-.27.06.27-.45.1-.06-.27.06.27-1,.23-.06-.27c-.34.07-1.1-.61-.91.21-.39.09-.49-.37-1,.22.57-.13,1,0,1.53-.36l.07.27h0l-.57.14-2.83.65-.06-.27c-.33.36-.4.1-.4.1.07.26-.1-.46-.67-.33l.17.73-.4-.19c-.1-.46-.1-.46.23-.54-.42-.28-.33.08-.9.21l-.09-.36c.51-.4.66.23.91-.21-.4-.19-.34.08-.4-.19,0,0,.4.19.33-.08-.1-.45-.44-.38-.44-.38S354.26,50.71,354.62,49.67Zm4-1.59c.08.36.56-.13.56-.13l-.1-.46C359.16,48,358.6,48.08,358.6,48.08Zm-.09,1.16h0l.34-.07-.11-.46C358.41,48.79,358.41,48.79,358.51,49.24Zm-1.21-.86c.08.36.48.27.39-.09S357.78,48.65,357.3,48.38Zm-3,2.33c.63.14,1.53-.35,1.6-.09.22-.81,1.29-.3,1.86-.43l-.57.13.09.37c.57-.14,1.06.23,1-.23a.39.39,0,0,1-.48-.27h0l-.06-.27c.39-.09.54.54.39-.09A3.84,3.84,0,0,0,354.26,50.71Zm6.52-1.51.06.26-.41.1h0C360.52,49.92,360.84,49.46,360.78,49.2Zm.55-.13-.55.13.55-.13-.55.13.06.26c1-.22.49-.39.68-1.4C361.22,48.61,361.22,48.61,361.33,49.07Zm-.66-.33.55-.13-.1-.45-.56.13ZM301,127.62Zm-17.41,6.91ZM360.5,48c-.08-.36-.41.09-.34.36ZM325.28,123.2h0l-.11-.45h0Zm-21.81,6.7h0l.06.27h0c-.06-.27.33-.36.9-.49h0Zm-4.93-.19Zm61.27-80.77Zm2.72-.63c-.24.53-1-.25-.79.66C362.35,49.11,362.35,49.11,362.53,48.31Zm-79.36,87.08ZM360,49.66l-.06-.26ZM367.37,46Zm8.77-2.81c.34-.07.06.27.06.27.91-.21,1.41.16,1.87-.43L378,42.8l-1.86.43c.06.27.06.27-.4.86C376.31,44,376.2,43.5,376.14,43.23Zm-4.39,2.17-.19-.82.34-.36h0c.56-.13.62.14.62.14l-.06-.27,2.72-.63-.91.21.07.27h0l.1.45c-.67-.32-1.52-.12-1.41.33,0,0,.08.36.45-.1l.15.63a4.27,4.27,0,0,1-1-.43c-.81.85-.3,1.21-.54,2,0,0-.55.13-.61-.14l-.22-.91S371.36,46.25,371.75,45.4Zm1.11-1.4c.45-.11.52.16.52.16C373.71,43.8,372.86,44,372.86,44Zm-1.68,3.06-.06-.27h0l.35-.08h0c-.22-.91-.36-1.54.09-2.13l-.56.13.11.46C371.12,46.79,370.91,45.88,371.18,47.06Zm-12,3.65c-.34.07-.27.34-.27.34l.33-.07Zm-56,76.38c-.06,1.54-.43,2.49-.91,2.22l.39-.09-.39.09-.28-1.18s.4-.09.33-.37l.57-.13-.57.13-.1-.45Zm-1.08,1.49s.46.18.39-.09Zm59.68-81.73-.07-.27h0a.31.31,0,0,0,.41.19c.11.45,0,0-.06-.27l1.36-.32.06.27c.57-.13.51-.4.51-.4l2.2-.51.56-.13,1-.23h0l.39-.09c-.39.09-.39.09-.33.36.39-.09.33-.36,1-.22l-.57.13a3,3,0,0,0,1.41-.61l-.57.13.57-.13h0c.39-.09.46.18,1,0h0s.11.46.46.38c-.27.44,0,1.62-.41,2.38a.42.42,0,0,1-.29.55l-2.83.66h0l-.56.13h0s-.11-.46.46-.59l-.09-.36c-.06-.27.09.36.4-.09-.4.09-.46-.18-1-.05l-.1-.45c-.23.53.1.45-.17.8a4.48,4.48,0,0,1-1.63-.86c-.51.12.61.82.21.91l-.61-.34h0c-.11-.45.51-.12.4-.57l-.51.12-.06-.27h0s.57.15.51-.12c-.51.12-.6-.25-.6-.25h0c-.1-.45-.67-.32-.67-.32.57-.13,0,0-.29.55h0l.09.36h0l-.4.09h0l-.57.13h0c.57-.13.57-.13.49-.49h0l-.57.13.08.36h0l-.08-.36C361.93,47.3,361.93,47.3,361.83,46.85Zm7.15-.8h0C368,46.27,369.48,46.69,369,46.05Zm-2.32,1.3Zm-.36-1.54c.1.45.67.32,1.07.23-.31.45.08.36-1,.22a1,1,0,0,1,.82,1c-.1-.46.8-.95.15-1.18h0l-.11-.46C366.87,45.68,366.24,45.54,366.3,45.81ZM364.8,47c.39-.09.06.27.45.18,0,0,.4-.1.34-.37Zm-34.25,75.72-.17-.73h0l-.4.1c.46.18.07.27.07.27l.5.36c.08.36.19.82-.21.91l-1.81.7h0l-.17-.72.4-.09-.4.09c.4-.09.4-.09.32-.46h0l-.11-.45h0l-.06-.27.56-.13-.56.13h0s.56-.13.45-.58c1.25-.59-.45.58-1,.22l.11.45.4-.09h0c.17.72-.1-.46-.34.36h0l.1.46.09.36h0l.1.46h0l.07.26h0l-.56.13-.4.1c.23-.82.15-1.18.6-1.77l-.56.13c.11.46-.21.91,0,1.64l-.56.13s.49-.4-.06-.27l.55-.13-.55.13h0l.55-.13h0l-.55.13c.45-.59.55-.13.45-.59h0l.4-.09-.4.09h0c-.56.13-.09-.36-.64-.23l.55-.13h0l-.55.13.55-.13-.55.13.55-.13c-.55.13,0,0-.66-.32,0,0,.66.32.11.45h0c.45-.58-.11-.45.45-.58h0l-.56.13h0l-.35.08h0l.35-.08h0c-.35.08.11.45.11.45l-.35.08h0l.35-.08a.36.36,0,0,0-.27.44l-.08-.36h0c.08.36-.48.5.08.36h0l.35-.08-.35.08h0l.35-.08h0s-.35.08.11.46l-.11-.46.11.46-.35.08.35-.08-.35.08c.35-.08.35-.08.41.19l-2.72.63s.57-.13.5-.4c0,0-.56.13-.67-.32a.93.93,0,0,1-.23.81h0s-.57-.15-.51.12h0l-1.35.32-.06-.27c.06.27.06.27-.51.4l-.73.17h0l-.57.13h0l-1,.22h0l-.41-.18.07.26-6,1.88c-.11-.46.46-.59-.11-.46,0,0-.39.1.11.46l-3.79.88-.11-.45h0c-.25-1.09-.59-2.55-1-2.91l1.78-.8a2.23,2.23,0,0,0-.21,1.67h0l.07.27h0c.19.82,0,1.63.35,1.54-.16-.72-.25-1.08.21-1.67l-.06-.27.34-.08c-.11-.45.46-.58-.11-.45h0l-.06-.28c.56-.13,0,0,.46-.58l-.57.13h0l-.33.08c.44.37.1.45.1.45l-.19-.81,2.83-.66.08.36c-.08-.36.38.38.2-.42.08.36.75.67.75.67-.75-.67.34-.08-.19-.8h0a1.82,1.82,0,0,0,1.39.06l-.09-.37,2.43-.56.41-.1h0c-.32.46-1,.23-.88.59l.56-.13.4-.1-.4.1h0l.4-.1c.48-.49-.08-.36-.08-.36l.56-.13c.18.81.18.81-.31,1.22h0l.11.45h0c.25,1.09.06.27.55-.13h0l-.35-1.54.34-.08h0l1-.22h0l1.3-.3-.33.08h0l-.4.09.4-.09c-.4.09-.31.45.18.8l-.1-.44h0a.35.35,0,0,0,.25-.44l1-.23.66.23a.41.41,0,0,1,.49.36h0l.58.16-.07-.28h0l.07.28h0c.39-.09.1.45.5.36h0l-.4.09.4-.09h0l.06.27h0l.57-.13h0l.28-.07h0l-.28.07h0l.28-.07a1.56,1.56,0,0,1-.09.88c.28-.06.19-.42.09-.88h0c.56-.13.56-.13.67.33l-.11-.46.4-.09h0c.56-.13.5-.4.85-.48l.06.27c.56-.13-.06-.27-.06-.27h0l.55-.13-.55.13.55-.13-.55.13,1-.23c-.51-.36-.11-.45-.11-.45.56-.13-.47-.19-.4.09L327,122l.07.28h0l.1.46-.1-.46c-.45.59.1.46-.45.59h0l-.35.08.35-.08-.35.08.35-.08-.35.08h0l.24-.54h0l-.34.08h0l-.17-.72h0s-.47.58-.4.86h0l.1.45h0c-.27-1.18.21-1.67-.35-1.54l.25,1.09c-.4.09-.46-.19-.46-.19l.39-.09-.39.09h0L325,122l.1.45s-.29-1.26-.67-.32h0l-.28.07h0l.28-.07h0l-.28.07-.08-.36.27-.07-.27.07.27-.07h0l-.27.07h0l.27-.07h0l2.74-1.11.35,1.54c.5-.41.31-1.22.2-1.67l1.88-.44.19.82c-.09-.36.31-.46.2-.91l.57-.13.11.45h0l.08.36h0l.34-.07h0s.67.31.1.44l-.1-.44c-.24.52.67.31.1.44h0c.06.28.63.15.06.28h0l-.33.08h0l.33-.08-.33.08.1.45h0l.07.27C331.11,122.61,330.94,121.88,330.55,122.74Zm-4.24-1,.56-.13h0Zm.48-.49-.56.13.56-.13Zm-.56.13.56-.13Zm0,0Zm.19.8h0s.45-.57-.11-.44c.11.44,0,0-.34.08C326.07,122.24,326.07,122.24,326.42,122.16Zm0,0Zm0,0h0l-.35.08.35-.08Zm.06.28ZM327,122l-.1-.44h0s.1.44-.45.57L327,122Zm-.1-.44ZM309.11,127l-.57.14Zm-.11-.45h0l-.56.13Zm-.06-.28h0c-.57.13.06.28-.5.41l.56-.13s-.56.13-.63-.15Zm2.49.48c-.39.09-1,0-1,.22Zm1.07.23-.4.09Zm.25,1.08Zm0-2.39.28-.07-.28.07Zm.45.66c.1.45-.28.06-.17.52l.27-.07-.84.2.57-.13-.57.13c.57-.13.65.23.65.23h0s.19-.43-.08-.36l.27-.07h0Zm0,0s.5-.4-.06-.27C313.18,126,313,126.35,313.24,126.29Zm.36,1.54Zm1.47-.34-.57.13h0Zm0,0h0l.1.45Zm2.53-3.75Zm0,0Zm-.85.67.55-.13Zm-1.46,2.26Zm.56-1.75-.35.08S315.61,125.45,315.85,124.92Zm1.07.23c-.41.09-.41.09-.58-.64l-.22,1.59c.45-.59.45-.59.64.23A1.19,1.19,0,0,1,316.92,125.15Zm.45-.59.4-.09-.06-.28.06.28-.47-.19h0l-.55.13.55-.13c-.55.13,0,0-.49.41h0s.56-.13.49-.41l.07.28-.56.13.56-.13Zm.4-.09Zm.92,1.41c-.09-.36-.56.13-.56.13S318.6,125.52,318.69,125.88Zm.78-2.57.57-.13-.57.13Zm.27,1.18Zm-1.13-.51.39-.09h0S318.9,123.44,318.61,124Zm.42,1.82Zm-.35-1.54.39-.09-.39.09Zm1.23.95s-1.07-.23-.88.59C320,125.58,320,125.58,319.91,125.21Zm.65.23-.56.14Zm-.36-1.54h0l-.56.14h0l.56-.14Zm2.93.56Zm0,0ZM323,124Zm-1.82.9Zm.23-1.59-.57.13Zm.34,1.46Zm.08.36Zm0-1.91-.39.09Zm.24,1Zm.33-1.13-.57.13.57-.13Zm.34,1.46.39-.1-.39.1Zm.58.72-.39.09Zm-.1-.45-.4.09h0Zm0,0Zm.51-.12-.51.12h0l.51-.12Zm0,0-.51.12.51-.12Zm-.09-.36h0l-.51.11Zm.23-.82c.06.27-.33.36-.33.36C323.93,123.8,323.87,123.53,323.87,123.53Zm.06.27.67.32C324.5,123.67,324.5,123.67,323.93,123.8Zm2.48-.1-.57.13Zm.08.36-.56.14.56-.14-.56.14Zm-.56.14Zm-1,.22.56-.13Zm.56-.13h0l-.56.13.56-.13Zm.11.45c-.57.13-.11-.45-.57.13h0Zm.39-.09c-.1-.45-.1-.45-.5-.36l.11.45h0Zm0,0Zm.57-.13c-.57.13-.11-.46-.67-.32l.1.45Zm0,0Zm-.11-.46.11.46h0Zm0,0Zm0,0Zm-.08-.36-.57.13Zm0,0h0l.35-.08-.35.08-.11-.45Zm.8-.66Zm.1.45.09.36C327.72,123.4,327.31,123.49,327.31,123.49Zm1.59-1.9Zm.35-.08.56-.14-.56.14Zm.17.73.56-.13Zm-.18.8Zm.08.37Zm.73-1-.57.13c.57-.13.67.32.67.32h0l-.57.13h0l.57-.13-.57.13.47-.58s-.57.13-.47.58l-.1-.45.1.45c-.1-.45-.27-1.18-.26.45.16-.9.45.37.35-.08h0l.48-.5-.57.13h0l.57-.13-.57.13h0l.57-.13h0Zm-.07-.27Zm-.17-.74Zm1-.22Zm.07.28h0l-.57.13Zm-1.17,1.9Zm-23.38,0a40,40,0,0,1-5.6,1.59l-.33.08-4.24,1h0c-.4.09-.46-.18-.46-.18-.57.13.06.27.46.18l-1.87.43c-.39.09-.06-.27-.45-.18-.51.4,0,0,.06.27h0l-3.4.79s-.06-.27-.4.09l.4-.09-2.27.53h0c-.9.21-1.66.78-2.62,1,.57-.13.48-.5-.09-.37h0l.09.37-.39.09-.15-.64c.45.18,1,.05,1.92-.45l-1.92.45h0l2.2-.51-.28.06s.34.21.85-.19l-.57.13.57-.13c.33-.08.06.27.39.19l-.06-.27,7.82-2.3s.1.46.67.32l-.1-.45,3.67-.86.17.73a1.69,1.69,0,0,1,.84-.48c.39-.09-.91.21-.11-.46l-.9.21.33-.07,3.4-.79c-.57.13.5.36.17.72-.07-.27,0,0,.39-.09.29-.35-.17-.72-.56-.63l2.66-.62h0l-.39.09h0Zm-19.85,4.91ZM290,127.1l.4-.09Zm4.19-1-.39.09h0Zm5.14-1.2.4-.09Zm67.5-76.86Zm-40,75.91Zm0,0-.08-.36C326.84,124,326.49,124.06,326.84,124ZM362,47.66h0l-.09-.36C361.46,47.79,361.93,47.3,362,47.66Zm9.88-3.44h0l.56-.13ZM363.24,47a.39.39,0,0,0,.48.27l-.08-.36Zm-59.71,83.17s-.57.13-.46.59h0l1-.23-.11-.45Zm71.9-85.63.39-.09-.08-.36c.57-.13.08.36.65.23a.71.71,0,0,1,.91-.21c-.57.13,0,0,.06.27l-.06-.27-.09-.36.4-.09c-.4.09,0,0,.08.36l1-.23c-.08-.36-.33.37-.39.1.39-.1-.09-.37-.09-.37s-.1-.45.29-.54c.11.45-.29.54.19.81l-.08-.36-.11-.45.27-.35.47-.59.67.33h0l.39-.1h0c-.39.1,0,0,.07.27a.21.21,0,1,0-.4.1l.4-.1-.4.1h0s.11.45.5.36c-.1-.46-.1-.46-.5-.36.79-.19.73-.46.73-.46l-.11-.45.57-.13c.34-.08.44.37,1,.24.39-.09.29-.55.29-.55h0l.1.46.57-.13c-.51.4.25,1.08.32,1.35h0c.1.46.45.38.34-.08h0l-.06-.27h0c.06.27.56-.13.62.14-.56.13.76,1.45-.28,1.31h0l-.35.08a.35.35,0,0,1,.43.28h0l-.35.08h0L382,45.4l-.1-.45c-.09-.37.25-.44-.15-.63h0c.06.26.06.26-.42.76l.57-.13-.57.13.67.32-.56.13-.11-.45-.48-.27s-.39.09-.31.45c.4-.09.4-.09.5.37l-.39.09-.19-.82h0l.39-.09-.06-.27.39-.09h0c-.1-.46.47-.59.47-.59l-.11-.45h0l-.63-.14h0l-.08-.36-.11-.46c-.39.09-.39.09-.29.55h0a.38.38,0,0,0-.31.45c-.65-.23-.08-.36-.19-.81l-1.13.26c.1.45.56-.13.67.32l.08.36h0s-.56.14-.08-.36l-.57.13.65.23h0c-.5.41-.84.48-1.69,1.16,1.13.5.1.46-.29.55.54.54,1.42,0,1.75-.13-.39-.19-.39-.19.51-.4-.57.14-1-.24-.67-.32-.11-.45-.11-.45.56-.13l-.56.13c.73.59.73.59,1.24.19-.11-.45-.57.13-.57.13l.57-.13h0c.06.27-.32,1.22-.42.76l.1.46-.9.21-.11-.46h0l-.39.1h0l-.57.13-.39.09-.09-.36a2.26,2.26,0,0,0-.71,1l-1,.22.39-.09a2.93,2.93,0,0,0-1.15-.6,2,2,0,0,1-1.47-.42l-.25-1.08.4-.1h0l.14.64c.57-.14.57-.14,1,.24C374.93,44.94,375.43,44.54,375.43,44.54Zm7.68-.26c-.39.09-.06-.27-.45-.17l.06.26a.38.38,0,0,0,.48.28Zm-.92-2.17s.11.45.5.36l-.11-.45-.06-.27C382.58,42,382.13,41.84,382.19,42.11Zm-.38,1,.63.14c-.56.13-.56.13-.46.58l.57-.13.11.46c-.11-.46.28-.55.18-1h0a.38.38,0,0,1-.15-.63.38.38,0,0,0-.31.46l-.08-.37h0C382.19,42.11,381.81,43.06,381.81,43.06Zm-.16.8h0l.1.46C382,43.78,381.65,43.86,381.65,43.86Zm-5.76.86c-.29.55-.29.55-.4.09l.28,1.18,1-.22h0c.34-.08.9-.21.84-.48,0,0-.21-.91-.78-.78l.21.91h0l-.33.08c-.11-.46,0,0-.78-.78.1.46.67.32.1.46l.11.45Zm-74.12,86.34h0l-1,.22h0l-2.71.63-.57.14h0l-1.29.3-.57.13h0l-2.77.93a2.49,2.49,0,0,1,.14-1.94l.08.36-.08-.36h0l.35-.08-.11-.46.57-.13h0l-.57.13h0c-.35.08-.24.54-.24.54l-.11-.46s-.55.13-.45.59h0c.19.81-.15,1.18,0,1.9l-3.73.87s-.06-.27.5-.4l.07.27c-.07-.27.27-.35.27-.35s-.44-.38-.34.08h0c-.84.19-.17-.73-1.12-1-.46.59.11.46.11.46l.17.72-1.53.36c.57-.13.63.14.63.14l-1,.22h0L286,135h0l-.34.08-1,.22h0l-.06-.26-.57.13c.57-.13.63.13.07.27a.31.31,0,0,0-.41-.19h0l.34-.08h0l-.1-.46-.35.08h0c.28-.35.35-.08.85-.48l-.57.13h0l-.34.08h0l-.11-.45-1,.22a.42.42,0,0,0,.51.36l-1,.23h0l1-.23-.41.1c.07.27-.49.4.07.27l.4-.1-.06-.27c.06.27-.34.37.17.73h0l-.41.09h0l.41-.09-.41.09.07.27c.4-.09-.07-.27.34-.36h0s-.34.36.06.27h0l.56-.13-1,.22-.56.13h0l-.41.09.41-.09-1.88.44h0l-.06-.27c.17.72-.39.09-.5-.37l.11.46.45.18-.39.09h0l-1.37.8-.1-.46.1.46-.39.09-.11-.46h0l-.56.13-.4.1.11.45-2.71.63h0l-.28-1.18c.68.33-.06-.27-.16-.72.67.32,1,.53,1.18,1.25.33-.36.39-.09.33-.36-.39.09-.5-.36-.5-.36-.06-.27.33-.36.9-.5-.68-.32-.76-.68-.11-.45-.65-.23-.46.59-1-.14-.28.06-.2.43-.2.43l-.19-.82c-.66,1.5-2.43.57-2.54,1.93-.75-.69-.32,1.12-.9.21.51.65.06.27.51.65-.1-.46.45-.59,1,0l.1.46-6.06,1.4-.1-.45-.57-.15a.88.88,0,0,1,.67.6l-1.47.35h0c-.1-.46.66.23,1-.23-.4.1-.4.1-.5-.36-.07-.27.39-.09.39-.09l-.46-.18a.57.57,0,0,1-.89.49c-.07-.27-.17-.72.33-.36-.11-.45,0,0-.5-.36l.1.45-.17-.72h0l-.1-.45.1.45h0c-.56.13.07.27.17.72-.67-.32-.73-.59-.73-.59.06.27-.45-.37-.45-.37.61,1.1-.51.11-.34.84.45-.39.62.34.62.34-.11-.46,0,0-.51.11l-.11-.45c-.06-.27-.59-1-.06-.27l-1.3.3.4-.09c-.33.36-.5-.36-.33.36l-.58-.63c.51.36,0,0,.17.72,0,0,.34-.36.41-.09-.41.09-.41.09-.3.55l-.56.13-.11-.46s.56-.13-.16-.72l.27,1.18c-.74-.59-.67-.32-.57.13h0c-.1-.45-.17-.72-.5-.64l-.51-.37-.09-.36c-.47.49-.47.49-.55.13.19.82-.1,1.17-1.12,1.12.17.73.06.27-.4.86.17.72,0,0,.63.14l.19.81-.57.14-.08-.37-.11-.45.19.82-1.86.43c-.43-1.81-.59-.73-.65-1a1,1,0,0,0-.32,1.21l-3.16.74c.25-.44.44.37.25-.44l-.1-.46s.57-.13-.06-.27l.06.27-.06-.27c-.34.08-.34.08-.28.35h0l.19.82-.57.13-.08-.36c-.44-1.9-.53-2.27-.5-.36-.16,1.37.11.45.33-.36.06.26-.22.81-.14,1.17l-2.31.54a4.65,4.65,0,0,1,0-2.39c-.55.13-.64-.24-.64-.24a6.09,6.09,0,0,1,.21,2.73l-1.87.43c-.19-.82-.35-1.54-.25-1.09a3.42,3.42,0,0,1-.14,1.18c-.08-.36-.65-.23-1,.23l-.57.13h0l-.34.08c.34-.08.26-.44.15-.9-.23.53-.4-.19-.15.9l-.56.13c.48-.5.37-1-.09-.36l.09.36-.4.09h0c-.19-.82-1,.22-.85.68h0l-.53-2.27a4,4,0,0,1,0,2.39l-1,.22c-.11-.45-.5-.36-1,.22l-1.2.28-.1-.45.1.45-1,.22-.1-.45.1.45-1,.23-.36-1.54c.41-.1.24-.82.13-1.28l.28,1.18c-.11-.45.45-.58.45-.58l-.36-1.54.4-.1a2,2,0,0,0,0,1.64c.34-.36.23-.82.51.36.28-1.31.09-2.13.44-2.21h0l.84-.19c.11.45,0,1.35.13,2.07,0-1.62.17-.8.23-.53-.17-.73.21-1.67.15-1.95l.39-.09.06.27c-.28.55-.39.1,0,1.64a4.81,4.81,0,0,1,.54-2l.39-.09.17.72-.39.1h0l.19.81.06.27h0c-.86.68-1.53.36-1.36,1.08.9-.49,1.53-.35,1.36-1.08l.33-.36c-.39.09-.1-.45-.19-.82h0a.92.92,0,0,1,.34-.84l1.93-.45h0l.9-.21h0l8.77-2c-.57.14-.51.41-.51.41l.51-.41.39-.09h0a7.27,7.27,0,0,0,0,1.64c-.11-.46,0,0,.45.17-.39.09-1,.23-.85.68,0,0,.46-.59.56-.13l-1.52.35,1.92-.44h0l.46-.59-.57.13-.06-.27c-.39.1-.19-.81.21-1.67l.33-.08a1.37,1.37,0,0,0-.08,1.17c.17.72,0,0,.08-1.17l.57-.13s-.5.4-.4.86c.26,1.08.86-.68,1.22.86a14,14,0,0,1,.14-1.94c-.21,1.67.17.72.34-.08h0l.57-.13s-.51.4-.21,1.67c.38-1,.23,1,0,0-.11-.46.38-1,.21-1.67h0l.39-.1c.06.27,0,1.64.13,2.36,0,0-.23-2.81.44-2.49.36,1.54,1,.05,1.37,0l-.17-.73,6.5-1.51c.11.46.17.73-.46.59l.17.72c-.11-.45.56-.13.85-.68-.39.1-.56-.63-.56-.63l11.47-3h0c1,0-.16.81,1.13.51-.56.13-.67-.32-.17-.74l1.3-.3,1-.22.57-.13,1.87-.44c.4-.09,0,0,.06.28l.41-.09h0l-.41.09h0c.51.36.11.46,1.13.5l-.06-.27h0l-.56.13.91-.21h0c-.91.21-.52-.65-.52-.65l.35-.08.56-.13h0l.4-.09.56-.14c-.56.14,0,0,.07.28.27-.36.33-.08,0,0a.31.31,0,0,0,.27-.36l1-.22-.39.09,1-.22-.57.13.57-.13.39-.09h0l.57-.13c-1,.22.06.27-.9.5.4-.09.5.36.4-.09l.84-.2a.27.27,0,0,0-.34-.21l1.75-.41h0l.39-.09c.07.28-.39.09-.33.37.11.45.4-.09.5.36.07.27-1.06-.23-1.06-.23l.16.72c-.06-.27-.5-.64-.5-.64.11.45-.85.19-.57,1.37,0,0,.28-.06.36.3a.76.76,0,0,1-.19-.82l.11.46c.08.36.56-.13.56-.13l-.1-.46c.44.38.44.38.33-.08,0,0-.06-.27.68.33.29-.55.39-.1.68-.64l-.46-.18h0c.4-.09.29-.55-.1-.45l.1.45-.17-.73.4-.09c-.4.09-.4.09-.5-.36l.9-.21.11.45.4-.1-.1-.44,2.43-.57h0l.39-.09,6.5-1.51.67.31-.1-.44a1.84,1.84,0,0,0-.23,1.58l.36,1.54c-.4.09-1-.05-1,.22.56-.13,1-.22,1.06.23Zm-48.86,10.61c-.11-.46,0-1.64-.3-1.28C252.34,141.8,252.57,142.79,252.91,141.67Zm-8.6,2.76s-.68-.32-.91.21Zm1.08-1.49-.4.09Zm-.59-.73h0l1-.22Zm2.45.29-.55.13c.55-.13-.09-.36.47-.49l-1,.22a.39.39,0,0,1,.49.27h0Zm2.44.2c-.29.54-.86.68-.95,1.84C249.09,144.46,249.19,144.92,249.69,142.7Zm.39-.38c-.45.11-1.52-.12-1.41.33Zm.67-1.49c-.57.13-.47.58-.64-.14.17.72-.33.36.17.72C250.18,141,250.94,141.64,250.75,140.83Zm.69,1.46c.11.45.67.32.71-1.31-.17-.72-.4.09-.71,1.31h0l-.06-.27-.11-.45c-.08-.37-.42-1.82-.23.53,0,0,.06.27.4.19Zm12.33-3.63a.35.35,0,0,0-.42-.29l.08.37C263.69,138.3,263.69,138.3,263.77,138.66Zm.57-.13c-.09-.37-.09-.37-.76-.69,0,0-.06-.27-.4-.19.4.19.06.27.4.19C263.52,137.57,264.34,138.53,264.34,138.53Zm-.19-.82s-.06-.27-.63-.14a.89.89,0,0,1,.73.59C263.41,137.12,264.73,138.43,264.15,137.71Zm.33-.36c-.5-.37-1.07-.23-1,.22Zm.92,1.41-.56.13C265.57,139.48,265.86,138.93,265.4,138.76Zm5.66-1.32c-.56.13.17.73.17.73h0Zm5.59-2.64-.91.21h0Zm1-.22-.57.13c.57-.13.57-.13.5-.4h0c-.56.13-.5.4-.89.49Zm.29,1.27Zm1,0c-.07-.26-.07-.26-.74-.59C278.3,135.76,278,136.12,278.93,135.89Zm1,.25-.91.21S279.1,136.62,279.94,136.14Zm3.12-1.21h0C282.66,135,282.76,135.48,283.06,134.93Zm-2.45-1.82s.56-.12.49-.4C280.55,132.84,280.61,133.11,280.61,133.11Zm-.24.54s-.5.4.41.19C280.72,133.57,280.37,133.65,280.37,133.65Zm.53,2.27Zm.07-1.26-.91.21.1.45c.81-.66.63.14.92-.21Zm-.43-.29.35-.08c-.35.08-.83.58-.27.45C280.89,134.29,281.44,134.16,280.54,134.37Zm1.09.61c-.1-.45.3-.55-.66-.32A.5.5,0,0,0,281.63,135Zm.07.27c.34-.36-.07-.27-.62-.14C281.08,135.11,281.14,135.38,281.7,135.25Zm.1.46s.41-.1-.1-.46C281.7,135.25,281.25,135.83,281.8,135.71Zm1-.23-.55.13-.41.1h0l.41-.1h0Zm-1.06-.23.4-.09.11.45-.11-.45.56-.13h0l-.56.13h0Zm.15-1.18c-.41.09-.11-.45-.51-.36,0,0,.1.45.51.36Zm.55-.13c-.55.13-.1-.45-.55.13Zm.09.36h0l.4-.09S282.81,133.85,282.49,134.3Zm2.92-1.82-.11-.46C285.41,132.48,285.07,132.56,285.41,132.48Zm-.17.8s.23-.53-.1-.45C284.67,133.41,285.24,133.28,285.24,133.28Zm-1.53.36s-.26.44.09.36h0S284.28,133.5,283.71,133.64Zm-.27-1.18.17.72a.24.24,0,1,0,.1.46l-.1-.46C284.11,132.78,285,132.1,283.44,132.46Zm2.16,2.36L285,135C285.1,135.22,285.6,134.82,285.6,134.82Zm0,0c-.11-.45.8-.66.8-.66-.91.21-.63-.14-.63-.14s-.11-.46-.44-.38l.1.46-.1-.46C285.43,134.1,284.93,134.5,285.6,134.82Zm.34-.08h0s.06.27.63.14C285.94,134.74,286.51,134.61,285.94,134.74Zm.26-3.22.07.28-.4.09h0l.4-.09C285.87,131.89,286.2,131.52,286.2,131.52Zm.07.28.56-.13.4-.09-.07-.28h0l-1,.22C286.77,131.39,286.27,131.8,286.27,131.8Zm1.2,2.59h0l-.57.13Zm-.64-2.72h0l.11.45h0C287.33,132,286.94,132.12,286.83,131.67Zm.57.63-.07-.27h0l.17.72Zm.39-.86.28-.06-.28.06Zm.36,1.54Zm2.06-.86h0C289.25,132.35,289.9,132.58,290.21,132.12Zm-.31.46c-.57.13.11.45.5.36-.5-.36-.1-.45.29-.55S289.9,132.58,289.9,132.58Zm2-1.61-.11-.46c-.55.13-.55.13-.45.58h0Zm1.31-.31s.46-.59-.46-.37Zm0,0Zm4.18-1.74h0l-.57.13Zm-2.43.56,1.47-.34C295.87,129.27,295.43,128.9,295,129.48Zm1,.07.57-.13S296.44,129.14,295.94,129.55Zm-.74.93.91-.21c.5-.4-.4-.19-.17-.72l-.34.08h0c-.57.13.44.37-.46.58,0,0,.46-.58-.11-.45Zm-1.52-.41c.1.46.39-.09.39-.09Zm.5.37h0C295.14,130.21,294.75,130.31,294.18,130.44Zm-.14,1.18s-.46.58.1.45C294.14,132.07,294.43,131.52,294,131.62Zm-.09-.37h0l.4-.09Zm1.36-.31h0l.46-.59h0c.11.46-.46.59.11.46h0l.33-.08-.1-.46,1.52-.35s-.56.13-.63-.14c-.33.36-.33.36-.89.49l-.34.08h0l-.57.13-1,.23s.57-.13.67.32Zm.82.95c.27-.34-.57.13,0,0Zm1.3-.3h0c.1.46-.46-.18-.29.55l-.57.13h0l-.11-.46c-.33.08-.22.54-.9.21l.11.46.9-.21h0l1-.22h0l.57-.14-.57.14-.1-.46C298.1,131.91,298.9,131.25,297.43,131.59Zm1.11-1.88h0s-1-.06-.57-.15c.57.15.06.27.06.27l.51-.12Zm.1.45c.29-.54-.1-.45-.1-.45Zm.65,1-.39.09Zm-.06-.27-.4.09.4-.09Zm.57-.13Zm.34.2c-.28.06-.28.06-.18.52Zm44.81-79h0l.1.45Zm7.34-1.23h0l.57-.13-.57.13.57-.13h0l.4-.09h0s-.11-.46.46-.59c-.63-.14-.72-.5-.72-.5l.65.23-.08-.36s-.48.49-.67-.32h0a.41.41,0,0,0-.29.54L352.5,49C352.69,49.83,352.61,49.47,352.29,50.69Zm-4.1,10.8c.27-.35.9-.21.9-.21s-.57.13-.63-.14c.57-.13,1,0,1-.22.07.27-.39.09-.39.09Zm.43-4h0l-.08-.37h0Zm12.88,51h0l-1,.23c.1.45.1.45-.29.54-.11-.45,0,0,.17.73.39-.09.85-.68,1.25-.77ZM361,54.2h0l-.1-.45Zm.92,54.16h0c.17.72-.28.83-.28.83l.45-.11ZM350.84,60.59c.4-.09,0,0,.06.27.4-.1.51.36.1.45h0C350.9,60.86,351.3,60.76,350.84,60.59Zm-3.37-3.71c.57-.13,0,0,.1.45h0c.47-.58.47-.58.57-.13l.09.36h0l-.09-.36-.1-.45.39-.09.57-.14-1.87.44Zm3.63-5.43h0l.06.27.74-.94.11.46.39-.09-.39.09.39-.09h0c-.5-.37-.5-.37-.21-.91l-.29.54C351.44,51.37,351.44,51.37,351.1,51.45Zm-.19,5.1h0l-.1-.45-.56.13h0l-.41.1.41-.1-.86.2h0l-.39.09.84-.19c.11.44-.45.1-.34.55l.08.36h0c-.08-.36-.08-.36.37-.47l.08.37.41-.1-.09-.36c.09.36-.16-.72.46-.58.1.45-.46.58-.46.58Zm-1.72.78.39-.09L349.1,57Zm.4,4.31.57-.13Zm.52-8.53h0c.35-.08.28-.35.35-.08h0c.33-.36.33-.36.89-.5l.07.27.33-.08C351.35,52.53,349.79,51.75,350.11,53.11ZM362.52,109l-.16-.73-.41.1C362.06,108.81,362.12,109.08,362.52,109Zm-10.23-58.3A1.84,1.84,0,0,1,352.5,49l-.56.13h0l.19.82-.34.36C352.19,50.24,352.19,50.24,352.29,50.69ZM349,56.52h0l.19.81h0L349.1,57h0Zm6.38-1,1-.22c-.1-.45-.1-.45-.5-.36C356.34,55.29,355.28,55.06,355.38,55.51Zm2.39-1,.33-.07-.33.07Zm3,4.56-.57.13Zm-1.63-.1.57-.13c-.57.13-.63-.14-.91.21,0,0,.11.45.44.37a2.33,2.33,0,0,1,.86-.68l-.06-.27h0C359.66,58.54,359.1,58.67,359.16,58.94Zm-.34.08a2.18,2.18,0,0,1-.85.67C358.36,59.6,358.93,59.47,358.82,59ZM360,58l.9-.21c-.52-.74-.08-.36-.33.08C360.52,57.86,359.87,57.63,360,58Zm.69-3.7ZM361,58.5a.88.88,0,0,0-.9.21s.57-.13.67.33c.34-.08.91-.21.8-.67,0,0,.39-.09.33-.36-.33.36-.9.49-1,.22Zm12,47.28s.62.62.16.72a.2.2,0,1,0-.39.09l-.57.14h0l-2.77.64h0l-.16-.72,3.73-.87Zm-2.83.66.17.72ZM356.34,55.29l.57-.14h0l-.1-.44h0Zm-3.63-2.79Zm2.44-.57Zm1.66,2.78Zm1,4.26c.29-.55.85-.68,1.76-.89l-1.87.43Zm-.89-3.82Zm-.17-.72h0l.07.28Zm-1.53.36,1-.23-.39.09-.57.14ZM346.36,58l.39-.09-.39.09Zm11.52,52.08Zm-10.56-52.3-.08-.36-1,.22.47.27Zm0,0ZM289.27,134l-.56.13.56-.13ZM358,110.52l-.1-.45-.06-.27h0l.56-.13h0l.4-.09h0l.06.27-.06-.27.57-.14c.06.27.16.73.79-.66h0c.11.45-.4.85-.29,1.31Zm.47-.58s.39-.09-.07-.27C358.38,109.67,357.71,109.34,358.45,109.94ZM319,57.68Zm-6.22,1.44-.4.1.34,1.45A2.73,2.73,0,0,1,312.76,59.12Zm43.82,51.25h0l.4-.09h0l-.07-.27h0S356.52,110.1,356.58,110.37Zm.5.36Zm.4-.85h0l.06.27Zm7.24-1.4h0l4.36-1c.33-.36.33-.36.23-.81l-3.22.75.16.72-.56.13-.17-.72-2.61.6c-.45.59-.45.59-.39.86h0l1.87-.44h0ZM345.79,58.12c.49-.49.78-1,1.34-1.16l-.56.13-.4.09.11.45-.11-.45-1.47.34.11.45.08.36.57-.13c-.26-1.09.25-.44.14-.89l.19.81Zm6.66-2.4Zm5.2,54.88-.11-.45h0Zm-.11-.45s-.06-.27.28-.35h0l-.34.08h0l.06.27Zm-.56.13.1.45.57-.13a.5.5,0,0,0-.67-.32Zm-4-54.69.39-.09-.39.09Zm.88,3.81c-.9.21-.79.66-1.36.79l-.4.1c.46.17.07.26.46.17,0,0-.39.09-.06-.27h0l.06.27a2.52,2.52,0,0,1,.84-.48ZM350.46,53l.39-.1Zm.69,3-.06-.27h0Zm-26,66.45.06.28h0Zm27.44-66.3Zm0,0h0c-.1-.45-.33.08-.44-.37l.11.45h0Zm-.09-4.76-1,.23.19.82.06.26.57-.13-.06-.27s-.11-.45-.68-.32c.82-.85,1.13.5,2,0-.1-.46-.5-.37-.1-.46-.4.09-.29.55-1,.23.48-.5.48-.5,1-.23l-.15-.63h0L353,51l-.57.14a1.64,1.64,0,0,0,1,0l-.39.09.08.36S353,51.28,352.46,51.41Zm-5.18,2.07.06.27,1.81-.42c-.17-.72,0,0,.4-.09l-.4.09.4-.09-.06-.27s.62.14.06.27c.56-.13-.06-.27.5-.4-.11-.46-.56.13-.75-.69l.08.36c-.08-.36-.49-.27-.49-.27.24-.81,1-.22.49.27a3.87,3.87,0,0,0,1.22-.66s.5-.4.4-.86l-.57.13L351,51h0l-.11-.45-.57.13a1.69,1.69,0,0,0-.18,1l-.35.08c.07.27-.49.4-.55.13-.11-.45-.21-.91.34-1-.85.68-.69,1.4-1.28,2.69-.06-.27-.06-.27-.73-.59C347.28,53.48,348.3,53.53,347.28,53.48Zm8.29,2.85c-.1-.46-.33.08-.44-.38C354.56,56.08,355.57,56.33,355.57,56.33Zm-4.83-6.42-.56.13h0Zm4.47,4.88-1.3.3.07.28-.07-.28h0l-1.86.43c.06.28.4.2.4.2h0l1-.22h0l-.39.09h0l.39-.09-.39.09.39-.09c-.29.54.11.44.11.44l1-.22h0s.46-.58-.17-.72l.9-.21Zm-4.47-4.88.09.36c.06.27.06.27-.51.4l.57-.13h0l-.15-.63c.34-.08.34-.08.49.55-.07-.27,0,0,.56-.13l-.25-1.09-.57.13h0l-.33.08h0c.33-.08.44.38.44.38C351.16,50.19,351.08,49.83,350.74,49.91Zm-.1-.46h0l-.57.13.11.46C350.07,49.58,350.64,49.45,350.64,49.45Zm-1.31.31c.45.37.1.45.1.45l.35-.08-.1-.45.1.45.4-.09-.11-.46-1.7.4C348.77,49.89,349.43,50.21,349.33,49.76Zm2.22,6.17s.56-.13.5-.41l-.57.13Zm52.52-3.33Zm.76.68Zm-.09-.36.09.36-.09-.36Zm-.56.13Zm8.41,29.48-.11-.45-.57.13.3,1.26C412.1,83,412.67,82.9,412.59,82.53ZM401.16,40.08s-.4.1-.31.46l.31-.46Zm10,38.86a1.35,1.35,0,0,0-.52-.73l.19.81Zm-.52-2.26-.34.08.17.72A1.86,1.86,0,0,0,410.63,76.68Zm1.26,2.86L411.53,78h0c-.38.94.19.81.36,1.54Zm-4.26,23.73ZM401,43.66s.56-.13.5-.4l1-.23.6,2.55h0l.27,1.18c-.57.13-.51.4-.9.49l-.87-3.72Zm1.09,2.14.33-.37-.39.09Zm5.62,57.75Zm-10.63-58.5-.1-.46s-.56.13-.45.59l.55-.13-.1-.46.1.46Zm10.57,58.22h0l.57-.13ZM409,69.7c-.1-.46-.44-.38-.44-.38l-4.3-15.91h0c.57-.13-.29.55.68.33,0,0-.68-.33-.11-.46l.11.46h0l-.57.13.57-.13h0L405,54h0l.1.45h0l.07.27-.57.13.57-.13h0c.29,1.27,1,2.64,1.22,3.73h0l.1.45-.33.08c.33-.08.06.27.06.27s-.06-.27.27-.35l.06.27c-.33.08-.22.53-.22.53h0s-.11-.45.22-.53l.17.73-.33.07h0l.33-.07.19.81c-.42-.28-.42-.28-.52-.74l.1.46.09.36.44.38h0c1.12,4.81,2.91,9.93,4,14.64-.51.41-.51.41-.84.48l-1.52-6.52Zm-3.77-12.12s.63.14.57-.13C405.86,57.72,405.23,57.58,405.23,57.58Zm1.26,2.86-.1-.46-.46.59Zm2,8.61Zm-.44-1.9.33-.08Zm5.14,18c.31-.45-.93-1.41-.43-1.82h0l-.56.13.42,1.82A.29.29,0,0,1,413.2,85.16ZM402.94,49.51Zm.58.73h0l.57-.13-.57.13.57-.13L403.84,49l-.57.13c-.11-.45.46-.58.46-.58l-.06-.27a1.44,1.44,0,0,1-1.07-.23l.28,1.18.39-.1-.39.1h0l.39-.1s-.33.36-.39.1l.06.26h0l.1.46.4-.09h0c.08.36.08.36-.31.45Zm-12.67-4.51.06.27h0l.33-.36Zm12.34,53,2.26-.52-.09-.36c.65.23,1.53-.36,2-.09l2.21-.51a22.53,22.53,0,0,1-2.4-.31l-2.26.53L405,98c-.49.5-.57.14-1.07-.23l-1.87.44C402.49,98.07,402.59,98.52,403.19,98.76ZM390.61,42.92Zm-63.85,80.7h0l-.35.08.35-.08Zm64.87-83.23c.09.36-.48.5-.48.5-.39.09-.33.36-.9.49C391.21,41.16,392.12,41,391.63,40.39Zm-1.52,6.28.4-.1h0l.51-.11-.62-.34C390.51,46.57,390.51,46.57,390.11,46.67ZM330.63,123.1l.11.46h0C331.2,123,330.63,123.1,330.63,123.1ZM394.07,45h0l.63.14h0l-.57.13h0c.11.46.11.46.67.32h0l-.1-.45.1.45-.56.14h0C393.74,45.34,394.13,45.25,394.07,45Zm.06.27.57-.13Zm4.55,28a6.15,6.15,0,0,1,2.71.61C401.22,73.13,399.58,73,398.68,73.25Zm-5.57-28Zm15,57.48Zm-8.5-63.48c-.46.58.1.45.21.91-.57.13-.57.13.06.27C400.2,40.31,399.8,40.12,399.59,39.21ZM398,44.84l1.81-.43a1,1,0,0,1,.22-.81l-2.2.51c.46.18.06.27.46.18l-.4.09Zm-.49-3.9c.14-1.94,2.75-3,3.88-4l.5-.41-.5.41-.07-.27-.9.21h0c-.39.09-.33.36-.9.49l-.06-.27-2.08.77a5.16,5.16,0,0,1-.27,3.21Zm5.41-4.41c-.57.13-1.53.36-.47.59C402.43,37.12,403.4,36.89,402.9,36.53Zm4.79,67Zm6.41-16.31-.34-1.45-1,.23.27,1.18C413.64,87.07,413.7,87.33,414.1,87.24ZM390.57,40.16h0c.39-.09.33-.36.33-.36s1,.06.9-.21a2.12,2.12,0,0,1,1.28,1.13c.1.46,1-.22.78.78-.78-.78-.68-.32,0,0,.8.1.53-1.08,1.49-1.31-.47-.17.9-.21-.15-.63-.51-.36-.32.46-.26.73-.62-.14-1.05-.42-1.44-.33.89.46.25,1.08-.49.49.57-.13-.19-.81-.75-1.45h0l1-.22c.11.45.17.72,1,1,.45-.59-.52-.65-.17-.73l-.1-.45h0l.55-.13.41-.1-.41.1,1.31-.31.67.33c-.67-.33.29-.55.29-.55l.57-.13a6.41,6.41,0,0,0-.27,3.21h0l.09.36-3.74.87h0l-.09-.36c-.39.09-.88.59-1.21.66h0l-.57.14-.08-.37s.56-.13.5-.4l.06.27h0s.09.36.34-.08c-.34.08-.06-.26-.06-.26l-.34.07c.23-.53,1.66-1.34,0-1.62-.19.71-.51-.64-1-.24C391.07,40.52,391.07,40.52,390.57,40.16Zm5.37-1.53-.91.21C395.1,39.11,395.65,39,395.94,38.63Zm-2.5,3.63c.56-.13.56-.13.48-.49C393.92,41.77,393.35,41.9,393.44,42.26Zm-1.75-3.12-.33.07h0l-.57.14C390.9,39.8,391.46,39.67,391.69,39.14ZM404.07,52.6h0l.57-.13c-.57.13-.06-.27-.63-.14h0l-.71-1.27.45.17.11.46h0l.57-.14.08.37h0l.07.28.06.27h0l.1.45h0l-.56.13h0l-.11-.45Zm.51-.4Zm8.41,49Zm2.22,1.11h0c.4-.1.4-.1-.1-.46Zm0,0h0l.4-.1Zm2.47-2.2s-.31,1.22.36,1.54h0l-1.53.35h0l-.33.08h0l-.57.13h0l-.11-.45-.39.09h0l.39-.09-.39.09.39-.09h0l-.06-.28h0l.06.28-.06-.28h0l.57-.13h0l.06.28h0l.34-.08-.34.08c.34-.08.27-.36.84-.49h0A.88.88,0,0,1,417.68,100.08Zm-1.61,1.52Zm0,0,.11.45S416.41,101.52,416.07,101.6Zm.44.37-.1-.45.1.45Zm-.1-.45Zm.67.32Zm-.11-.45Zm-4-.22Zm-88.49,22.5Zm89.91-24.84,3.14-1.12a11.11,11.11,0,0,1-.94,2.14c.27-.64-.23-1-.33-1.45-1-.16-.8.65-1.76.88-.15,2-.8.66-1.53,1.89h0l-.11-.45c-.23-1,.9-.51.73-1.23l-.67-.31.57-.14a1.83,1.83,0,0,1,1,.24Zm2.14.74c.39-.09.33-.36-.06-.27C416.49,99.3,416.88,99.21,416.55,99.57Zm-2,2.38.11.46-.34.08-1,.22-.11-.45h0l-.45.1h0l.45-.1h0c-1.24,1-2.44.27-3.17,1.21l-.4.1h0l.4-.1h0c-.4.1-.51-.36-.51-.36h0l.11.46h0l-.56.13.56-.13-.56.13h0l-2.27.52h0l-.9.21-.4.1h0L400.35,106c-.07-.27-.07-.27-.46-.18.39-.09.22-.82.69-1.4a1.35,1.35,0,0,0-1.14,1.51h0L399,106l.41-.09L399,106h0l.07.27h0l-.56.13-.41-.19.06.27-6,1.41c-.74-.59-1.25-1.24-2.1-.57.39-.09,1.13.51,1.19.78l-1.53.35c-1.46-.42-3.13-1.18-4.19.22.91-.21,1.42.14,2.44.19l-3.12,1.21c-.17-.73-.74-.59-.34-1.46-.91.21-.74.94-1-.23.25-.44,2,0,2-1.34-.72,1-1.37,0-2.34,0,0,0-.1-.45.23-.53l4.25-1,.11.45c-.79.47-1.71-.94-2.25,1.1,1.46-.63,1.86-.72,2.57.27l-.32-1.37.29-.54,7.85-1.83-.23.53a1.24,1.24,0,0,1,.8-.66l1-.23h0l.35-.08.56-.13.4-.09c-.4.09-1,.22-.79,1,.9-.5,1.8-.42,1.64-1.15-.29.55-.4.09-.85.2l4.14-1.43c1,.23,1.4.14,1.86-.44l1.3-.3h0l3.79-.88c.45.37,1.18,1,1.58.87.17.73-1,.22-.71,1.31l1-.22h0c.67.31,1.07.22,1.41-.33h0l.11.45h0l-.45.1c.45-.1.06.28.51.18h0l-.06-.28c.39-.09.86-.67,1-.23h0l.34-.07-.34.07h0l.06.28h0l.34-.08-.34.08Zm-23.49,3.85a2.22,2.22,0,0,0-1.86.43c.67.32.1.45-.05,1.34C389.86,106.55,391.16,106.25,391.05,105.8Zm6.05-1.41Zm0,0c-.46-.19-.07-.28-.46-.19Zm1.38,1.78Zm.38-.86c.41-.1.41-.1.3-.54-2,.07-2.58-.84-3.17.74-.19-.82-.82-1-1.61-.78-.21,1.67-.5.41-1.41.62.36,1.54,3.69,1.53,4.59,1,0,0-.5-.36-.17-.73h0c-.1-.44.38-.94.38-.94-.77,1,1.43,2.06,1.09.6l.41-.1Zm0-1.91.06.27.45-.1-.45.1.45-.1h0S399.3,103.3,398.85,103.4Zm10.63-2.47-.41.09h0Zm-.09,1.46Zm.1.44Zm0,0Zm-.1-.44Zm-.32-1.37-.55.13Zm0,0Zm.24,1Zm.4-.1c-.1-.45-.4.1-.4.1Zm.09.36h0l-.41.1Zm-.09-.36-.4.1.4-.1Zm-.1-.45-.41.09.41-.09Zm-.64-.91h0l.4-.09Zm0,0Zm-.9.21.34-.08h0l-.34.08Zm-.11-.45.35-.08Zm.11.45.34-.08-.34.08Zm.16.72-.06-.27h0l.06.27Zm-.45-.17.06.27Zm.31,1.36h0l.11.45h0Zm-.08-.36h0l-.57.13h0Zm-.74-.6Zm-.06-.27.57-.13h0l-.57.13Zm.36-1c.1.44-.47.57.1.44Zm.33,1.44h0l-.56.14.1.45h0l.57-.13Zm-.56.14Zm.67.32s.29-.55-.11-.46Zm-.11-.46Zm-.8-.87c.57-.13-.1-.44.47-.57h0l-.57.13C407.57,100.43,407.1,101,407.1,101Zm.11.46.06.27C407.84,101.6,407.21,101.46,407.21,101.46Zm-.11-.46Zm.34,1.46-.39.09.39-.09Zm-.5-.36s.11.45.5.36C407.44,102.46,407.34,102,406.94,102.1Zm-.33-1.45Zm.33,1.45Zm-.13-.55-.56.13Zm-.67-.32Zm0,0Zm0,0Zm-3.5,1.87c1.58.11,2.16.83,2.83-.66A5.11,5.11,0,0,0,402.64,103.1Zm1.67.47h0l.39-.09Zm-.51.12Zm-.48-.27Zm-1,.22h0l-.57.14.57-.14h0l.08.37a.38.38,0,0,1,.31-.46h0l-.39.09c.39-.09,0,0,.28-.54l-.39.09.39-.09h0l-.39.09.11.45.39-.09-.39.09Zm.39-.09c.08.36-.31.46-.31.46A.39.39,0,0,0,402.75,103.55Zm.08.36-.39.1.39-.1Zm-.85.67c.56-.13.46-.57.46-.57S401.87,104.14,402,104.58Zm-.36-1.54Zm-.55,1.75Zm.55-1.75Zm1.78.74-1,.23h0c.1.44-.46.57-.46.57l.56-.13h0l-.56.13h0l.06.28c.5-.41.68.32,1.07.23Zm2,0c-.57.14-2.05-.37-1.8.72C404.41,104,405,104.93,405.37,103.79Zm-.1-.44.1.44C405.27,103.35,405.66,103.26,405.27,103.35Zm.5.35Zm.73.6-.56.13h0Zm-.27-1.18Zm.61,1.1h0l-.34.08Zm-.28-1.17Zm.28,1.17Zm0-2.67-.56.13h0Zm.32,1.36Zm.17.73Zm.5.36Zm.57-.13h0l-.57.13.57-.13Zm0,0Zm-.17-.73h0c-.57.13-.67-.32-.11-.45h0l-.08-.36.08.36c-.08-.36-.65-.23-.65-.23l.57-.13h0l-.57.13h0l.09.36-.09-.36-.39.09.39-.09-.31.45h0l.4-.09h0l.1.45h0l-.1-.45h0l-.4.09h0l.11.45-.11-.45h0l.11.45h0l.39-.09c-.39.09.06.28-.33.37h0l.39-.09h0c-.39.09,0,0-.28.54.28-.54.39-.09.39-.09l-.11-.45c.57-.13.57-.13.68.32-.57.13-.68-.32-.57.13l.57-.13h0l-.11-.45h0c-.57.13-.06-.28-.06-.28Zm.1-1.36-.4.09Zm-.46-.18.39-.1h0s-.39.1-.33.37C408.3,101.78,408.23,101.5,407.84,101.6Zm.65,1Zm.1.44Zm0,0,.07.28C409,103.24,408.94,103,408.59,103Zm-.07-1.89s.55-.13.45-.58c.1.45.1.45-.45.58h0l-.11-.45h0c-.34.08-.24.53-.34.08l.1.45h0l.35-.08Zm.42,1.81Zm.37-.93-.47.49Zm-.37.93h0l.55-.13h0Zm1,.06.1.45Zm-.07-.28h0l-.41.09h0c.07.28-.55.13-.49.41l.56-.13h0l-.56.13.56-.13h0L410,103l-.41.09L410,103l-.41.09L410,103c-.41.09-.41.09-.48-.19h0l.41-.09Zm0,0Zm-.1-.45h0l-.41.1.41-.1Zm-.09-.36Zm-.1-.45Zm1.83,1.2-.57.13h0Zm-.17-.73Zm.56.63Zm.57-.13-.57.13.57-.13Zm.22-.81Zm.17.72-.39.09h0l.39-.09Zm-.06-.28Zm0,0,.45-.1Zm1.47,0Zm.34-.08-.34.08h0l.34-.08Zm-1.47-.42-.08-.36h0l.08.36ZM423.75,89l.32,1.36a15.85,15.85,0,0,1-1.75.69c-.23-1,.68-.92,1.25-1l-.06-.27h0a2.6,2.6,0,0,0-2.1.77.73.73,0,0,0,.91.55c-.28.55-1.29.3-1.59.85.23-.81-.17-.72-.73-.59,1.41-.81.86-.68,1.55-1.8.23-.82-.45-.37-.52-.64a2.43,2.43,0,0,1,0-1.62c.4-.1.76,1.44.85-.2.39-.09.56.63,1,0-.37,1,.19.82-.1,2.13C423.25,88.65,423.65,88.55,423.75,89Zm-.33.37h0l-.57.13Zm-.06-.28c-.51.41.06.28.06.28h0ZM413,51l.45-.11,5.63,19.81c-.57.13-.47.59-.77,1,.39-.09.39-.09.3-.45.66.23.57-.13.57-.13h0l.61,2.62a12.45,12.45,0,0,0-3.85,1.66l-2.36-7.57-.1-.45h0L413,65.15c.5-.4.4-.86.23-1.58l-.57.13-1.34-4,.39-.09-.39.09-1.75-7.52,1-.22c-.08-.36-.57.13-1,.22L409,50l-.06-.27c.46.18.06.27.06.27l.4-.09h0c.56-.13.56-.13,1,.24-.17-.72,0,0,.55-.13l-.1-.45h0l.19.81L411,50l.15.64-.06-.28.06.28h0l.06.27h0a2.13,2.13,0,0,1-.19,1.67c.55-.13.49-.4.6-1.76h0l-.06-.27h0l.55-.13.17.72-.17-.72c.07.27.07.27.35-.08l.17.72-.11-.45-.06-.27c.39-.1.46.17.56.63l-.1-.46Zm-3.34,0c.5-.41-.06-.28-.06-.28Zm-.06-.28h0l-.09-.36h0C409.2,50.83,409.6,50.73,409.6,50.73Zm.23,1-.11-.46.11.46Zm-.11-.46Zm0,0Zm.51-.4-.57.13s.57-.13.06.27h0C410.29,51.15,409.66,51,410.23,50.88Zm0,0h0l-.57.13.57-.13-.57.13-.39.09.39-.09ZM411.91,54l-.55.13.55-.13Zm-.55.13Zm.15,2.25c-.06-.27.29-.35.29-.35l-.35.08Zm-.06-.27.35-.08Zm.35-.08-.35.08h0Zm-.44-1.9h0l.55-.13-.55.13Zm-1.13-3.27s.28-.36.35-.08l-.35.08c.41.19.41.19,1,.06-.61-.14-.76-.78-1.11-.7Zm.94,2.45-.35.09h0Zm-.35.09Zm-.17-.73Zm.11.46Zm-.74-.6.57-.13-.57.13Zm0,0c.06.27.06.27.63.14C410.59,52.42,410.59,52.42,410,52.55Zm.17.73.57-.13h0l-.11-.46h0l-1,.22.39-.09h0Zm.73.59c.35-.08,0,0,.44.28h0l-.09-.36h0l-.35.08.35-.08-.35.08c.35-.08-.1-.45-.1-.45.1.45.45.37.1.45l-.56.13ZM412,56.78h0l-.35.08h0ZM414.21,68h0l-.06-.27Zm2.47,6.5-.91.21A.9.9,0,0,0,416.68,74.51Zm-4.66-20,.4-.1-.1-.45Zm.4-.1-.4.1Zm.9,1.32-.56.13ZM416.18,68Zm-2.62-12.86h0l-.35.08.35-.08Zm.33-.37-.4.1c.07.27.4-.1.4-.1-.4.1-.33.37,0,0Zm3.77,12.4-.06-.26Zm2.17,23.39.07.27Zm-.31-1.36c.26-1.4,1.76-.89,1-2.62.8.1,1.08-.73,1.58-.37-.64-1-1.77-.44-2.65.14-.25-1.08-.81-1-1-1.68l-.34.08.33,1.45a1.43,1.43,0,0,0,1,.15c.17.73-.28,1.31-.22,1.58h0l-.35.08.11.45.35-.08.25,1.09a2.76,2.76,0,0,1,.9-.49C420.37,88.55,420.07,89.1,419.52,89.23Zm-3.28.28c-.86.68-.86.68-1.43.81l-.19-.81,1.87-.44c-.17-.72.85-.67.85-.67l-.06-.27c-.39.09-1.4-.16-1.3.3,0,0-.1-.46.23-.54l-.06-.26c-.1-.46.46-.59.77-1l-.39.09a7.4,7.4,0,0,0-3.2,1.6l-.91.21-.1-.45c-.4.09-1.05-.14-1.11-.41-1.3.3-2.42-.68-3.32-.19.11.46.67,1.09,1.18.69.06.27.45.18.54.54l.45-.11s.1.46.5.37c-.11-.46,0,0,.56-.13-.5.4.07.26.4.19h0l.57-.14c.17.73,1.24,1,1.66,1.24h0s.67.33.1.46h0l.38,1.63c.42-.76.65-1.59.25-1.49l.4-.1c.56-.13,1.63.1,1.46-.62C416.34,90,415.78,90.1,416.24,89.51Zm9.3,7.2.11.46c-.39.09-1.36.31-1.29.58-.45.11-.85.2-1-.52.5.36-.19-.82-.25-1.09-.2.72.07,1.89-.72,2.85-.72-.61-1.08-2.15-2.3-1.47.39-.09.39-.09.3-.46l.92-.22-.59-2.53h0l-.17-.73a8,8,0,0,1,4.23-.22l.26,1.09-.07-.27h0l-.39.09-.19-.82.08.37-.56.13.56-.13-.56.13h0c-.29.54-1.24.29-1.42,1.09a6,6,0,0,0,2.65-.14Zm-1.74-3.12.57-.14Zm-1.6,4.66Zm2.95-1.45h0l.39-.09Zm-3.25,2.68h0c-.54-.74-1.5-.51-1.31.3,0,0,.5.36.17.73l1.31-.31-.17-.72Zm-3-.16c0,1.34.76.69,1.26,1-.19-.81.38-.94,1.11-2.17C419.6,98.1,420.13,100.36,418.87,99.32ZM420,74.78l1.59,6.8h0l.75,1.45c-.23.82.34,1.45-.06,1.54-2.6,1.09-4.58,1.07-3.87-2.54-.49.41-.49.41-.84.49L417.23,81c.11.45.45.37.45.37-.27-1.18-.51-.65-.34-1.46.07.28-.28.36-.28.36l-.95-4.08c.9-.21,1.87-.44,2.38.21A1.91,1.91,0,0,1,420,74.78Zm-1.7,6.8.11.45.06.28S418.83,81.93,418.32,81.58ZM420,78.81c.39-.1.5.36.5.36C420.91,78.58,420.34,78.71,420,78.81Zm1,4.17a22.49,22.49,0,0,1,.33-2.94C420.79,80.63,421,81.43,420.92,83Zm-1.47-.9-.16-.72c.1.44.15-.9-.09-.36.19.8-.3,1.21-.2,1.67,0,0,.39-.87.56-.13-.56.13-.56.13-.49.4h0l.1.45c.09.36,0,0,.45-.58.46.37.54.73,1,1.1l.09-1.65C420.19,81.91,419.74,81.72,419.45,82.08Zm-8.34,14.84-.19-.82h0a1.35,1.35,0,0,0,.95.26l-.1-.45,3.66-1.14-.92-1.41c.65.23.65.23.85-.68l.19.82.45,1.9A50.56,50.56,0,0,0,411.11,96.92Zm2.52-1.45Zm-.8.67h0l.34-.08-.34.08ZM411,42.56l.54.26.17.73c-.46.11-.46.11-.35.55l.45-.1.06.27h0l.17.73a.45.45,0,0,0-.34.56l.45-.11.19.82h0c.06.27-.45.11-.39.38h0l.45-.11.11.45h0l.06.27h0l.3,1.28-.46.1c-.1-.45-.1-.45-.39.09l.06.27h0s-.41-.19-.06-.27h0l-.35.08c-.1-.45.24-.53.24-.53-.24.53-.34.08-.43-.28.35-.08.43.28.35-.08l-.11-.46-.34.08-.07-.27c.41.19.81.1.75-.17a1.45,1.45,0,0,0-1.41-.15h0l-.06-.27h0c-.41.09-.34.36-.41.09h0c-.55.13-1-.24-1.4.61l-.07-.27s.07.27.57-.13l-1,.23-.11-.46h0l.11.46h0l-.46-2,.39-.09c-.29.55-.07-.28,0,0,.67.32.91-.21,1.47-.34-.56.13-.45.58.17.72-.06-.27.34-.36.34-.36l-.17-.74s.56-.13.45-.57c-.45.57.45.36.17.72h0l.17.73c.35-.08.28-.35.35-.08l-.35.08c.45.37.74-.18.85.28-.11-.46-.5-.36-.57-.63.4-.1.4-.1.29-.55,0,0-.74.17-.8-.11l.24-.52c-.41-.2-1-.07-1.07-.53l-.19-.8c.66.31.66.31.74.68a.37.37,0,0,0,.27-.45l.19.82c-.11-.46.28-.55.39-.09l-.39.09c.16.72.39-.09.39-.09l-.11-.46Zm-.6,3.3c-.11-.45.56-.13.45-.58l-.56.13Zm1,.15s-.91.21-.8.67C410.22,46.77,411.74,45.56,411.43,46Zm-2.29-1.38s-.45-.37-.35.08C409.14,44.63,409.2,44.91,409.14,44.63Zm-2.05-.29.57-.13-.57.13Zm3.51-3.68c.1.45-.4.09-.4.09h0l.11.45.06.27.33-.36-.1-.45Zm.27,1.18h0a.42.42,0,0,1-.5-.37l.17.74C410.94,42.11,410.87,41.84,410.87,41.84Zm-1.38,61Zm.07-66.61-.5-.36.11.45Zm-6.16.67h0c-.11-.45.06.27.73.59,0,0-.1-.45.23-.53-.06-.27-.4-.19-.5-.64h0l-.07-.27.34-.08c.63.14.06.27.74.59.39-.09-.11-.45-.11-.45h0s-.06-.27.33-.37h0l1-.22h0a3,3,0,0,1,1.54-.07.83.83,0,0,0,.27,1.18c.3-.55-.17-.73.13-1.28l.66.33h0A1.06,1.06,0,0,1,408,37l1.7-.4-.09-.36.26,1.09.69,3,.09.36c-.48-.27-.29.54-.83-.19,0,0,.09.36-.47.49h0l.11.45-.41.1c-.75-.69-.66-.33-.75-.69,0,0,.56-.13-.1-.45-.35.08-1.21.76-.62,1.48.57-.13.38-1,.81-.67,0,0-.24.54.1.46l.07.27h0l-.35.08-.06-.27.16.72-.1-.45-.57.13c-.17-.72-.46-.18-1,.22.57-.13.57-.13.67.33h0l.07.27a.62.62,0,0,1,1.06.23s1,.15.25-.53c.1.45-.42-.2-.42-.2l.42.2c-.42-.2-.42-.2-.07-.28h0l.07.28a2.23,2.23,0,0,0,.79-1h0c.72.61-.13,1.28-.05,1.64-.08-.36.41-.1.11.45l.4-.09L410,44c-.3.54-.41.09-.41.09-.55.13-.06-.28-.62-.15l-.1-.45-.92.21.11.46s.46-.59.56-.14c.07.28.07.28-.5.41,0,0-.39.1-.46-.18l-.1-.46c-.09-.36-.19-.81-.76-.67L405.85,39l-4.12,1s-.57.13-.63-.13C401.79,38.7,402.69,38.2,403.4,36.89ZM407.34,41l-.4.1C407,41.49,407.42,41.4,407.34,41Zm1.84-3.1s.41.19.06.27c.29-.35.68-.44.75-.17-.17-.72-.28-1.18-.67-1.09-.14,1,.1.46.21.91Zm-.24,1.49c-.3.55.17.72-.4.09l-.45.59a1.51,1.51,0,0,0,1,0c-.47-.17.56-.13.9-.21-.9.21,0,0-.41-.19Zm-1.73-1.51.11.46c.34-.08.34-.08.41.19.49-.4.64.23,1,.13l-.08-.36c-.06-.27-.06-.27-.58-.63C408.22,38.16,407.56,37.83,407.21,37.91Zm-.36-1.54c.11.46.46.38.35-.08Zm-.71,1.31h0l.5.37c-.1-.46.81-.67.4-.86C406.47,37.32,404.93,36.82,406.14,37.68Zm-.85.68c.56.63.5.36.56.63.57-.13.4-.85.51-.4l.06.27,1-.22C407.21,37.91,406.25,38.14,405.29,38.36Zm-2.6-.16c.56-.13.56-.13.48-.49C403.17,37.71,402.6,37.84,402.69,38.2Zm1.13.5c.1.46.17.73-.23.82.48.27,1.24-.57,1.8-.7-.21-.91-.56.13-.1-.46-.57.13-.46.59-.57.13l-.11-.45-.33.08.1.45Zm-.26-1.08s-.39.09-.31.45l.07.27-.07-.27c.07.27-.5.4.17.72-.1-.45.11.46.5.37-.21-.91-.1-.46-.5-.37a.42.42,0,0,1,.29-.54Zm1.14-1.79-.57.13.57-.13Zm6.65,11.44c-.55.13-.55.13-.66-.32.28,1.18-.85.68-1.2.76a2.29,2.29,0,0,0,1.37,0l.19.82s-.08-.36.37-1l-.56.13.56-.13Zm-2,2.38h0c-.06-.27,0,0-.45-.18.39-.09.45.18,1-.22l-.51.4c.63.14.51-.4.86-.48l-.11-.46h0c.56-.13.11.46.11.46l.55-.13-.1-.46-.09-.36c-.47.49-1-.24-1-.24l.11.45h0l.08.36c-.46.59-.57.13-1,.23.31-.46.31-.46-.19-.82l.19.82.17.72Zm.15-1.94-.11-.46c-.46.59-1,.23-.85.68l.06.27s.33-.36.39-.09c-.16-.73.57-.13.51-.4Zm-.9.49h0l.11.45Zm2.16.84.41-.1h0S410.65,48.58,410.75,49Zm2.39.49s.08.36-.37.47l-.19-.82c.11.45-.2.91.19.82,0,0,.52.17.58.44h0l-.13-.55Zm-.56-.35.45-.11h0Zm-1.51,1.21.4-.09C411.22,49.21,411,50,411.07,50.39Zm1.51-1.21-.39.09Zm-47,8c-.39.09-.33.36-.39.09C364.71,57.65,365.67,57.42,365.6,57.15Zm1.21-5.06h0l-.4.09.4-.09Zm-1.8.71Zm11.64,47.46c-.57.13-.49.5-1,.23C375.83,101.12,376.73,100.62,376.65,100.26ZM365,52.8h0l-.07-.28-.39.09.39-.09-.39.09Zm-1.16-3.17Zm14.77,53.23c.57-.14.67.32.57-.14l-.07-.27c-.5.41-.56.14-.56.14l.06.27ZM365.51,52.39l.06.28h0c.45-.4,0,0-.06-.28.06.28.51-.12.57.16h0l.4-.09h0c-.4.09-.46-.19-.07-.28l-.9.21Zm-.7-3Zm-.19-.82Zm14.13,56.63c-.56-.63-.39.09-1.07-.51.11.45.11.45-.57.13l.17.72ZM362.08,47.93c.28-.35.62,1.1.45.38h0c.57-.13.57-.13.68.32l-.57.13s.57-.13.46-.58-.57.13-.74-.6C362.43,47.85,362,47.66,362.08,47.93Zm1.41.15h0a.41.41,0,0,1-.28.55l.39-.09Zm-.28.55c.06.27.39-.09.45.18h0l.4-.09h0l-.07-.27h0c-.39.09,0,0,.07.27-.4.09-.07-.27-.46-.18l.39-.09h0l.57-.13-.1-.46a1.8,1.8,0,0,1-.86.68l-.39.09Zm-.86.48.09.36h0Zm2.2,3.5-.39.09Zm-.77-5.07Zm14.62-4.83Zm-14.11,4.43ZM372,50.41l1.87-.43.1.45.41-.09c.45-.11.45-.11.34-.56l3.17-.74.1.46s-.34.07-.27.35l-.57.13c.5-.41.5-.41-.06-.27,0,0-.4.09-.33.37-.17-.74-.17-.74-.74-.61l.17.74s-.4-.2-.34.08h0l-3.68.85h0c-.06-.28-.06-.28-.74-.6l.68.32Zm.17.73.35-.08Zm-9.45,1.91.56-.13h0l-.56.13Zm11.22-6.62.09.36h0Zm-.26.92a3.4,3.4,0,0,0-1.15-.6c.08.37.08.37.75.69l.4-.09Zm1.65-.86-.43-.29c.09.36.09.36-.56.13.08.37.08.37-.31.46h0l.1.45,1.3-.3Zm-1.65.86Zm6.23-5h0l.39-.1h0l-.39.1-.11-.46h0l.11.46Zm-1.39,9.39-.34.08c-.5.41-.57.13-1,.22.07.28-.5.41-.5.41.57-.13.57-.13.67.33,0,0-.5.4.06.27-.06-.27.4-.1.33-.37-.39.1-.39.1-.49-.36.39-.09.49.36,1.06.23l-.1-.45S378.54,52,378.48,51.76ZM383.64,99c.06.27-.35.08-.29.35,0,0,.11.45.45.37C383.35,99.37,383.7,99.29,383.64,99Zm4.2,2.93ZM369.7,51.71h0l-.4.09.4-.09Zm-1.36.31h0l.4-.09-.4.09.4-.09h0c-.07-.28.5-.41-.07-.28h0l.07.28c-.46-.18-.4.09-.4.09l-.06-.27Zm-.63-.14Zm-2.58-3.41-.51.11c.6.25.51-.11.51-.11Zm.4-.1a.39.39,0,0,1-.31.46l.1.45a.41.41,0,0,0,.29-.54h0l-.08-.37Zm40.28,42.71c.35-.08.9-.21.84-.48l-.56.13c-.16-.72.45-.58.86-.68a7.19,7.19,0,0,1-1.13-.5c.11.46.11.46-.18.81C405.64,90.36,406.09,90.73,405.81,91.08ZM370.2,51.3s-.1-.46.23-.53l-.33.07ZM367,48.89l-.34.08c-.11-.46,0,0-.57.13h0l-.39.09.39-.09.91-.21ZM306.7,129.43h0l.11.46c-.57.13-.74-.6-.93-1.41l.57-.13c-.57.13-.1-.46-.67-.33h0l-.06-.27c.56-.13.46-.58.46-.58-.57.13-.46.58-.46.58l-.18-.73a.31.31,0,0,0-.28.36l-.39.09c.11.46.17.73.56.63h0l.35-.08h0l.1.46.36,1.54-.74.17-.27-1.18h0c-.76-.68-.82-.95-1.16-.87l.25,1.08-.56.13h0l-.4.1h0l-.08-.37.08.37h0c.88-.59.31-.46.31-.46l-.39.09c-.11-.45.12-1.27.05-1.54h0l-.1-.45h0l2.21-.52.57-.13h0l1.36-.31c-.4.09-.3.53-.23.81l.1.46h0l.07.27-.57.13a.42.42,0,0,0-.29.55l.4-.1h0C306.93,128.62,307.1,129.34,306.7,129.43Zm-1.47-.42c.39-.09.5.37.1.46l.4-.09s-.11-.46-.5-.37c.39-.09.74-.17.31-.45A.37.37,0,0,0,305.23,129Zm.21-2.44-.74.18c.39-.09.1.44.5.35h0C305.54,127,305.09,126.66,305.44,126.57Zm1.2,2.59c-.57.13.29-.54-.67-.32C306.64,129.16,306.07,129.29,306.64,129.16Zm63-73.42a5.14,5.14,0,0,0,3.5-.34c-.67-.32-.19-.81.16-.89.08.36.64.23.64.23l.41-.1.55-.13c-.08-.36.41-.09.86-.19l-.19-.82a4.28,4.28,0,0,1-1.88.15c-.84.48-2-.3-3.51.05C369.77,53.79,369.37,54.65,369.62,55.74ZM387.7,43.22h0c-.06-.27-.5-.65-1.18-1h0l.11.45C387.3,43,387.64,43,387.7,43.22Zm13.93,55.52-.1-.45-.4.09C401.24,98.84,401.24,98.84,401.63,98.74Zm-94.37,24.35.33-.08c-.33.08-.33.08-.1-.45l-.91.21.57-.13,2.14-.79.17.73h0Zm.9-.21c1-.23.86-.68.29-.55A.42.42,0,0,1,308.16,122.88Zm92.95-26.4h0s-.11-.46.46-.59C401,96,401,96,401.11,96.48ZM387.42,42c.68.32.57-.13.68.32.5.36.39-.09,1-.22.5.36.17.72.65,1-.54-.54,1.78-.8.54-1.75h0l-.06-.27-.09-.36.09.36-.09-.36s.09.36-.39.09l.39-.09-.5-.36h0l.11.45-.43.48L389.2,41l-.39.09c-.68-.32.39-.09.28-.55h0c.51-.11.51-.11.45-.38h0l-.51.11-.1-.45a.42.42,0,0,0-.29.55h0s.29-.55-.11-.46h0l-1,.23c.17.72.28,1.17-.29,1.31.65.23,1-.23,1,.13C387.93,41.64,388,41.91,387.42,42ZM398.5,99.86l.39-.1c-.08-.36-.19-.81-.39.1Zm1.73-1.27h0l.11.46ZM364.22,53h0l-.57.14h0l-.35.08-.55.13h0l.1.44,1.37-.79Zm34.31,45.24c.11.46,1.64.1,1.7.37C400.06,97.87,399.2,98.55,398.53,98.22ZM390.4,39.44h0l-.57.13h0C390.4,39.44,390.5,39.89,390.4,39.44Zm5.94,5,.56-.12-.56.12Zm6.3,31.42s.06.27.61.14c-.06-.27.41-.1.35-.37-.41.1-.52-.36-1.07-.23.55-.13.55-.13.66.33C402.64,75.87,402.53,75.41,402.64,75.87Zm5.33,16c-.56.13-1.07-.23-1.62-.11C406.9,91.69,407.41,92.05,408,91.92Zm-18-51.9-.4.1.4-.1Zm5.26,5.46.35-.08h0Zm.24-.53.56-.13.1.45h0c.3-.55.86-.68.24-.82A1.17,1.17,0,0,1,395.44,45ZM399,97.82h0c-.68-.32-.68-.32-1.07-.23.1.45.5.36.56.63C398.47,98,398.47,98,399,97.82Zm-3.11-53.27-1.29.3A1.15,1.15,0,0,0,395.93,44.55Zm-9.71,2.54h0l.39-.09h0l.57-.13.33-.36c.07.27.63.14.57-.13l.9-.21c.07.27.17.72-.4.85l-2.71.63Zm.5.36h0s.46-.58-.11-.45Zm0,0Zm-5.62,62h0c.57-.13.57-.13.64.15C381.67,109.31,381.67,109.31,381.1,109.44Zm-73.79,18.23h0l-.57.13h0l.57-.13ZM388,102.77l-.68-.32h0a.38.38,0,0,1-.48-.27l-3.29.76-.39.09-3.39.79.08.37-.08-.37-.34.08c.09.36.09.36-.38.95-.58-.72-.5-.36-.89-.27.56.63.5.36.89.27l.07.27c3.33-1.06,6.1-1.7,8.88-2.35Zm-8.75,4.71c.5.36.63.91,1.19.78.34-.08.28-.36.11-1.08Zm-15-57.95c-.11-.45-.5-.36-.11-.45l-.39.09h0c.39-.09-.09-.36.31-.45-.4.09-.4.09-.31.45h0l.1.46h0c-.39.09-.5-.37-.5-.37h0L362.7,49s-.06-.27.51-.4l.06.27h0l.39-.09h0l.4-.09h0c.08.36.65.23.75.68l-1,.23h0Zm0,0ZM364.19,57l-1.52.36Zm-2.4-3.45.55-.13C362.28,53.14,361.72,53.27,361.79,53.55Zm.26-3.22h0l-.06-.27-.11-.46-.3.55s.47.18.41-.09l.06.27Zm19.12,59.39-.07-.28.07.28Zm-73.76,18.4.4-.09a.42.42,0,0,0-.5-.36h0a3.32,3.32,0,0,0-.11,2.13l1-.23-.36-1.54Zm85-26.84h0c-.23.53-1.3.3-1.77,0l-.91.21s-.57.13-.48.49l-.09-.36-.39.09.08.37c-.08-.37-.08-.37-.65-.23l-.33.07h0l.08.37.11.45a17.41,17.41,0,0,0,4.92-1.62s-.09-.37.48-.5C392.86,100.78,392.86,100.78,392.38,101.28ZM398,100c-.08-.36.37-.47.27-.92l-1.42.33C397,99.82,397.56,99.69,398,100Zm2.52-1.45s-.06-.27-.33.08C400.23,98.59,401.63,98.74,400.56,98.51Zm.51-.4a1.72,1.72,0,0,0-1-.24C400.4,97.79,400.4,97.79,401.07,98.11Zm-3.64-.78.09.37Zm-2.22,3.29-.09-.36a.34.34,0,0,1-.25.44Zm-.09-.36a2.47,2.47,0,0,0,1.05.14l-.09-.36-.39.09ZM383.5,47.73l2.27-.53s-1,.22-.86.68l-.35.08h0l-.56.13h0l-4.06,1.24c-.07-.28-.46-.19-.46-.19s-.67-.32-.57.13c0,0,.57-.13.63.15l-.56.13-.07-.28c-.39.09-.5-.36-.39.09l.39-.09.07.28-.4.09-.06-.28s.06.28-.57.14c.57-.14.57-.14.46-.59l1-.22h0l.73-.17.68.32-.11-.46h0l.57-.13h0l.1.46c-.1-.46,0,0,.4-.1.29-.54.39-.09,1-.22l-.11-.45.34-.08-.34.08h0l.34-.08-.34.08h0l.34-.08h0s.67.32.57-.13Zm-.8.66ZM231.36,146.2h0l-.39.09h0l-.42-.28.19.81c-.4.86-.51.4-.4.86l.16.72-.1-.45s-.06-.27-.4.09h0s-.06-.27-.56.13a10,10,0,0,1,0,1.35h0l.33-.08h0l-.9.21h0l-.19-.81h0c-.5-.37-1,.22-.88.58h0l.11.46h0l-.4.09-.9.21-.1-.45.25-.45c-.34.08-.34.08-.45-.37l.2.82c.1.45-.57.13-.26-1.09h0l.34-.08-.44-.38a3.62,3.62,0,0,1,0-1.61l3.79-.89c.11.46-.29.55-.2.91l-.09-.36a.71.71,0,0,1-.9.21c.19.82-.88.59-.71,1.31-.06-.27.5.36.4-.09a2.07,2.07,0,0,0,1.3-1.07l.27,1.18c-.17-.72,0-1.63-.07-2.09l1.87-.43h0Zm-3.28,2c-.57.13-1.24-1-1.7-.37.06.27.74.59.74.59C227.34,147.61,227.68,149.06,228.08,148.21Zm1.21.86c-.08-.36-.36-1.54-.57.13C229.29,149.07,229.46,149.79,229.29,149.07Zm.69-2.93.08.36A3.75,3.75,0,0,0,230,148C229.94,147.77,230.38,145.28,230,146.14Zm112.1-26.08Zm1.05.13c.57-.13.48-.49.48-.49h0S343,119.83,343.13,120.19Zm1,.25h0l-.34.08Zm-.36-1.54,1-.23-.39.09c-.17-.73.22-.82.12-1.26l-.19-.82h0c-.4.09-.21.91.1.45-.2.9-.2.9-.5-.36l.19.82s.11.44-.46.57h0l-.1-.44c.1.44.1.44-.24.52l.07.28.1.45Zm-.17.8Zm-.88.59.4-.1h0Zm-.56.13h0l-.4.09h0Zm14.36-3.34.57-.14h0Zm-15.08.26.11.45h0l.46-.59-.57.14Zm1.59,2.49h0l-.1-.45ZM256.78,76.06V74.54l-.11-.46-.15-.63-.34.08c-.31,1.22-.14,1.94-.48,2.3C256.12,75.74,256.67,75.61,256.78,76.06ZM251,75Zm6.1-1.7,3.12-.72c.45.17,1,0,1-.23l6-1.39h0l.55-.13-.55.13,3.39-.79a1.19,1.19,0,0,0-.31,1.21l.06.27s-.39.1-.23.82l.34-.36.63.14-.57.13.57-.13h0l.1-1.08c.06.27.06.27.63.14-.57.13-.46.59-.4.86a7.87,7.87,0,0,0,.48-2.31l1.42-.81h0l.28-.06.11.45-.85.2.06.27h0l.57-.13c-.57.13-.48.49-.48.49-.09-.36.57-.13.57-.13-.09-.36-.66-.23-.15-.63.06.27,0,0,.28-.07l.06.27c-.28.07-.28.07-.19.43.27-.07.19-.43.84-.2l-.08-.36.08.36c-.08-.36.34-.08-.08-.36l.33-.08a8.51,8.51,0,0,1-.29,2.84l-.08-.36h0c-.85.19,0,0-.2.42-.08-.36-.57.14-.65-.23-.88.59-.2.91.65.23l.11.46-1.53.36-.11-.46h0l.57-.13h0l-1,.22c.11.46,0,0,.39-.09l.11.46-1,.22h0l-.11-.46.11.46h0l-.11-.46c.11.46-.23.54-.23.54h0l-.1-.46s-.57.13-.47.59l-7,1.62-.1-.46c-.76-.68-1.15-.59-.82-1-.4.09-.73.17-.33.36h0c.58.73,1.25,1.05.69,1.18l-5.38,1.25h0s-.66-.32-.75-.69h0l-.1-.45A5,5,0,0,1,257.09,73.32Zm15.93-1,.39-.1.57-.13h0c.28-.06.28-.06.17-.52l.11.46-.11-.46-.28.07.28-.07-.28.07h0A1.38,1.38,0,0,0,273,72.29Zm-.45-1.91c-.08-.36.5.37,0,0-.08-.36.31-.45.4-.09l-.48-.27Zm-2.09,2h0l.1.45c.09.36-.1-.45-.1-.45Zm-1-.05c.73.59.56-.13.56-.13S270.08,72.49,269.46,72.35Zm-.74.94c.45-.59.39-.86.9-.21C269,72,268.61,72.83,268.72,73.29Zm-.27-1.18Zm-.41.09s.51.36.41-.09C268,72.2,268,71.93,268,72.2Zm-.17-.72-.08-.37S267.23,71.24,267.87,71.48Zm-.28,1.31s.56-.13.45-.59c0,0-.62-.14-.56.13.67.33.11.46,0,0Zm-.79.94c-.11-.45.64.24.55-.13l-.1-.45S266.69,73.28,266.8,73.73Zm-1-.24c-.07-.27.56-.13.5-.4C265.71,73.22,265.71,73.22,265.78,73.49Zm-1.45-1.85c.06.26.57-.14.63.13l-.06-.27Zm86.61,46.74Zm4.83-3c.07.28-.23,1.59-.14,2l-2.83.65.57-.13-1,.23-.92.21c.35-.08.35-.08-.08-.36.08.36-.47.49-.47.49l.55-.13-.55.13c-.19-.82-.19-.82-.41.09l-.56.13h0l-.29.07-1,.22c.57-.13.49-.49.38-1h0l-.06-.27.06.27-.57.14c.68.32-.23.53-.33.07l.44.38.46-.59c-.46.59-.38,1-.38,1l-1.19.76c-.67-.32-.67-.32-.57.13h0l-1.86.43h0l-1,.23h0a3.31,3.31,0,0,1,1.81-.9l.57-.14h0l1.3-.3c-.08-.36-.48-.27-.48-.27h0l.29-.54c.11.45-.39.09-1,.22.1.45.67.32.1.45-.33.08-1.1,1.12-1.86.44.57-.13,1.61,0,1.42-.81-.57.13-.85.68-1.53.35l-.29.55-.1-.46.1.46-.56.13a2,2,0,0,1,1.42-.81h0l-.06-.27.39-.09c-.39.09-.5-.36-.56-.64.29-.54.29-.54-.19-.81l.08.36-.19-.81c.36,1.54.27-.64.11.45l.08.36-.56.14a1.09,1.09,0,0,0,.37-1l.33-.37.26,1.09c.1.45-.09-.36.31-1.23l.34-.07c.06.27.73.6.73.6-.67-.33-.1-.46-.17-.74l1.87-.43c-.5.41-.57.13-.73.94-.57.14-1,.23-.88.59-.09-.36.31-.45.88-.59l-.49.5.57-.13-.57.13.11.44c-.11-.44-.11-.44.46-.57.1.44.61,1.1.82-.58l-.17-.73,3.51-.82.06.28-.39.09h0a1.35,1.35,0,0,1-.27,1.4c-.11-.45.8.87.38-.94l-.11-.46h0l.39-.09s.11.46-.28.55c.39-.09.18.81.18.81a2,2,0,0,0,0-1.64l.57-.13.06.28h0l.11.45c-.49.5-.38.94-.61,1.77.4-.09.29-.55.29-.55.11.46.48-2.31.32-1.22l.25,1.09a2.82,2.82,0,0,0-.29,1.31c-.11-.45.25,1.09.56-.13-.56.13-.1-.46-.17-.73h0l.07.27c.1.46.39-.09.22-.81.11.45.68.32.4-.86.17.73.28,1.18-.29,1.31.82,1,.57-.13.82,1,.25-.44,0-1.62.54-1.75l-.06-.28c-.23,1.59.17.73,0,0,.17.73.67-1.49.34,1.46.29-.55.25,1.08.39-.1l-.27-1.17s.5-.42.4-.86h0Zm-9.67,2.25-.3-1.26.11.46-.38.94C346,117.14,345.76,118.72,346.1,117.58Zm.9-.21c-.57.14-.1-.44-.67-.31,0,0-.9.21-.23.52Zm3.41-1.26s.89,1.32.82-.57C351.12,115.09,350.71,114.89,350.41,116.11Zm.83,1c-.56.13-.56.13-.66-.32l.1.45S351.3,117.43,351.24,117.16Zm1,.06-.07-.27-.56.13s-.11-.45-.29.35h0l.11.46s.19.81.24-.54h0l.19.82S351.94,118.62,352.22,117.22Zm.5.36c-.11-.45-.28-1.18-.17-.72C352.32,117.67,352.51,118.49,352.72,117.58ZM191.52,90h0C191.06,90.59,191.79,91.18,191.52,90Zm5.09-1.19Zm52.65-12.53-.11-.46a3.28,3.28,0,0,1,0,1.53C249.26,77.81,249.32,76.56,249.26,76.29Zm92.82,43.77h0c.46-.59.46-.59-.17-.73ZM211.88,146h0c-.09-.37-.15-.64.36-.76-.51.12-.62-.34-.51.12l-.35.08.15.64Zm-.61-1Zm1,.26-.17-.73h0l-.86.2.06.27C211.62,144.86,211.62,144.86,212.24,145.2Zm.82,2h0l-.85.19h0Zm-.67-1.37-.26-1.1a1.1,1.1,0,0,1-.25,1.22Zm-9.43,1.8h0l-.06-.27S202.23,147.05,203,147.64Zm1.83,2,.08.36.57-.13C205.36,149.48,204.79,149.61,204.79,149.61Zm2.72-1.11-.06-.28-.34.08.06.28h0l-.06-.28-1.92.45-1.47.34.06.28.11.45a.42.42,0,0,0-.5-.36l.1.45.4-.09.56-.13c.8-.67.91-.21,1.3-.3a1.45,1.45,0,0,0,.86-.68l.1.45C207.28,149,207.17,148.58,207.51,148.5Zm-4.71-1.59Zm7.25-7.22c0-1.45.17.72.2-.71.15.63.25,1.08.76,1l-.16-.72h0c-.51.12-.51.12-.15-.64h0a.91.91,0,0,0-.3,1c-.38-1.64-.56-.83-.5-.55l.26,1.08Zm-1.41-3.5c.17.72.84,1.05.92,1.41-.08-.36.16-.9.1-1.17l-1.29-5.53s-.34.08-.28.36a5.49,5.49,0,0,1,.09-1.17l-.1-.45-.24.53.19.81-.19-.81h0s-.49.5-.38.94h0l.06.28h0l.59,2.53s-.06-.26.51-.4a3.28,3.28,0,0,1-.3,1.32l.15.63c.21-1.68.17.72.67.32C209.21,136.06,209.31,136.51,208.64,136.19ZM201.08,125a13,13,0,0,1-4,1.42h0a1.68,1.68,0,0,1,.06-1.26l-.08-.36h0c-.4-.19-.4-.19-.53-2.26,0,0,.13,2.07.19,2.34l-.52-2.27c.33-.07.33-.07-.07-.27l-5-17.27,1.3-.3a1.89,1.89,0,0,0-1.57-.88l-.57-2.45c-.11-.45-.11-.45.22-.82-.06-.26-.17-.72-.45-.17l-1.59-6.81a2.84,2.84,0,0,1,2.2-3.37l.33-.08.17.72c0,1.35-.67-1.37-.61,1.48.17.73.8-.66,1.28-1.16a1.53,1.53,0,0,1,.12-1.27l.57-.13c.17.73.53,2.27.56.63l-.17-.72h0l2.77-.64h0c.57-.14.74.59.57-.14l.4-.09h0s0,1.63.16.73l-.16-.73,4.18-1.26c-.5.41-.4.86-.79,1,0,0-.67-.32-.9.21.4.19.4.19,1,.06l-.56.13.56-.13h0c.11.46.19.82,1.26,1,.2-.91-.11-.46.43-1.44-.39-.19-.89-.56-1-.83l1.87-.43h0l.17.72-.57.14.63.13h0c.58.73-.1,2.13.53,2.28l1.06-1.31c-1.4-.15-.92-1.41-1.65-1.24l.39-.09c-.27-1.18-.33.36-.56-.63l.39-.09c.17.72.06.27.34-.08l4.75-1.1-.4.09.07.27h0c.1.45-.4.85-.4.85.56-.13,1-.22,1.06.23h0c.36,1.54.93,1.41.92-.21l.45-.58c-.56.13-1.07-.52-1.13-.79h0l-.57.14h0l11.44-3.15.27,1.18-.27-1.18.56-.13.16.73c.29-.35.35-.08.74-.94l.4-.09h0l3.28-.76.17.72-.17-.72h0l.4-.09c.1.45.1.45.56-.14l.4-.09h0l1.47-.34h0l2.26-.53.33,1.45c.34-1.12.41-.85.24-1.58l.1.46-.1-.46.39-.09c-.22.82.11.45.11.45l.33,1.45c.4-.85.57-.13.74-.93.13-1.27-.11-.46-.28-1.18l.41-.09h0l.55-.13h0l.11.45-.11-.45,1.88-.44h0l.85-.2h0s.1.46.39-.09l-.39.09,2.17-.89.19.82c-.1-.45.46-.58.38-1l1.3-.3c.75.69,1.95,1.46,2,1.91a11.35,11.35,0,0,1,.38-2.48l.39-.09c.19.82.82,1,1.05.14l-.09-.36.92-.21.42,1.81c.33-1.13.22-1.58.54-2h0c.42.29.53.74.42,1.81a9.11,9.11,0,0,0,.48-2l1.36-.31a1,1,0,0,0,.82,1h0c-.57.13-.63-.14-.57.13a.51.51,0,0,0,.68.33h0c.16.72.58,1,.73-.65l.47,2c.06.27-.19-.82-.19-.82V76.29c.63.13.9,1.31,1.49,2A7.06,7.06,0,0,1,251,75h0c0,1.91.19.82.51-.12l.39-.09c.5,3.9,2.65,2.92,2.92-.29.56-.13.3,3.08.52,2.26l.57-.13.11.46.46.17-8.37,2c.5-.4-.06-.27-.06-.27-.5-.36,0,0-.4.09l.46.18h0c-.4.09-.46-.18-.46-.18l.06.27-.06-.27s-.51-.36-.19-.82l-.4.1s-.11-.46-.56.13c0,0,.08.36.64.23.11.46.11.46.57.63L242,80.64l-.34.08h0l-.56.13-.4.09h0l-5,1.65h0c-.17-.72-.64-2.72-1,.22l-7.86,1.83h0s-.11-.45-.39.1l-3.28.76L223.1,85c-.17-.72-.23.83-.4.1l-.45.58h0c-.34.38-.52-.36-1,.23l-5,1.45c-.06-.28.5-.41.4-.87-.17-.72-.74-.59-.86.68l.07.28h0l-.17-.73h0c-.47.58-.47.58-.4.86h0c-.07-.28-.07-.28.4-.86-.47.58-.74-.6-.74.94h0a1.28,1.28,0,0,0,.11-1.08s-.11-.46-.28.35h0a7.89,7.89,0,0,0-.19-2.35,4,4,0,0,1-.37,2.48l.17.73-.4.09-.17-.73c.11.45-.17-.72-.4.86l-1,.23-.34-1.46c.49-.49.57-.13.38-.95.06-1.54-.73-.59-.27,1.41.38-1,0,0,.23,1l-.33.08c-.07-.28.16-.81.1-1.08-.17.8-.57,1.66-.27.34.08-1.16.27-.34-.09-1.88-.17-.73-.1-.46.06.27h0c-.33.07-.23.53-.6,1.48,0,0,.63.13.56-.14.07.27-.4.86-.33,1.14l-8.2,1.91h0l-10.71,3,7.59,28.24-.39.1c1-.23,0,0,.5.36l.35,1.54-.39.09.39-.09Zm47.75-46.66Zm-8.26,1.93c.57.63.5.36,1.07.23C241,80.12,240.68,80.67,240.57,80.22Zm-.56.13s.67.32.56-.13ZM238.75,79c.56-.13.1.45.67.32C239.65,78.81,239.65,78.81,238.75,79Zm-.57-.63h0l.4-.1Zm-1.42.81.57-.14h0Zm-11.91,5.44s.11.45.57-.13h0Zm-14.31,3c.17.73.45-.1.66-1C211.09,86.22,210.7,86.31,210.54,87.68Zm-5.39-.08c.5.36.29,1.27.75,1.45.84-.48,1.41-.61,1.7-1.16l.56-.13C206.45,87.3,206.11,85.85,205.15,87.6Zm-6.55,2.86a1.41,1.41,0,0,1,1.09-.73l-.34.08h0l-.51.12-.35.08C198.84,89.93,198.6,90.46,198.6,90.46ZM189.87,98c.63.14.27-1.4.38-2.48C189.91,95.63,189.68,97.22,189.87,98Zm1.1,2.13s-.3-1.27-.51.4C191,100.44,191.2,101.17,191,100.17Zm-.72-3.08.34-.08C190.51,92.34,190.82,95.42,190.25,97.09Zm1.28,4c.34-1.13.4-.86.15-1.94-.1-.46-.38.95-.48.49C191.28,101.53,191.53,101.09,191.53,101.09Zm6.41,23.17-.36-1.54c0,1.9-.31.45-.46,2.39.28,1.18.74.59.74.59A2.6,2.6,0,0,0,197.94,124.26Zm-.39-4.22-.35-1.54,0,2.4C197.66,120.5,197.35,121.71,197.55,120Zm.64,5.3.9-.21.57-.13S198.65,124.76,198.19,125.34Zm-5.62-19.8c.63.13,1.86,1.09,2.6.15C195.39,104.88,193.34,104.49,192.57,105.54Zm-.38-14.45c-.11-.45-.17-.72-.11-.45a4.52,4.52,0,0,0,.07,2.08C191.88,91.55,192.15,92.72,192.19,91.09Zm7.4,29.24c-.06-.27-.06-.27-.57.13C199.13,120.92,199.28,121.56,199.59,120.33Zm139.75.75.11.45-2.16.5-.1-.45.39-.1-.39.1-.09-.37h0l-.1-.45h0l.39-.09-.39.09.39-.09-.39.09c-.07-.27-.07-.27.16-1.09h0l-.11-.45.86-.2c-.29.07-.29.07-.19.51.07.28.53.94.75-.64h0l.34-.08a5.2,5.2,0,0,0-.07,1.26,3,3,0,0,0,.07-1.26l.56-.13.1.45.41-.1c-.41.1-.34.37-.62,1.68h0l.08.37Zm-1.16-.88s.56-.13.45-.58Zm.56-.13-.56.13h0l.56-.13Zm-.56.13h0l.56-.13-.56.13.56-.13Zm-.22.34.29-.07Zm0,0Zm-.57.13.57-.13Zm.67.32-.1-.45-.57.13.11.45.56-.13-.1-.45Zm.19-.52-.29.07h0l-.57.13.57-.13h0Zm0,0Zm-.07-.27h0l.07.27Zm.62.14Zm.46.37c-.46-.37-.11-.45-.46-.37C339.15,120.26,338.91,120.79,339.26,120.71Zm3,.16-1.86.44h0l-.41.09h0l-.19-.82c.41-.09.09.37.19.82.22-.91.3-.55.3-.55-.25-1.09-.42-1.82,0-2.39l-.08-.36h0l-.11-.46.11.46-.11-.46.35-.08h0l.57-.13h0l.39-.09h0s.11.45-.29.54l-.57.13c.57-.13.66.23.26,1.09h0c-.25.54-.18.81-.52-.64-.22,1.57-.28,1.3,0,2.39-.08-.36-.08-.36.47-.49h0l.09.36-.56.13.56-.13.1.46-.1-.46h0l-.09-.36.35-.08-.35.08-.1-.45a1.1,1.1,0,0,1,1.1.6h0l.11.45Zm-.58-.72c-.57.13-.48.49-.48.49l-.35.08.35-.08-.35.08.35-.08h0S341.77,120.51,341.69,120.15Zm-.74-.6.07.27s.56-.13.67.33a1.29,1.29,0,0,0,.22-.82c-.5-.36-.5-.36-1.06-.23ZM211.6,142.48h0l-.06-.27ZM206.74,128l.57-.13.43.28-.36-1.54-.35.08c-.63-.14-.06-.27.29-.35h0l-.3-1.27c-.24.53-.24.53-.51-.64l.34-.09-.57-.91-1,.23a4.19,4.19,0,0,1,.9,2.08l-.1-.46-.17-.72.27,1.18.09.36h0Zm4.29,14.3c-.1-.46-.1-.46.34-.85l-.61-.33ZM200.72,94.18h0c.11.45.19.81.11.45l-.11-.45-2.72.63c.46,2,2.78,12,5.75,22.16h0l.11.46,1.35,5.8.39-.09-.08-.36c.23-1.58.57-.13.57-.13l.08.36h0l-1-4.26c.06.27-.51.4-.17-.73l-.19-.81-6.07-21.72,2.16-.5Zm156.77,22.67h0l-.08-.36S357,116.58,357.49,116.85ZM215,87.7h0l-.06-.28ZM252,136Zm-.24.73-6.85,1.59h0c.27,1.17.1.45-.46.58l-.11-.44-.39.09.21.9a40,40,0,0,0,7.13-2.14C251.85,137.13,251.75,136.68,251.75,136.68Zm.39-.09-.39.09.1.45h0C252.24,137,252.14,136.59,252.14,136.59Zm5.59-56.44.34-.08h0Zm-.35-3.08-.07-.27h0ZM270.16,132l-8.71,2c.08.37.08.37-.57.13h0l-2.26.53.19.82,11.54-2.69Zm-13.3-55.57a.88.88,0,0,1-.39.85l.56-.13ZM202.44,94.64l-.19-.82-1,.22.19.82h0Zm12.41,51.57-.39.09h0Zm.91-.21Zm42.87-66.06h0l-.56.13h0Zm-38.24,68.81-.08-.36-1,.22a1.09,1.09,0,0,0-.37.95h0C219.63,148.07,219.63,148.07,220.39,148.75Zm3.94-1.78h0l.11.46.08.36Zm-4.55-2.38Zm4.41-.27h0l-.16-.72-.46.1.17.73h0Zm-.45.11ZM236.3,85.14l.17.72h0l-.07-.27-.1-.45ZM368,114ZM273.73,69.73l-.06-.27h0l.06.27Zm.14,1.88Zm-2.15-.55h0l-.11-.45-.56.13.56-.13h0l-.14-.63h0l-.32,1.21Zm97.79,42.61Zm-12,3.18.57-.13-.09-.36S357.41,116.49,357.49,116.85Zm-141,34.82s.08.36.65.23l-.25-1.09s.06.27-.51.4c-.06-.27-.06-.27.51-.4l-.57.13.06.27c.11.46,0,0-.06-.27L216,151l-.39.09c.46.18.79.1.9.56-.11-.46-.11-.46.46-.59l.1.46Zm143.84-35.48Zm6.37-1.86.08.36h0l-.08-.36ZM274.63,69.52l-.06-.27.06.27Zm-12.55,9.32Zm.46-.57.1.44.57-.13Zm11-9.26.11.45-.11-.45ZM261.47,79.28Zm10.21-5.82Zm-11.17,6Zm13.66-6.62.84-.2-.1-.45A1.08,1.08,0,0,0,274.17,72.88Zm-1.64-.1Zm87.79,43.41ZM216.56,152l-.33.08c.33-.08,0,0-.09-.36-.31.45-1,.22-1.35.31-.57.13-.49.49-.32,1.22h0c-.06-.27.4-.86.32-1.22l.08.36h0l.17.73h0l2.26-.53c-.07-.27-.17-.72-.74-.59Zm3.5-.34c-.29-1.27-.19-.81,0-1.63h0l-.4.09s.07.27-.31,1.22c0,0-.09-.36.1.46l.57-.14h0a1.68,1.68,0,0,0,.1-1.36C220.26,150.79,220,151.24,220.06,151.69Zm-2.26.53.06.27-.06-.27h0l-.5.4h0l1-.22-.06-.27Zm12.79-3.45h0c.27,1.17-.09-.37,0,0h0l-.4.09.11.45s-.57.13-.67-.32l.1.45h0l1.53-.35C231.16,148.63,231.07,148.27,230.59,148.77Zm-12.39,3.36h0l.06.27,1.3-.3-.07-.27C219.16,152.19,218.43,151.6,218.2,152.13Zm6.13-5.16.19.82.46-.11s.1.46.5.37c-.3-1.27,0,0-.11-.46l.11.46.06.27a2.14,2.14,0,0,0,.21-1.68Zm1.31,1.8-.39.09.36,1.54a4.39,4.39,0,0,0,.1-1.36l-.07-.27ZM203,147.64l.4-.09-.17-.73h0l.1.46h0Zm22,2.05c.08.36.08.36-.32.46h0l.1.45h0c.41-.09.41-.09.3-.55l.11.46h0l-.11-.46h0l.45-.1-.08-.36-.45.1Zm-.32.46s.1.45-.45.58l-.19-.81-.35.08.35-.08-.17-.73c-.11-.45-.11-.45-.45-.37h0l-.57.13c.27,1.18-.17-.72-.29.55h0l-.11-.46c-.63-.14-.63-.14-1,.22h0l.4-.09-.29.55.17.72-.11-.45-.57.13a1.54,1.54,0,0,0-.14.9c.17.72-.4.85-.47.58l.47-.58-.26-1.09h0a2.12,2.12,0,0,0-.21,1.67l.07.27.9-.21-.17-.72.17.72h0c-.06-.27.4-.85.4-.85l.17.72,2.21-.8h0c.55-.13.45-.58.45-.58Zm-13,3.49h0c-.4.09-.34.36-.34.36l1-.22h0C212.25,153.51,211.69,153.64,211.69,153.64Zm1.58-1.71.1.46s.7.7.74-.65l-.33.08Zm-3.84,2.24.06.27,1-.23c-.57.14-.63-.13-.63-.13Zm3.6-1.7.08.36Zm-2.24,1.67Zm-1.16-.88c.46-.59.57-.13.9-.21l-.9.21h0a1.11,1.11,0,0,1,.76.68c-.11-.45.9-.21.14-.89l.57-.13c.59.72,0,0-.57.13l.66.23h0a4.31,4.31,0,0,0,1.73-1.26c-1,.22-2,.17-3.46.52Zm4.44-.17Zm-.51.12Zm-4.32.14c.39-.09.29-.54.22-.81l-.39.09.17.72Zm49.49-12.28a1.51,1.51,0,0,0,.6,1l.55-.13c-.08-.36-.64-.23-.64-.23S258.9,141.8,258.73,141.07Zm.18-.8c-.35.08-.29.35.16.72Zm-1,1.75,1-.22c-.68-.32-.17-.73-.85-1.05C257.77,141.3,257.77,141.3,257.93,142Zm-2.74,1-.08-.36.08.36Zm-24.29,4.51s-.5.4-.4.85h0Zm30-7,.56-.13-.56.13Zm-1.31.3s.41-.09-.1-.45C259.46,140.14,258.91,140.27,259.63,140.86Zm.74-.17Zm-.27.35c.19.82.44.38.33-.08C260,140.77,260.1,141,260.1,141Zm-.3.55-.11-.46S259.14,141.26,259.8,141.59Zm77.39-20h0l-.19-.82.1.45-.1-.45h0Zm-.19-.82ZM236.29,147.92l-1.46.34h0l-1.31.3a8.88,8.88,0,0,1,0-1.62c.25,1.09,1-.22,1,.05a4.61,4.61,0,0,0,0-2.4h0s.11.46.46.38l-.11-.46h0l.56-.13a1.85,1.85,0,0,1-.26,1.4C235.83,145.92,236,146.65,236.29,147.92Zm-.19-.82c-.66-.32-1.87.44-1.78.8C235.2,147.31,235.63,147.59,236.1,147.1Zm-5-.09c.11.46-.06,1.26.13,2.08l.34-.08-.11-.45h0l-.08-.37-.11-.45s-.06-.27.33-.36C231.24,147.47,231.3,147.74,231.13,147Zm106.06-25.43h0l-.46.58.56-.13-.1-.45Zm-5.91.22Zm-97.89,24.69c-.06-.27.4-.86.21-1.67.3,1.27.41-.1.47,2,.4-.09.79-.95.49-2.22l-1,.23h0l-1.47.34.11.45h0l.19.82c-.11-.45-.11-.45.37-1,.09.36.26,1.09.23-.53a19.5,19.5,0,0,0,.13,2.07c.07.27-.4.86-.31,1.22.27,1.18-.09-.36,0,0l-.26-1.09c-.14,1.18,0,1.64-.6,1.77l1.53-.36-.46-2C233,145,233.14,145.4,233.39,146.49Zm28.8-6.7c.67.32,0,0,.11.45h0l.56-.13S262.76,139.66,262.19,139.79ZM224.8,149l.06.27.45-.11-.06-.27Zm-26.21-21.91c-.39.09-.39.09-.29.55A.42.42,0,0,0,198.59,127.06Zm74,11.07.1.46Zm-73.9-10.61.08.36Zm.9-.21,1.53-.36c-1,.22-1.07-.23-1.64-.1C200.17,127.17,199.6,127.31,199.6,127.31Zm1.25-1.54.11.46.39-.1-.1-.45Zm-1.25,1.54c-.11-.46-1.07-.52-.9.21C199.16,126.93,199.26,127.38,199.6,127.31Zm-2.2.51h0l.9-.21C197.63,127.28,197.63,127.28,197.4,127.82Zm139.26-8.51c-.29,1.31-.23,1.58-.63,1.67h0l.11.46h0L336,121h0l-.33.08h0l-1.14.27.57-.14-.57.14h0l1.14-.27.1.46s-.1-.46-.67-.33c.67.33.11.46.11.46l.56-.13h0l-.56.13h0l-.57.13h0l.57-.13h0s-.57.13-.49.49c.57-.13.49-.49,1.05-.62h0l.19.81-.56.14h0l-.57.13h0l-.73.17h0l-1.92.44-.11-.45a3.89,3.89,0,0,1,0-1.91,20.48,20.48,0,0,0,.14,2.36h0l-.57.14-.11-.46c.17.73.57-.13.38-1,.11.46-.06-.27-.57.13h0l.11.46h0l.08.36.11.46-.34.07-.29-1.27s.27-.35.33-.08l-.06-.27.57-.13-.57.13h0l.57-.13h0l-.57.13h0l-.11-.45.11.45-.11-.45h0c.57-.13,0,0-.06-.28l.57-.13h0l-.57.13.57-.13h0l-.57.13.57-.13-.11-.45-.56.14h0l.56-.14h0c-.56.14,0,0-.08-.36h0l.08.36-.08-.36-.57.13s.65.23.09.37h0l-.09-.37.57-.13h0l-.57.13h0s.57-.13.46-.58l1-.23c.11.46-.46.59-.37,1,.56-.13.56-.13.48-.49l-.11-.46,2.26-.52h0l1.3-.3c.11.45-.2.91.3,1.26.46-.58.46-.58.85-.67h0Zm-4.13,1Zm.11.45h0l.06.28Zm.06.28Zm0,0,.4-.1h0C332.7,121,332.64,120.72,332.7,121Zm-.06-.28Zm-.11-.45.11.45Zm-.43,2.49.39-.09Zm.11.45Zm.39-.09-.39.09Zm0,0h0l-.39.09.39-.09Zm-.36-1.54Zm.82,1Zm.14-1.18-.39.09h0Zm0,0-.39.09c.39-.09-.11-.45-.11-.45l.11.45h0l.39-.09-.39.09Zm-.27-1.18h0l-.4.09.4-.09Zm-.09-.36Zm3,.44Zm-.34.08-.57.13.91-.21Zm-.57.13Zm.4-.86Zm-1.13.27h0l.56-.13Zm.27,1.18-.39.09.39-.09Zm-.33.36.39-.09h0l-.39.09h0l-.34.08.34-.08-.34.08.34-.08h0l.39-.09Zm-.34.08.34-.08Zm.17-.81Zm-.06-.28-.34.08Zm.45.19-.39.09c.39-.09.11.46.11.46l.28-.55.11.46Zm-.06-.28-.39.09Zm-.33.37h0l.39-.09-.39.09Zm-.23.54.34-.08h0Zm.4.19c.33-.36.33-.36-.06-.27l-.34.08h0l.06.27.34-.08c-.06-.27-.34.08-.4-.19h0c.34-.08.4.19.34-.08h0Zm-.06-.27h0l-.34.08Zm.39-.09-.39.09h0Zm-.73.17h0l.34-.08Zm.46-1.35-.29.53h0l.39-.09-.39.09.39-.09Zm-.4.09h0s.4-.09.11.44c-.11-.44,0,0,.39-.09-.1-.44-.5-.35-.1-.44l-.4.09h0l-.33.08s-.57.13.1.44C333.5,120.05,333.6,120.49,333.83,120Zm-.17.8.34-.08Zm.62,1.1-.34.08Zm.39-.09c-.39.09.08.36.08.36Zm.19.82.57-.13-.57.13Zm-.19-.82h0c-.39.09-.5-.36-.11-.45l-.39.09c.11.45-.23.53-.23.53l.34-.08h0l.39-.09h0l.57-.13-.57.13Zm-.34-1.46Zm.57-.13c.06.28-.51.41.06.28-.57.13-.06-.28,0,0,.5-.41-.06-.28-.06-.28h0c-.51.41,0,0-.57.13C334.33,120.32,334.39,120.6,334.9,120.19Zm-.51.41.57-.13h0Zm.11.46.57-.14h0Zm.57-.14h0l-.57.14Zm.06.27Zm.51-.4-.57.13Zm.39.19-.39-.19h0C335.7,121.06,335.7,121.06,336,121Zm0,0Zm-.06-.27h0l.06.27h0c.34-.36-.06-.27-.06-.27Zm-136,5.74-.9.21C199.49,126.85,200.06,126.72,200,126.45Zm-2.18,1.65s.57-.13.48-.49C198.3,127.61,197.73,127.74,197.82,128.1Zm5.57,21.36-.07-.28h0ZM203,146.1l.17.72h0c-.06-.27.5-.4.4-.85Zm1,4.53a.4.4,0,0,0-.49-.35h0l.1.44Zm3.55-1.68-.34.08.34-.08Zm-3.86-2.26h0c-.47.59-.4.86-.4.86l.9-.21.5-.4h0l-.1-.46Zm2,0-.11-.45-.57.13c.11.45.17.72-.22.82l1-.23Zm1,0h0l.34-.08h0l-.17-.72-.34.07.17.73Zm-.74-.59c.11.45.17.72-.22.81l.39-.09-.17-.72Zm2,8.61.57-.13h0l-.57.13Zm1.41-.61.06.27h0l-.06-.27Zm53.43-14.06h0l-.56.13.06.27c.67.33.57-.13.5-.4Zm-57.35,12.58.27-1.4c-.57.13-.57.13-.8.66a1.41,1.41,0,0,1-1.07-.23l.3,1.27,1.86-.43C206,152.11,206,152.11,205.51,152.69Zm2.55-.31a5.56,5.56,0,0,0-2,.18,1.69,1.69,0,0,1,.1-1.36c-.29.54-.39.09-.39.09l1-.22.39-.1-.39.1,1-.23h0l.11.46c-.38.95.08.36,0,0,0,0,.33-.08.23-.54l.1.46,5.22-1.21h0l3.16-.74.25,1.09-.57.13a.89.89,0,0,0,.4-.86c-.29,1.31-.25-1.08-.56.13l.16.73c-.06-.27-.06-.27-.4-.19h0l-.1-.46h0c-.4.09-.4.09-.29.55h0a.5.5,0,0,0-.67-.32c.1.45-2.05,1-1.81.42-.92.21-2,.07-2.27.52l.39-.09c-.28.55-1,.23-.85.68l4.25-1,.06.27-.57.13s-.06-.27-.33.08l.33-.08.11.46-4,.93-.57.14c.57-.14.57-.14.46-.59.11.45.11.45-.46.59l-1,.22h0C208.17,152.84,208.17,152.84,208.06,152.38Zm4.79-2.26s.59.25.51-.11h0Zm-9.46-.66-.07-.28h0Zm5.36,4.39s.11.45.68.32l-.11-.46h0Zm.11.45h0l-.27.35h0l.33-.08-.06-.27Zm6.15-3.05.57-.14-.57.14c-.1-.46.46-.59.46-.59l-1,.22h0l.11.46h0C215.07,151.51,215,151.25,215,151.25Zm-12.21-4.34h0l.39-.09-.17-.72-.39.09c.1.46.1.46-.47.59l.07.27.57-.14Zm60.46-6.61c.51-.12.62.34.51-.12l-.06-.26C263.2,140,263.2,140,263.26,140.3Zm9.83-2.57.41-.09c-.11-.46-.17-.73-.58-.63C273.5,137.64,273,137.28,273.09,137.73Zm-10.33,1.93.1.45h0Zm-59.8,8-.56.13.56-.13Zm71.21-9.4Zm14.26-4.08c-.57.14-.51.41-.51.41l.57-.14Zm-87.74-4.72Zm1.37,16.88-1.44-6.16c.38-.95.21-1.67.25-3.31a6.7,6.7,0,0,0-.71,1.31h0l.11.46.06.27.1.45h0l-.59-2.53a13.21,13.21,0,0,1,0-2.4l-.11-.45c-.06-.27-.23-1-.57.13l.3,1.27-.11-.45.34,1.44-2.26-8.17s.34-.08.44.38h0l.57-.14c.4-.09.86-.68,1.76-.89-.57.14-.46.59-.4.86.51-.4.3,2.8.36,3.08a5.24,5.24,0,0,0-.19-2.35l.57-.13a5.54,5.54,0,0,0-.21,1.68,1.39,1.39,0,0,1,.31-1.23h0l.09.36c-.3,1.31-.23,1.59.34,1.46l-.24-1c.07.27.17.72.29-.55h0l-.08-.36.57-.14s-.11-.44-.68-.31h0l-.39.09-.06-.28c-.11-.45-.28-1.18,0,0-.11-.45,0,0,.06.28h0l-.57.13a1.92,1.92,0,0,0,.23-1.59h0c.31-.45.31-.45,1.27-.67-.1-.46-.39.09-.39.09-.11-.46.22-.82.29-.55h0l.1.46h0l.61,2.62.11.46.8.87c-.46.59-.38.95-.38.95l-.29.54.17.73h0c-.21,1.67.36,1.54,0,0h0c.29-.55,0-1.63.23-.83l.46-.57.34,1.45-.57.13a9.75,9.75,0,0,0,.13,2.35,1.74,1.74,0,0,0,.23-.81c-.12,1.27.73.59,0,1.9a5,5,0,0,1,.7-1.31l1.38,5.89.16.73h0l.62,2.63.1.45h0l.57.92c-.34.07-.34.07-.4-.2-.11-.45-.11-.45-.67-.32h0a.42.42,0,0,1-.29.55l.39-.09h0c.06.27.06.27-.33.36-.06-.27,0,0-.57.13l-.06-.27.06.27h0l-.06-.27.57-.13h0l-.11-.46h0l-.46.59h0l-.39.09a1.69,1.69,0,0,0-.84.48l-.17-.72c.33-.08.33-.08.84-.48l-.91.21-.1-.46.1.46-.5.4.57-.13h0l-1,.22h0Zm1-11.21a12.57,12.57,0,0,0,0-1.9C202.9,134.57,202.8,134.12,203,135.11Zm1,6.75c.57-.13,1.32,1.32,1.47-.63C204.67,142.18,205,139.15,204,141.86Zm-.86.68s.19.81.66.23l-.43-1.81C203.54,141.68,203.12,139.86,203.14,142.54Zm-.19-3.4a8,8,0,0,1,0,2.67c-.17-.72-.59-1-.28.35-.27,1.4,0,0,.44.38,0,0-.25.44.09.36C202.87,141.36,203.51,139.77,203,139.14Zm-.36-1.54-.37,2.47C202.32,140.53,202.59,137.6,202.59,137.6Zm-2-4.59.27-.36c-.33.08-.53,3.57-.25,3l.34-1.12s-.09-1.9.25-.44c.4-.86.4-.86.23-1.59,0,0-.57.13-.75-.68A1.38,1.38,0,0,1,200.57,133Zm-.4.85c.57-.13,0,1.64.42,1.81a7.67,7.67,0,0,1,.25-3C200.4,132.28,200.4,132.28,200.17,133.86ZM199,130.69l.39-.09a1.25,1.25,0,0,1-.22.81l.39-.09a17.58,17.58,0,0,1,0-2.4c.07.28-.4.86-.4.86.09.36-.39.09-.31.45.4-.09.4-.09.31-.45l.19.82c-.39.09.46-.59-.1-.46C198.91,130.23,198.12,130.9,199,130.69Zm.92,2.17c-.16,1.1-.16,1.1-.05,1.55l.19.82h0C200,134.77,200.21,131.47,199.94,132.86Zm1.35,5.8c.11.46-.29,3.13.22,2.73a6.2,6.2,0,0,0-.11-2.27l.25,1.08c.14-1.94,0-2.39.21-1.67.1.46.19.82.1.46.21-3.2-1.09-2.14-1.23-1C201.12,137.94,201.09,139.57,201.29,138.66Zm141.12-21.55Zm-8.4-.72a2.7,2.7,0,0,0-1.36,0l.06.27.73-.17ZM321.76,63.72h0l.1.45Zm3,59.88Zm16.65-8.94-2.84.66c-.07-.27-.07-.27.23-.82l.56-.13s.11.46.35-.08l.57-.13.39-.09h0c.57-.13.57-.13,1.07.23Zm-2.61-.16Zm-14.11,8.83h0l.07.27Zm-.1-.45Zm0,0Zm-.07-.28Zm0,0h0C324.26,122.66,324.33,122.94,324.54,122.6Zm12.53-7.21-.11-.45h0Zm.36,2.88h0l.11.46h0l-.11-.46ZM331,120.63Zm-4.57-57.52-2.71.63h0c-.57.13-.67-.33-.57.13h0l-2.59.6h0l-.57.13-1,.23h0l-.4.09h0l-.1-.46.1.46-1.86.43h0l-.57.14h0c-.35.08-.45-.38-.35.08l-2.82.65h0l.06.28-7.46,1.74-.17-.74c5.09-1.18,10.29-2.39,15.24-3.92a.39.39,0,0,0,.48.27.5.5,0,0,0,.67.32l.57-.13.34-.08c-.34.08-.45-.38-1.66-.47l3.68-.86.08.36-.08-.36h0l.56-.13.08.36c.26-.44.9-.21.82-.57l.19.82Zm-1.86,0c-.56.13-1-.14-.46.58l-.1-.45.67.32Zm15.11,55.16h0a.43.43,0,0,0-.51-.36h0l-1.46.34.9-.21.11.46Zm-15.08,4.66Zm8-6.46-.67-.32-4.14,1c.11.45.11.45-.45.58l-.1-.45-1.82.9.06.27,1.52-.36-.06-.26s.4-.1.47.17h0c-.07-.27-.07-.27.49-.4l.06.27h0l4.7-1.09Zm1.36,0Zm2.85,2Zm-12.24.17-.06-.27-1,.23h0l.07.26h0l.1.46C324.22,118.66,324.22,118.66,324.62,118.57Zm-1,0-.21.33h0a2,2,0,0,1-1,0h0l.4-.09h0l.57-.13h0l.27-.06-.27.06h0Zm-.27.06Zm-2.27,1.29,1-.22-.17-.73-.39.09C320.88,119.16,321,119.42,321.05,119.88Zm1.47-.34h0l-.1-.46C322.35,118.81,322.42,119.08,322.52,119.54Zm1.56,2.32h0l.08.36h0l-.08-.36Zm0,0Zm-18.95-60.2h0l.16.73Zm10.81,52.43c-.49.41-1.51.35-1.45.63A3,3,0,0,0,315.94,114.09ZM286.23,72.46c-.5.41-.5.41-.4.86l19.46-5-.17-.73c-3.39.79-6,1.87-9.22,2.62l.07.28c-.63-.15-.63-.15-.07-.28ZM316,121.06l.55-.13-.1-.45c.1.45-.56.13-.56.13l.11.45-2.27.53c-.11-.45.39-.09.28-.55l.92-.21L314,121h0a.68.68,0,0,1-1,.23l.68.32-1.48.34L312,122h0l-2.49.58h0l.56-.14-.56.14.56-.14h0l-.1-.45h0l-.06-.27,1.92-.45c.06.27.06.27.34.21l-.06-.27.9-.21.63.14-.06-.27,3.23-.75.06.26s.56-.12.5-.39l2.27-.53-.4.09.73-.17h0l1-.22a1,1,0,0,0-.22.81Zm2.72-1.11.56-.13-.56.13Zm-2.17,1,.41-.09-.11-.46h0A.42.42,0,0,1,316.52,120.93Zm7.64,1.29c-.57.13.1.44.1.44l-.1-.44Zm-.29,1.31.57-.13Zm.63.14-.06-.27.06.27Zm0-1.07c-.1-.45-.1-.45-.38-.38C324.16,122.22,324.26,122.66,324.54,122.6Zm-.1-.45Zm0,0Zm-.18.51Zm0,0Zm0,0,.07.28h0Zm.35.22.1.45-.1-.45Zm18-64-3.39.79c.56-.13.48-.5.38-.94l3.73-.87h0a1.28,1.28,0,0,0,.58.72l-.4.09h0Zm-.75-.68h0l-.4.09.5.36C342.55,58.5,342.78,58,341.88,58.18Zm13,55.75Zm0,0-.39.09Zm.83,1-.09-.36h0Zm-3.67-3-.17-.73-1,.23.06.27.1.45h0l-.1-.45c.33-.36,0,0,.1.45l.4-.09-.11-.46.11.46Zm4.49,2.4c-.11-.46-.17-.74.22-.83l-1.3.3.07.28s.33-.08.27-.35c.06.27-.27.35-.27.35l.1.46h0c.23-.54.34-.08.19.8.23-.52.15-.88.55-1.75C355.92,114.45,356.38,113.86,356.49,114.32Zm-3.36-3.43-.28.35s.34-.08.44.38c-.1-.46-.1-.46.4-.86Zm-1.3.3.17.73.39-.09h0l-.17-.73c.07.27.07.27-.33.36l.33-.36Zm2.12,3.24c-.07-.28.5-.41.5-.41l-.9.21c-.5.41-.4.86-.21,1.67l-.1-.45.1.45c-.4.09-.33.37-.33.37l.1.45.4-.09c-.17-.73.29-1.31.21-1.67h0c.16-.81.08.36.33-.08l-.1-.45-.34.08h0C353.88,114.15,354,114.43,354,114.43Zm-2.12-3.24h0C351.89,111.46,352,111.92,351.83,111.19Zm-21,10.24.1.45-.1-.45Zm-4.36,1Zm4.36-1Zm-4.7,1.09Zm10.08-.72h0s.11.46-.23.53l.34-.07h0l-.11-.46ZM318.78,61.16l-5.66,1.32a8.34,8.34,0,0,1,.2-3.49L319,57.68h0l.07.27-.57.13.57-.13c.1.45.21.91.1.45l-.1-.45.44.37h0l.5.37h0c.57-.14-.33.36.57-.14h0c.46-.58-.68-.32-.22-.91-.56.14-.56.14-.06-.26.06.26-.5.4-1.23.57l.27-.35.39-.09h0L324.77,56l.15.63c.11.45.51.36.34-.36s-.34.36-.08-.37l4.3-1-.57.14c.08.36.65.23,1-.23l8.38-1.95.08.37c-.19-.82.34,1.44.31-.46l.57-.13.33-.08h0c.09.36-.25.44.09.36h0c-.34.08-.34.08-.28.35l.22.91.33-.08c-.44-.37.36-1-.21-.91l-.06-.27h0l.56-.13c-.08-.36.4-.09.31-.45l-.39.09h0l.39-.09.09.36h0l.06.27.11.45-.11-.45h0l-.06-.27h0s-.09-.36.48-.49L342,52l-.56.13c.56-.13.65.23.65.23h0l.39-.09-.19-.82h0l.19.82c.38-.95.57-.14.77-1l.57-.14c.11.46.11.46.34-.07l2.43-.57.25,1.09c-.06-.27.25-.73.14-1.18h0l.19.82c.49-.5.49-.5.38-1h0c.11.45.11.45.5.36l-.39.09a.39.39,0,0,1,.48.27l-.4.09h0c.06.27.06.27-.4.86h0a1.42,1.42,0,0,1-.94,1.84h0l-.5.4.57-.13h0l-.57.13-.39.1c.39-.1.39-.1.33-.37-.59-.72-.23.82-1,.23l.17.72-.33.08.23-.53c-.23.53-.4-.19-.8.66l-1.92.45c.46-.59,1.42-.81.29-1.31-1-.15-.8.66-.29,1.31l-3.17.74-.16-.73c-.19-.82-.19-.82-.51.4l.11.46-.4.09h0c-.1-.46.29-.55.23-.82l-.4.09c-.1-.45-1.1-.6-.67-.32l.11.46h0l-.46-.38.11.46h0c-.49.4-.49.4-.39.85h0l-.1-.45-.07-.27c.07.27-.51-.36-.34.36.11.46-.45.58-.45.58L325.06,59.7l-.35.08-2.37.55h0l-.4.09c-.06-.27.34-.36-.5-.64l.34-.08-.34.08c-.06-.27-.06-.27-.63-.14.06.27,1,.06.06.27l-.57.13s1.14-.26.68.32c.57-.13.63.14.63.14l-2.43.57-.07-.27c-.33.36-.1-.46-.1-.46.1.46.1.46-.29.55C318.78,61.16,319.18,61.07,318.78,61.16Zm1.69-.39c.51-.41.57-.14,1.08-.54C321,60.63,320.87,59.91,320.47,60.77Zm24.18-7.54s.51-.4-.06-.27l.06.27-.33.08C344.74,53.59,344.74,53.59,344.65,53.23Zm-1.92.17.71.49c.31-.45.71-1.3,1.61-1.52h0c.5.37.11.46.57.64.5-.4-.17-.73.73-.94a1.55,1.55,0,0,1-.59-1c-.48.49-.48.49-.87.58l-.57.13h0C343.48,52.26,342.52,52.49,342.73,53.4Zm-.61-.82c.4-.09.5.36,1-.23-.63-.13,0,0-.06-.27,0,0-.5.41-.57.14C342.06,52.31,342.45,52.22,342.12,52.58Zm-.57.13c.51-.4.51-.4.57-.13h0s-.15-.63-.06-.27C342.06,52.31,341.49,52.44,341.55,52.71Zm-1.65,1.34h0C339.57,54.13,339.63,54.4,339.9,54.05Zm-1-.24.68.32C339,54.26,338.79,53.35,338.89,53.81Zm-.22.81s1-.22-.17-.72C338.5,53.9,337.54,54.12,338.67,54.62Zm-5.05.89c-.21-.91-.21-.91-.42.77C333.37,57,333.77,56.15,333.62,55.51Zm.49.56s.1.45.31-1.22A1.62,1.62,0,0,0,334.11,56.07Zm-1.45-.33c.29-.55-.1-.46.75-1.14.34-.07.27-.34-.57.14C332.56,55.28,332.56,55.28,332.66,55.74Zm-.9.21c-.21-.91-.57.13-.57.13C331.11,57.53,331.51,57.44,331.76,56Zm-4.46.56c.46-.59.85-.68,1.76-.89-.34.08-.07-.27-.07-.27-.84.48,0,0-.33.08a2.58,2.58,0,0,1-.9.49C326.8,56.14,327.19,56.05,327.3,56.51Zm-.61,1.76c-.28.35,1,0,1-.22C326.76,58.54,327.26,58.14,326.69,58.27ZM325,59.43c.55-.13-.29.35.55-.13-.55.13.8-.95,1.71-1.16-.57.13-.67-.32-1-.24-.45.58.17.72-.79.94Zm-5.29-1.92Zm1.56,1.54-.57.14c.68.32.11.45.68.32Zm0,0h0l-.57.14-.56.13Zm-.93-1.41h0C320.91,57.51,320.85,57.24,320.34,57.64ZM320.05,59c1.14-.26-.39.1.57-.13l.5-.4h0a1.79,1.79,0,0,1-1.07.53Zm-5.43,1.27c-.06-.27-.17-.72-.62-.14C314,60.08,314.06,60.35,314.62,60.22Zm.85-.48-.57.13c.07.27-.34.08-.28.35h0c.35-.08.35-.08.43.28-.08-.36.48-.49-.08-.36h0S315.53,60,315.47,59.74Zm1.87-.44c.28-.54-.11-.45-.68-.32C317.23,58.85,316.77,59.44,317.34,59.3Zm0,0c.06.27.06.27.45.18C317.79,59.48,318.3,59.08,317.34,59.3Zm39.24,51.07.11.46h0Zm-60.81,20-.06-.27S295.2,130.48,295.77,130.35Zm48.71-17.16.56-.14h0l.34-.07-.9.21Zm.1.45Zm-1.92.45h0l-.1-.46Zm0,0h0l.57-.13Zm-15.52,8.68-.55.13h0l.55-.13Zm16.93-5.18s-.56.13-.46.57Zm-2.31-3.29h0l.06.27h0Zm3.73-.87h0l.56-.13-.1-.46A.51.51,0,0,1,345.49,113.43Zm-2,4.29-.19-.82h0a1.39,1.39,0,0,1-.15.9Zm4.41-4.85h0l1.24-.29-.17-.73-.56.13.07.27C348.31,112.77,348.31,112.77,347.92,112.87Zm1.48-1.11h0c.06.27-.35.36-.24.82l.4-.1s-.1-.45.45-.58l-.55.13C349.05,112.12,349.46,112,349.4,111.76ZM338.79,63.68l-1,.22c.41-.1.41-.1.11.45.3-.55.4-.09.4-.09C337.83,63.9,338.79,63.68,338.79,63.68Zm11.68,48.59h0l-.17-.72h0l.06.27ZM339.05,58.84l-2.27.53h0l.1.44c-.55.13-.1-.44-.84.2l-.11-.45-1,.23h0l-.33.08a.3.3,0,1,1-.57.13h0c-2.26.52-4.59,1.54-6.51,2,.08.37.57-.13.65.23l.39-.09.11.46c.38-.95.38-.95.57-.13l1.86-.44-.1-.45h0s.39-.1.31-.46c.08.36-.31.46.08.36l.11.46,4.19-1.45c-.57.13-.09-.37-.65-.23l1-.23.08.36h0l.29-.06h0c-.08-.37-.08-.37.56-.13h0l2.27-.53C338.76,59.38,338.76,59.38,339.05,58.84Zm10.11,53.74Zm-2.71.63h0c.46-.59.46-.59.4-.86l-.57.13.06.27Zm-.4.09Zm1.13-1-.33.08.17.73.33-.08-.1-.46h0Zm7.64-1-.16-.72.06.26Zm-115,29.14.51-.12-.21-.9h0C240.25,139.82,240.25,139.82,239.85,140.4Zm-.21-.9-4.93,1.61h0l.4-.09-.4.09.16.73a28.45,28.45,0,0,1,5-1.44Zm.9-.21-.39.09.21.9.39-.09Zm-3.15,4.64-.56.13C236.94,144.52,237.39,143.93,237.39,143.93Zm-5.28-1.45.33-.08h0l.57-.13c-.17-.72-.17-.72.24-.82l-3.24.76-.22.53-.11-.46-4.36,1c.11.45.11.45-.16.8l5-1.17c-.06-.27.23-.82.4-.09l.56-.13c.23-.82.8-1,1-.23h0l-.17-.72Zm.15,5c.11.46.4-.09.33-.36l-.1-.45C232.59,147.15,232.2,147.25,232.26,147.51Zm8.85-8.36-.57.14A.3.3,0,1,0,241.11,139.15Zm-7.2,2.63.06.27.35-.08-.06-.27c.06.27,0,0,.45-.59l-.56.13C233.8,141.32,233.8,141.32,233.91,141.78Zm-.11-.46Zm13.64-58.78c.39-.85.17.73.66.33h0l9.18-2.14-.11-.45.56-.13c-.07-.28-.07-.28-.62-.15l-1,.23.64.14c-.57.14-.64-.14-.64-.14-6.83,1.59-13.39,3.41-19,4.71h0l.17.72.91-.21-.07-.27c.57-.13.63.14.07.27l1.92-.45c-.06-.26.5-.4.57-.13L247.55,83Zm4.7,54.05.1.44.91-.21L253,136ZM234.6,86.29l-.17-.72c-8.31,1.93-15.62,4.11-21.61,5.51l.06.27-.57.13s.57-.13.51-.4a14.22,14.22,0,0,0-1.76.69l.11.45,1.25-.29h0l.9-.21-.1-.45c.5-.4,1-.23,1.07.23l3.39-.79c.23-.53.62-.62,1.3-.3l3.06-1.2.56-.12h0c.24-.82.41-.1,1-.23L223,89l2.37-.55h0l.34-.08h0l.5-.4h0l.06.27,1.36-.32h0c.51-.12.45-.38.51-.12h0l6.45-1.5C234.54,86,234.43,85.57,234.6,86.29Zm-9.44,57.81h0l-.07-.27C225.32,143.3,225,143.38,225.16,144.1Zm18.42-4.57.57-.13C244,138.94,243.47,139.07,243.58,139.53Zm-2.36.07a.42.42,0,0,0,.29-.54l-.4.09Zm-.11-.45h0l.21.9h0Zm2.26-.52-1,.22.21.9.57-.13Zm13.17-2.6,1.87-.43a1.61,1.61,0,0,0,.21-.91l-2.84.66h0l-.39.09a1.12,1.12,0,0,0-.38.95l1.53-.36Zm-14.26,3.8h0c-.1-.45.23-.53.13-1l-.34.08Zm-21.74,8,.1.45h0s.57-.13.46-.59ZM207.78,93l-.91.21c-.1-.45-.5-.36-.31.46l-.57.13-.08-.36.08.36-.39.09-.08-.36.08.36-3.16.74-.19-.82,3.16-.74-.57.14.57-.14,5.65-1.31c-.55.13-.45.58-.45.58l-2.83.66.56-.13-.56.13Zm-1.41-.15-1,.22h0Zm14.27,55.45h0l-.33.08Zm12.61-6.86h0a1.77,1.77,0,0,0-.24.82l.41-.09Zm-15.81,9.23Zm-1.22-5.26.1.45.07.27-.07-.27h0l-.56.13-.57.13-.34.08.07.27h0c.33-.08-.07-.27.27-.35-.27.35.63.14.69.42h0c1-.22,1.81-.71,3.16-1-.06-.27-.17-.72-.06-.27l.06.27.57-.13-.17-.72Zm5.24,3.84-.57.14.57-.14Zm-3.76,2.51Zm.11-2.8h0l-.25.44a8.87,8.87,0,0,1,.14,2.36h0l.39-.1-.36-1.54c.28,1.18.51.65,1,.25.06.27-.5.4-.5.4l.19.82c.1.45.67.32,1.06.23l-.52-2.27h0c-.11-.45-.11-.45-.33.36.14-1.18.22-.81.7-1.31Zm3.82,1-.06-.27-.57.13C221.06,150.12,221,149.85,221.63,150Zm2.93-.2h0l-.17-.73h0C224,149.92,224.46,149.33,224.56,149.79Zm-3-1.7Zm2-4.39-3.79.89.16.72,2.84-.66-.06-.27c.45-.58.56-.13.62.14l.4-.09Zm.85-.19h0c.11.45.17.72-.23.81l.4-.09-.06-.27C224.65,144.51,224.53,144,224.42,143.51Zm-1,3.69c.11.45.67.32.67.32h0l-.11-.45Zm-1.77.89h0l-.1-.46h0Zm1-.23s.57-.13.47-.58l-.57.13-.29.55Zm-.14,1.18Zm63-75.63.39-.09-.17-.73-.39.09Zm23.77-11.07c.07.27-.34.84-.27,1.11l2.31-.54h0l-.06-.27c-.11-.45,0,0,.46.18-.23-1,.4-.86.14-1.94l-.33-1.45-.57.13c-.12,1.27-.65,2.82-1.28,2.69-.4.09-.4.09-.33.36,0,0-.07-.27.33-.36l-.11-.46c-.08-.36.32-1.22.21-1.67l-.57.13-.06-.27h0a3.74,3.74,0,0,0,0,1.9h0Zm.44-2.49h0l.06.27Zm45.83,54.22-.57.13C355,114.66,355.1,115,355.48,114.07ZM253,136l.19.81,1.86-.43h0l-.19-.82h0l-.25.45-.08-.37Zm49.79-74.27-.56.13,1-.23.21.91h0a5.47,5.47,0,0,0,.18,2.63l-1,.23c-.17-.73,0-2-.29-3.09Zm0,2.39c.11.46.73.6.66.33C303.45,64.73,302.72,64.13,302.72,64.13Zm6-1.67h0c-.19-.82.16-1.66,0-2.39l-.91.21a2.22,2.22,0,0,0-.23,1.58l.57-.13s-.48.5.08.36l-.08-.36.19.82c-.67-.32-.57.13-.57.13-.39.09-.1-.45-.1-.45l-.4.09.45,1.9,1-.22C308.54,63.54,308.77,62.73,308.7,62.46ZM304,65.09l.9-.21a8.12,8.12,0,0,0-.2-2.63c.47-.59.47-.59.36-1l-.57.13h0l-.39.09h0l-.35.08h0c.21.91,0,2.4.14,3.12Zm1.63-4-.57.13h0Zm.8,3.44-.13-2.36c-.15,1.18,0,1.91-.44,2.49Zm6.73-2c-.23-1-.73-.6-1.47.34Zm24-5.88.35-.08h0l-.11-.45h0l.11.45h0Zm.74-.94.17.73h0l-.17-.73Zm-12.2,6.76ZM356,110.23l-.39.1.06.26.11.46c-.11-.46-.11-.46.22-.82Zm-.54,3.56-.57.14h0l.57-.14c.07.28-.5.41-.5.41h0l.57-.13Zm-.69-3-.46.59.56-.13ZM217.56,149.41l-.08-.36h0l-.39.09h0l-.57.13.25,1.09h0l.57-.14a1,1,0,0,0,.22-.81Zm138-39.08Zm1.32,3.9-.39.09.18.8A1.64,1.64,0,0,0,356.88,114.23Zm-74.41,18.16h0l-.4.09Zm-.53-58.93.06.28.1.44-7.74,2.1c-.06-.28-.06-.28.5-.41-.56.13-.5.41-.5.41L265,78.46h0l-1,.23c-.4.09-.73.17-.9-.56l1.29-.3c.11.45.5.36.4-.09C270.41,76.44,275.94,75.15,281.94,73.46Zm-16.41,4.87a8.43,8.43,0,0,0,1.24-.58C267.23,77.17,264.57,78.56,265.53,78.33Zm17.21,51.14h0l-1.31.3h0c-.08-.37.32-.46-.08-.37h0c-.56.13-.88.6-1.52.35-.26.46.64.25.64.25l-1.86.43.39-.09c-.39.09-1,.22-1.05-.15h0s-.33.08-.06-.27l.06.27c.57-.13-.39-.19-.06-.27,1-.22.06.27.63.14.4-.09-.06-.27-.06-.27l1.31-.31h0c-.35.09-.29.36.06.27h0c-.35.09-.41-.18-.35.09h0l.35-.09h0c-.35.09.49-.39-.06-.27h0l1-.22-.41.1,4.14-1h0l-.9.21.9-.21.15.64-1.3.31Zm.88-.6.08.37c-.08-.37.49-.5.49-.5Zm-2.33.26s-.5.4.06.27C281.35,129.4,281.69,129,281.29,129.13Zm1.38-55.08L283,74l-.17-.72-.34.08.07.28Zm-5.53,56.72c-.09-.37-.09-.37-1.05-.14.5-.41.5-.41.9-.5l-5.38,1.25.15.64-.15-.64-1.45.62.19.82a11.3,11.3,0,0,0,3.57-1.3c.39-.09-.37-.3.3-.46l.09.37Zm6.27-57.65.16.72.4-.09h0L283.8,73Zm-4.17,60ZM399.5,106.22ZM279.63,133.05Zm104.3-22.73.34-.08C383.76,109.59,383.83,109.86,383.93,110.32Zm-1.2-2.59.11.46-.11-.46-.06-.28s-.06-.27.5-.4l-.1-.45-1.53.35c.67.32.73.59.9,1.33l-1.13-.51a3.33,3.33,0,0,0,1.49,2,3.13,3.13,0,0,1-1.46.62l-.07-.27-.33.08-.11-.45.11.45h0l.17.73,1.86-.44C383.2,109.73,383.49,108.42,382.73,107.73Zm-2.36,2.65Zm19.13-4.16h0l-.4.09Zm-115-32.6-.17-.73h0l.17.73Zm40.88-12.38c-.06-.27-.06-.27.39-.85-.45.58-.8.66-.74.93Zm54.16,49.33c.46.17.4-.1.46.17l-.06-.27h0c.06.27.06.27.45.18-.39.09-.28.55-.68.64h0l-.51.12s.51-.12.41-.57c-1,.7-2.61-.16-2.78.64l.45.38-7.41,1.72.56-.13-.1-.46c-.06-.27-.46.59-.57.14l-.39.09-.07-.27c-.4.86-1.86.43-1.69,1.16-.68-.33-.57.13-.49.49l-.39.09-.08-.36h0l-.57.13h0l.08.37-3.45.8-.08-.36-.57.13s.08.36.65.23l-.57.13-.39.09h0l-.09-.36.09.36h0c-.09-.36-.09-.36-.65-.23h0c.08.36-.34.08-.25.44-.09-.36,0,0,.33-.08l-.33.08h0l-.09-.36h0l-1,.22h0c.08.37-.11-.45.08.37,0,0-.65-.23-.75-.69.1.46-.23.53.1.46.09.36,0,0,.65.23l-.9.21-.08-.37c.08.37.42.29,0,0-.11-.45,0,0,.08.37h0l-.57.13h0l-.08-.36-.4.09c-.1-.46-.67-.32-.67-.32h0c.11.45-.2.9-.85.67.08.37.08.37-.25.44l-.57.14c.48-.5.14-2,.21-1.68.61,1.1.9-.21,1.4.16l-.36-1.54a1,1,0,0,0,.79-1h0l12-3.09.07.27c-.07-.27.39-.09.33-.36h0c.63.14.56-.13.56-.13h0l.34-.08,7.37-2.19c.1.45-.4.85-.34,1.13,1-.53,2.06.38,2.73.7h0l.06.28-.63-.15C380.27,109.93,379.41,109.83,379.58,110.57Zm-19.91,4.63c-.1-.45.46.18.39-.09l-.49-.36h0l-.07-.28h0c-.57.13-.67-.32-.57.13C359,114.88,359.57,114.75,359.67,115.2Zm1,0c-.57.13-1,0-1,.22C359.73,115.47,360.8,115.7,360.7,115.25Zm-.17-.73s-.64-.14-.57.13C359.89,114.38,360.53,114.52,360.53,114.52Zm1.07.52-.63-.14.06.27Zm0,0-.06-.27-.68-.33.11.46C360.86,114.44,361.6,115,361.6,115Zm.73-1.23-.11-.45.11.45-.57.13h0l-.5-.35c-.08-.36.4-.09.31-.46-.5-.36.09.37-.39.1.08.36.08.36.58.71-.39.09-1,.22-.9.5.51-.41,0,0,.57-.13l.11.46c-.17-.74.45.17.28-.55l-.39.09c-.06-.28.9-.5.39-.09,0,0-.06-.28.51-.41-.51.41-.4.86-.51.41l.11.45.57-.13Zm.29-.54a1.72,1.72,0,0,0-.59-.72C362.14,113,362.72,113.72,362.62,113.27Zm1.33-.69c.08.36,0,0-.56.13h0s-.41.09.08.36c-.08-.36,0,0,.56-.13Zm2.29-.15c-.46.58-.9.21-.8.65C365.78,113,366.35,112.87,366.24,112.43Zm13.34-1.86-.1-.46-.51.12c.1.45.61.34.61.34ZM275.2,69.39h0l-.57.13c.57-.13.51-.4.51-.4h0l-.11-.45h0l.4-.09h0l.39-.1.51-.12h0l1.37-.31.1.45-.1-.45,1.47-.35h0l1.92-.44h0l.34-.08h0l.25,1.09.57-.14L282,67.05l1.36-.32c.17.72-.14,1.18.36,1.54-.19-.82-.26-1.08.15-1.66h0l.1.46.29-.55.57-.13c-.31,1.22-.21,1.67.36,1.54l-.36-1.54.28-.07h0L288.78,65c-.29.55-.29.55-.18,1a.42.42,0,0,1,.29-.55s.56-.13.67.33c0,0-.57.13-.51.4,0,0,.51-.4.4-.86h0a.5.5,0,0,1-.67-.32l.57-.13c.1.45.1.45.44.37-.34.08-.44-.37-.44-.37L301.79,62h0l.4-.09c-.88,4.69-1.62-1-2,4.1l-10.89,2.92-.13-2.36c.1.45-.23.82-.62,1.67h0a1.73,1.73,0,0,0-.21.91h0l-3.28.76-.19-.81c.11.45.11.45-.2.9l-.51.12-.09-.36-.31.45h0l-1,.23-.19-.82c.11.46,0,0-.56.13.56-.13.56-.13.5-.4l-.57.13-.1-.45s-.34.08-.4-.19c.4.19.06.27.17.72,0,0-.11-.45.33-.08l.07.27-.34.08h0c.11.46.44.38.44.38l-.44-.38.34-.08.19.82-6.29,1.94a1.72,1.72,0,0,0-1-.24c-.09-.36,0-1.62-.19-2.35C275.28,69.75,275.28,69.75,275.2,69.39Zm16.26-2.92c.06.27-.35.08-.29.35C291.63,67.19,291.52,66.74,291.46,66.47Zm.56-.13c.07.27.07.27-.39.85C292.19,67.06,292.19,67.06,292,66.34Zm.4-.09s-.5-.37-.33.36C292.48,66.52,292.48,66.52,292.42,66.25Zm.73.59c-.56.13-.56.13-.5.4C292.65,67.24,293.22,67.11,293.15,66.84Zm-.35-1.54h0l.08.36C293.27,65.57,293.19,65.2,292.8,65.3Zm-.63-.14c.56-.13.56-.13.46-.59S292.73,65,292.17,65.16Zm-.82.85c.11.46.57-.13.67.33-.19-.82.29-.55.78-1-.57.13-.57.13-.49.49C291.83,65.52,291.92,65.88,291.35,66Zm-.74.18c.39-.09.31-.46.66-.54l.08.36.11.46h0l-.11-.46h0s.57-.13.48-.49C291.2,65.38,290.36,65.1,290.61,66.19Zm-1-.16c-.06-.26.34-.07.28-.34h0C289.79,65.23,289.62,66,289.62,66Zm-.48.5c.57-.13,1.07.51.9-.21C289.71,66.4,289.05,66.17,289.14,66.53ZM288.6,66l.06.27h0Zm-.57.13.63.14.08.36-.08-.36L288.6,66Zm.25,1.09s.63.14.57-.13Zm-1.23.57s.1.45-.46.59l.56-.14h0c.34-.07.34-.07.23-.53h0l-.33.08Zm-1.22-.86c.4-.1,1.16.59.4-.1C286.31,67.19,285.67,66.19,285.83,66.92Zm-3.08,1.58c.63.13,1,0,.56-.14C283.38,68.63,282.64,68,282.75,68.5Zm-.34.36s.11.45.5.36Zm-2.55,1.83h0l.09.37Zm1.82-.9c-.63-.14-.57.13-.57.13-.29.55.57-.13.57-.13Zm-1.45-1.85,1-.23A.69.69,0,0,0,280.23,67.94Zm-.1-.46-.57.13S279.67,68.07,280.13,67.48ZM279,69.38c.73.59,1.13.5,1,0A2.61,2.61,0,0,1,279,69.38Zm-.35.08c-.66-.33-.11-.46-.11-.46C277.86,68.77,278,69.13,278.61,69.46Zm-1,.22h0l.06.27-.06-.27h0s.06.27.47.18c-.47-.18-.07-.27-.47-.18h0l-.11-.45C277.65,69.68,277.09,69.81,277.65,69.68Zm-1.07-.23c.11.46-.51.12-.9.21h0c.5.36-.29.55.1.46h0C276.18,70,276.75,70.18,276.58,69.45Zm-.51.12s-.08-.36.43-.48l-.51.12Zm-.48-.27.91-.21Zm-.45-.18.39-.09Zm.06.27c.39-.09.33-.36.33-.36h0l-.39.09C275.59,69.3,275.14,69.12,275.2,69.39Zm.08.36Z"/></svg>