<svg id="레이어_1" data-name="레이어 1" xmlns="http://www.w3.org/2000/svg" viewBox="0 0 140 105"><defs><style>.cls-1{fill:#121213;}</style></defs><path class="cls-1" d="M107.9,50.48a3.82,3.82,0,1,0,3.83,3.81A3.83,3.83,0,0,0,107.9,50.48Z"/><path class="cls-1" d="M29.43,30.14A3.82,3.82,0,1,0,33.26,34,3.83,3.83,0,0,0,29.43,30.14Z"/><path class="cls-1" d="M139.67,57.64h0a4.79,4.79,0,0,0-1.2-2.45,5,5,0,0,0-3.28-1.29c-2.1-.17-4.19-.16-6.2-.15h-2.22A44.66,44.66,0,0,0,116.63,32c-6.27-7.45-15.33-11.72-27-12.74,0-.47,0-1,0-1.43-.13-4.19-.25-8.52-.25-12.76A5.14,5.14,0,0,0,84.17,0H52.69C40.59-.26,29.47,4,21.41,12.1A41,41,0,0,0,9.65,37.48c0,.09-.11.19-.25.25C5.31,39.4-.12,42.14,0,46.65c.1,3.58,3.74,6.63,10.81,9.07a.4.4,0,0,1,.26.22A44.78,44.78,0,0,0,20.52,73c6.8,7.78,16.77,12.08,29.64,12.82V105h2.38l29.77,0c4.82,0,17-1.38,21.73-2.94,15.75-5.2,28.51-18.28,35-35.89A15.47,15.47,0,0,0,139.67,57.64ZM24.12,69.88a42.52,42.52,0,0,1-4-5.34c15.15-.22,20.52-6.21,20.75-6.48a2.38,2.38,0,1,0-3.59-3.13s-5,5.24-19.56,4.85h-.16a38.58,38.58,0,0,1-1.92-5.16,5.18,5.18,0,0,0-3.29-3.41c-5.49-1.89-7.57-3.89-7.6-4.7,0,0,0-1.78,6.44-4.39A5.07,5.07,0,0,0,14.39,38a36.44,36.44,0,0,1,10.4-22.52A37.38,37.38,0,0,1,51.64,4.76H84.17a.38.38,0,0,1,.42.31c0,4.31.13,8.68.26,12.9l0,1.07-.82,0H50.16v62C38.75,80.35,30,76.6,24.12,69.88Zm61-39.62a126.46,126.46,0,0,1-1,18.17,53.91,53.91,0,0,1-4.12,14.71,36.16,36.16,0,0,1-6.11,9.43,26.26,26.26,0,0,1-18.9,8.61V23.79H85C85.06,26,85.09,28.12,85.1,30.26Zm37.3,54.32h-.17c-14.43.38-19.42-4.71-19.56-4.85a2.39,2.39,0,0,0-3.6,3.13c.22.25,5,5.63,18.4,6.4a46.33,46.33,0,0,1-14.93,8.29c-4.15,1.37-15.81,2.7-20.23,2.7l-27.38,0V85.93A30.92,30.92,0,0,0,77.35,75.77a40.53,40.53,0,0,0,6.93-10.66,58,58,0,0,0,4.5-16,130.28,130.28,0,0,0,1.09-18.87c0-2.06,0-4.12-.08-6.18,10.07,1,17.86,4.67,23.19,11a40,40,0,0,1,9.34,21.29l.24,2,2,.08c.71,0,1.42,0,2.12,0l5.86,10.82A58.17,58.17,0,0,1,122.4,84.58Z"/></svg>