<svg id="_迹_1" data-name="卵迹_1" xmlns="http://www.w3.org/2000/svg" viewBox="0 0 30 27"><defs><style>.cls-1{fill:#2d2d2d;}</style></defs><path class="cls-1" d="M25.56,3.35A17.44,17.44,0,0,0,15,0,17.42,17.42,0,0,0,4.44,3.35,10.39,10.39,0,0,0,0,11.58,10.39,10.39,0,0,0,4.44,19.8a14.66,14.66,0,0,0,2.14,1.36.43.43,0,0,1,.24.41l-2.06,5a.45.45,0,0,0,.73.36L11.43,23a.46.46,0,0,1,.36-.09,20.05,20.05,0,0,0,3.21.26A17.44,17.44,0,0,0,25.56,19.8,10.39,10.39,0,0,0,30,11.58,10.39,10.39,0,0,0,25.56,3.35Z"/></svg>