<?xml version="1.0" encoding="utf-8"?>
<!-- Generator: Adobe Illustrator 25.0.1, SVG Export Plug-In . SVG Version: 6.00 Build 0)  -->
<svg version="1.1" id="Layer_1" xmlns="http://www.w3.org/2000/svg" xmlns:xlink="http://www.w3.org/1999/xlink" x="0px" y="0px"
	 viewBox="0 0 105 24" style="enable-background:new 0 0 105 24;" xml:space="preserve">
<style type="text/css">
	.st0{fill:#7E7E7E;}
	.st1{fill:#D0D0D0;}
</style>
<g>
	<g>
		<path class="st0" d="M23,18.5v2.1H2.6v-2.1h8.9v-3.8H5V7.4h13v-3H5V2.3h15.6v7.1h-13v3.1h13.5v2.1h-7v3.8H23z"/>
		<path class="st0" d="M44.5,18v2.1H24.1V18H44.5z M39.3,5h-13V3h15.6v2.4c0,3,0,6.2-0.9,11l-2.6-0.3c0.9-4.4,0.9-7.8,0.9-10.7V5z"
			/>
		<path class="st0" d="M57.3,10.3c0,4.9-2.4,7.9-5.8,7.9c-3.4,0-5.8-3.1-5.8-7.9c0-4.9,2.4-8,5.8-8C54.9,2.4,57.3,5.5,57.3,10.3z
			 M54.9,10.3c0-3.5-1.4-5.6-3.3-5.6c-2,0-3.3,2.1-3.3,5.6c0,3.5,1.3,5.6,3.3,5.6C53.5,16,54.9,13.8,54.9,10.3z M66.5,11.6H63v11.6
			h-2.6V0.7H63v8.8h3.5V11.6z"/>
		<path class="st0" d="M87.5,10.8v2.1h-9v2.3h-2.6v-2.3H67v-2.1H87.5z M78.5,16.8c0,2.2,2.9,4,7.4,4.4l-0.8,1.9
			c-3.7-0.4-6.6-1.7-7.9-3.7c-1.4,1.9-4.2,3.3-7.9,3.7l-0.8-1.9c4.4-0.4,7.4-2.3,7.4-4.4v-0.6h2.7V16.8z M69.2,5.2
			c0-2.6,3.1-4.2,8-4.2c4.9,0,8,1.6,8,4.2c0,2.6-3.1,4.2-8,4.2C72.3,9.4,69.2,7.8,69.2,5.2z M71.9,5.2c0,1.4,2,2.2,5.4,2.2
			c3.4,0,5.4-0.8,5.4-2.2c0-1.4-2-2.2-5.4-2.2C73.9,3,71.9,3.8,71.9,5.2z"/>
	</g>
	<g>
		<path class="st1" d="M101.8,10.6c0.3,0.3,0.5,0.5,0.5,0.8c0.1,0.2,0.1,0.5,0.1,0.7s0,0.5-0.1,0.7c-0.1,0.2-0.3,0.5-0.5,0.7
			l-6.3,5.7c-0.4,0.4-0.9,0.6-1.4,0.6c-0.5,0-0.9-0.2-1.3-0.6c-0.2-0.2-0.3-0.4-0.4-0.6s-0.2-0.5-0.2-0.7c0-0.3,0-0.5,0.1-0.7
			c0.1-0.2,0.3-0.4,0.5-0.6l5.1-4.3l-5.1-4.3c-0.2-0.2-0.4-0.4-0.5-0.6c-0.1-0.2-0.1-0.5-0.1-0.7c0-0.3,0.1-0.5,0.2-0.7
			c0.1-0.2,0.3-0.5,0.4-0.6c0.4-0.4,0.8-0.6,1.3-0.6s1,0.2,1.4,0.6L101.8,10.6z"/>
	</g>
</g>
<text transform="matrix(1 0 0 1 0.5743 159.6089)" class="st0" style="font-family:'NotoSansKR-Medium-KSCpc-EUC-H'; font-size:25px; letter-spacing:-1;">로그아웃</text>
<text transform="matrix(1 0 0 1 90.4439 157.7828)" class="st1" style="font-family:'Jalnan'; font-size:20px; letter-spacing:-1;">&gt;</text>
</svg>
