<svg id="레이어_1" data-name="레이어 1" xmlns="http://www.w3.org/2000/svg" viewBox="0 0 175 50"><defs><style>.cls-1{fill:#121213;}</style></defs><path class="cls-1" d="M50.91,24a1.82,1.82,0,1,0,1.81,1.81A1.8,1.8,0,0,0,50.91,24Z"/><ellipse class="cls-1" cx="13.89" cy="16.17" rx="1.81" ry="1.82"/><path class="cls-1" d="M65.34,26.28a2.3,2.3,0,0,0-1.55-.61c-1-.09-2-.08-2.93-.08h-1A21.26,21.26,0,0,0,55,15.25c-3-3.56-7.23-5.59-12.73-6.07,0-.23,0-.46,0-.69-.06-2-.12-4-.12-6.07A2.43,2.43,0,0,0,39.72,0H24.86A19.86,19.86,0,0,0,10.1,5.76,19.64,19.64,0,0,0,4.55,17.85s0,.09-.11.12c-1.94.79-4.5,2.1-4.44,4.24.05,1.71,1.76,3.16,5.1,4.32a.19.19,0,0,1,.12.11,21.32,21.32,0,0,0,4.46,8.12c3.21,3.71,7.91,5.75,14,6.11V50H38.84a48.61,48.61,0,0,0,10.25-1.4c7.43-2.47,13.45-8.7,16.52-17.09a7.47,7.47,0,0,0,.29-4.06A2.25,2.25,0,0,0,65.34,26.28Zm-54,7A20.55,20.55,0,0,1,9.5,30.73c7.15-.11,9.68-3,9.79-3.08a1.14,1.14,0,0,0-.11-1.6,1.12,1.12,0,0,0-1.59.12s-2.33,2.48-9.22,2.3H8.3A16.91,16.91,0,0,1,7.39,26a2.48,2.48,0,0,0-1.55-1.62c-2.59-.9-3.58-1.85-3.59-2.24,0,0,0-.84,3-2.09a2.42,2.42,0,0,0,1.5-2A17.36,17.36,0,0,1,11.7,7.36a17.54,17.54,0,0,1,12.67-5.1H39.72a.18.18,0,0,1,.19.15c0,2.05.07,4.13.12,6.14,0,.17,0,.34,0,.51H23.67V38.59C18.29,38.25,14.15,36.48,11.38,33.27ZM40.15,14.41a59,59,0,0,1-.49,8.65,25.74,25.74,0,0,1-1.94,7,17.75,17.75,0,0,1-2.88,4.49,12.4,12.4,0,0,1-8.92,4.09V11.33H40.11C40.13,12.37,40.15,13.39,40.15,14.41ZM57.76,40.28h-.09c-6.81.19-9.16-2.24-9.23-2.31a1.13,1.13,0,0,0-1.69,1.49c.1.12,2.38,2.68,8.68,3a22,22,0,0,1-7,4,46.91,46.91,0,0,1-9.54,1.29l-12.92,0V40.91A14.54,14.54,0,0,0,36.5,36.08,19.4,19.4,0,0,0,39.77,31a28.32,28.32,0,0,0,2.12-7.62,61.41,61.41,0,0,0,.51-9c0-1,0-2,0-2.93,4.74.47,8.42,2.22,10.94,5.23a19.11,19.11,0,0,1,4.4,10.14l.12,1,1,0,1,0L62.55,33A28,28,0,0,1,57.76,40.28Z"/><path class="cls-1" d="M100.66,11.47a20.72,20.72,0,0,0-9.94-2.32H76.49V45.32H90.72A20.72,20.72,0,0,0,100.66,43a16.89,16.89,0,0,0,6.76-6.43,18.07,18.07,0,0,0,2.42-9.33,18.06,18.06,0,0,0-2.42-9.32A16.92,16.92,0,0,0,100.66,11.47Zm4.5,23.93A14.09,14.09,0,0,1,99.3,41a18.6,18.6,0,0,1-8.78,2H79.11V11.53H90.52a18.6,18.6,0,0,1,8.78,2,14.09,14.09,0,0,1,5.86,5.55,16.06,16.06,0,0,1,2.06,8.16A16.07,16.07,0,0,1,105.16,35.4Z"/><path class="cls-1" d="M172.58,17.91a17,17,0,0,0-6.75-6.44,20.76,20.76,0,0,0-10-2.32H141.65V45.32h14.23a20.76,20.76,0,0,0,10-2.33,16.93,16.93,0,0,0,6.75-6.43A18.07,18.07,0,0,0,175,27.23,18.06,18.06,0,0,0,172.58,17.91ZM170.32,35.4A14.09,14.09,0,0,1,164.46,41a18.6,18.6,0,0,1-8.78,2H144.27V11.53h11.41a18.6,18.6,0,0,1,8.78,2,14.09,14.09,0,0,1,5.86,5.55,16.06,16.06,0,0,1,2.06,8.16A16.07,16.07,0,0,1,170.32,35.4Z"/><polygon class="cls-1" points="112.55 9.15 112.55 45.32 115.17 45.32 115.17 13.34 139.75 37.04 139.75 33.16 114.76 9.15 112.55 9.15"/></svg>