<svg id="레이어_1" data-name="레이어 1" xmlns="http://www.w3.org/2000/svg" viewBox="0 0 614 198"><defs><style>.cls-1{fill:#fff;}</style></defs><path class="cls-1" d="M326.6,92.94h0V85.6a19.32,19.32,0,0,0-19.32-19.32h-.56A19.32,19.32,0,0,0,287.4,85.6v7.34h0A5.51,5.51,0,0,0,284,98V126.2a5.52,5.52,0,0,0,5.52,5.52h35A5.52,5.52,0,0,0,330,126.2V98A5.51,5.51,0,0,0,326.6,92.94Zm-37.22-.42h0Zm-1.35.2Zm.13,0Zm.13,0h0Zm.13,0h0Zm.13,0h0Zm.14,0h0Zm.13,0h0Zm.14,0h0Zm.14,0h0Zm.14,0h0Zm21,19.86V118a3.2,3.2,0,0,1-6.4,0v-5.56a5.2,5.2,0,1,1,6.4,0ZM293.84,92.52V85.6a12.9,12.9,0,0,1,12.88-12.88h.56A12.9,12.9,0,0,1,320.16,85.6v6.92Zm30.78,0h0Zm1.35.2Zm-.13,0Zm-.13,0h0Zm-.13,0h0Zm-.13,0h0Zm-.14,0h0Zm-.13,0h0Zm-.14,0h0Zm-.14,0h0Zm-.14,0h0Z"/></svg>