<?xml version="1.0" encoding="utf-8"?>
<!-- Generator: Adobe Illustrator 25.0.1, SVG Export Plug-In . SVG Version: 6.00 Build 0)  -->
<svg version="1.1" id="Layer_1" xmlns="http://www.w3.org/2000/svg" xmlns:xlink="http://www.w3.org/1999/xlink" x="0px" y="0px"
	 viewBox="0 0 68 68" style="enable-background:new 0 0 68 68;" xml:space="preserve">
<style type="text/css">
	.st0{fill:#7E7E7E;}
	.st1{fill:#FFFFFF;}
</style>
<g>
	<g>
		<circle class="st0" cx="34" cy="34" r="34"/>
	</g>
	<g>
		<path class="st1" d="M47.16,33.27c-0.74,0-1.34,0.59-1.35,1.33c0,0.74,0.59,1.34,1.33,1.35c0.74,0,1.34-0.59,1.35-1.33
			c0,0,0-0.01,0-0.01c0-0.73-0.59-1.33-1.32-1.33C47.17,33.27,47.16,33.27,47.16,33.27z"/>
		<ellipse class="st1" cx="19.92" cy="27.51" rx="1.33" ry="1.34"/>
		<path class="st1" d="M57.78,34.95c-0.31-0.29-0.72-0.45-1.14-0.45c-0.74-0.07-1.47-0.06-2.16-0.06h-0.74
			c-0.48-2.82-1.71-5.45-3.58-7.61c-2.21-2.62-5.32-4.11-9.37-4.47c0-0.17,0-0.34,0-0.51c-0.04-1.47-0.09-2.94-0.09-4.47
			c0-0.98-0.8-1.78-1.79-1.78H27.99c-4.05-0.16-7.99,1.38-10.86,4.24c-2.35,2.4-3.8,5.55-4.08,8.9c0,0,0,0.07-0.08,0.09
			c-1.43,0.58-3.31,1.55-3.27,3.12c0.04,1.26,1.3,2.33,3.75,3.18c0.04,0.01,0.07,0.04,0.09,0.08c0.64,2.21,1.76,4.25,3.28,5.98
			c2.36,2.73,5.82,4.23,10.3,4.5v6.72h11.16c2.54-0.07,5.07-0.42,7.54-1.03c5.47-1.82,9.9-6.4,12.16-12.58
			c0.35-0.96,0.42-1.99,0.21-2.99C58.14,35.49,58,35.19,57.78,34.95z M18.04,40.1c-0.5-0.59-0.95-1.22-1.35-1.88
			c5.26-0.08,7.12-2.21,7.2-2.27c0.3-0.35,0.26-0.87-0.08-1.18c-0.34-0.3-0.86-0.26-1.16,0.08c0,0,0,0.01-0.01,0.01
			c0,0-1.71,1.83-6.79,1.69H15.8c-0.27-0.59-0.49-1.2-0.67-1.82c-0.17-0.56-0.59-1-1.14-1.19c-1.91-0.66-2.63-1.36-2.64-1.65
			c0,0,0-0.62,2.21-1.54c0.61-0.25,1.04-0.81,1.1-1.47c0.26-2.97,1.55-5.75,3.64-7.87c2.47-2.46,5.84-3.81,9.32-3.75h11.3
			c0.07,0,0.13,0.04,0.14,0.11c0,1.51,0.05,3.04,0.09,4.52c0,0.13,0,0.25,0,0.38H27.11v21.73c-3.96-0.25-7.01-1.55-9.04-3.92
			L18.04,40.1z M39.24,26.21c0.04,2.13-0.08,4.26-0.36,6.37c-0.23,1.78-0.71,3.51-1.43,5.15c-0.54,1.2-1.25,2.32-2.12,3.3
			c-1.68,1.86-4.06,2.95-6.56,3.01v-20.1h10.44C39.23,24.71,39.24,25.46,39.24,26.21z M52.2,45.25h-0.07
			c-5.01,0.14-6.74-1.65-6.79-1.7c-0.33-0.32-0.86-0.31-1.18,0.02c-0.28,0.29-0.31,0.75-0.07,1.08c0.07,0.09,1.75,1.97,6.39,2.21
			c-1.52,1.29-3.27,2.29-5.15,2.94c-2.3,0.56-4.65,0.87-7.02,0.95h-9.51v-5.03c2.96-0.06,5.77-1.35,7.75-3.55
			c0.99-1.11,1.8-2.37,2.41-3.74c0.78-1.79,1.3-3.67,1.56-5.61c0.29-2.2,0.41-4.41,0.38-6.62c0-0.74,0-1.47,0-2.16
			c3.49,0.35,6.2,1.63,8.05,3.85c1.79,2.11,2.92,4.71,3.24,7.46l0.09,0.74h0.74h0.74l1.98,3.81C54.84,41.85,53.65,43.66,52.2,45.25z
			"/>
	</g>
</g>
</svg>
