<svg id="레이어_1" data-name="레이어 1" xmlns="http://www.w3.org/2000/svg" viewBox="0 0 50 50"><defs><style>.cls-1{fill:#bdbdbd;}</style></defs><path class="cls-1" d="M25.36.48A23.36,23.36,0,0,0,5.14,35.56l.07.11,0,.12L1.35,46.55a1.1,1.1,0,0,0,.25,1.16A1.11,1.11,0,0,0,2.76,48L14,44.26l.11.06A23.37,23.37,0,1,0,25.36.48Zm0,43.27a19.77,19.77,0,0,1-11.2-3.45L7.87,42.38a.8.8,0,0,1-1-1l2-6.37a19.9,19.9,0,1,1,16.48,8.74Z"/><path class="cls-1" d="M14.54,21.44a2.83,2.83,0,1,0,2.83,2.83A2.83,2.83,0,0,0,14.54,21.44Z"/><path class="cls-1" d="M25.13,21.44A2.83,2.83,0,1,0,28,24.27,2.83,2.83,0,0,0,25.13,21.44Z"/><path class="cls-1" d="M35.46,21.44a2.83,2.83,0,1,0,2.83,2.83A2.83,2.83,0,0,0,35.46,21.44Z"/></svg>