<svg id="레이어_1" data-name="레이어 1" xmlns="http://www.w3.org/2000/svg" viewBox="0 0 50 50"><defs><style>.cls-1{fill:#bdbdbd;}</style></defs><path class="cls-1" d="M43.76,6H31.13a2.93,2.93,0,0,0-.06-.58l-.3-1.4A4.71,4.71,0,0,0,26.2.38H23.8a4.71,4.71,0,0,0-4.57,3.68l-.3,1.4a2.93,2.93,0,0,0-.06.58H6.24a1.4,1.4,0,1,0,0,2.79H8L10.74,44a4.55,4.55,0,0,0,4.51,4.16h19.5A4.55,4.55,0,0,0,39.26,44L42.05,8.83h1.71a1.4,1.4,0,1,0,0-2.79ZM22,4.65A1.89,1.89,0,0,1,23.8,3.17h2.4A1.89,1.89,0,0,1,28,4.65L28.34,6H21.66ZM36.47,43.76a1.74,1.74,0,0,1-1.72,1.6H15.25a1.74,1.74,0,0,1-1.72-1.6L10.75,8.83H21.52l.14,0h6.68l.14,0H39.25Z"/><path class="cls-1" d="M18,15.53a1.39,1.39,0,0,0-1.4,1.39V35.16a1.4,1.4,0,1,0,2.79,0V16.92A1.39,1.39,0,0,0,18,15.53Z"/><path class="cls-1" d="M25,15.53a1.4,1.4,0,0,0-1.4,1.39V35.16a1.4,1.4,0,1,0,2.8,0V16.92A1.4,1.4,0,0,0,25,15.53Z"/><path class="cls-1" d="M32,36.56a1.4,1.4,0,0,0,1.4-1.4V16.92a1.4,1.4,0,0,0-2.79,0V35.16A1.4,1.4,0,0,0,32,36.56Z"/></svg>