<svg id="레이어_1" data-name="레이어 1" xmlns="http://www.w3.org/2000/svg" viewBox="0 0 50 50"><defs><style>.cls-1{fill:#bdbdbd;}</style></defs><path class="cls-1" d="M10.33,41.67a1.15,1.15,0,0,1-1.12-.88,1.14,1.14,0,0,1,0-.55L11.74,29.3a1.21,1.21,0,0,1,.31-.55L38,2.85a3.77,3.77,0,0,1,5.32,0L48,7.59a3.77,3.77,0,0,1,0,5.32l-25.9,25.9a1.16,1.16,0,0,1-.62.32l-10.9,2.51Zm1.49-2.46,7.44-1.92-5.74-5.45Zm2.57-9.55,7,6.81L42.12,15.55,35.21,8.84ZM40.61,4.05a1.45,1.45,0,0,0-1,.42L36.74,7.31l7,6.81,2.64-2.84a1.45,1.45,0,0,0,0-2.06L41.64,4.47A1.47,1.47,0,0,0,40.61,4.05Z"/><path class="cls-1" d="M40.61,1.89A3.61,3.61,0,0,1,43.17,3l4.74,4.74a3.62,3.62,0,0,1,0,5.12L22,38.71a1,1,0,0,1-.55.28l-10.9,2.52-.23,0a1,1,0,0,1-1-.78,1.06,1.06,0,0,1,0-.47l2.53-10.94a1,1,0,0,1,.27-.49h0L38.05,3a3.58,3.58,0,0,1,2.56-1.06m3,12.33,2.84-2.84a1.59,1.59,0,0,0,0-2.26L41.74,4.38a1.59,1.59,0,0,0-2.26,0L36.64,7.21l7,7M21.29,36.57,42.21,15.65l-7-7L14.29,29.56l7,7m-9.61,2.61,7.61-1.76-5.86-5.85-1.75,7.61M40.61,1.61a3.87,3.87,0,0,0-2.76,1.14L12,28.65l-.2.2,0,0a1.52,1.52,0,0,0-.16.4l-2.53,11a1.22,1.22,0,0,0,0,.6,1.28,1.28,0,0,0,1.25,1l.3,0,10.89-2.52a1.3,1.3,0,0,0,.69-.35L48.11,13a3.91,3.91,0,0,0,0-5.52L43.36,2.75a3.83,3.83,0,0,0-2.75-1.14ZM37,7.21l2.65-2.64a1.31,1.31,0,0,1,.93-.38,1.34,1.34,0,0,1,.93.38l4.74,4.75a1.29,1.29,0,0,1,.39.93,1.31,1.31,0,0,1-.39.93l-2.64,2.64L37,7.21ZM14.68,29.56,35.21,9l6.61,6.61L21.29,36.17l-6.61-6.61Zm-2.63,9.25,1.54-6.69,5.15,5.14-6.69,1.55Z"/><path class="cls-1" d="M2,46.78a1.15,1.15,0,0,1,0-2.3H32.15a1.15,1.15,0,0,1,0,2.3Z"/><path class="cls-1" d="M32.15,44.62a1,1,0,0,1,0,2H2a1,1,0,0,1,0-2H32.15m0-.28H2a1.29,1.29,0,0,0,0,2.58H32.15a1.29,1.29,0,0,0,0-2.58Z"/></svg>