<svg id="레이어_1" data-name="레이어 1" xmlns="http://www.w3.org/2000/svg" viewBox="0 0 50 50"><defs><style>.cls-1{fill:#bdbdbd;}</style></defs><path class="cls-1" d="M13.82,5.64h0A10.3,10.3,0,0,1,22,10l.42.53.25.31A3,3,0,0,0,25,12h0a3,3,0,0,0,2.34-1.15l.25-.32c.16-.2.29-.36.41-.53,2.69-3.56,5.8-4.31,7.93-4.31a10.85,10.85,0,0,1,9.46,6.17c1.77,3.63,1.69,7.35-.23,11.39s-5.3,7-8.35,9.48c-2.23,1.83-4.58,3.63-6.86,5.37l-3.84,3L25,42c-1.71-1.39-3.45-2.72-5.16-4-4.48-3.43-8.71-6.66-12.3-10.68-3.74-4.19-6.23-10.85-2-16.95a10.16,10.16,0,0,1,8.31-4.68m0-3a13.08,13.08,0,0,0-10.77,6c-4.8,6.93-2.86,15,2.23,20.66,5.78,6.46,13.17,11,19.73,16.62,1-.86,2-1.72,3-2.51,3.58-2.8,7.24-5.5,10.75-8.38s7.08-6.15,9.16-10.51c2.21-4.65,2.49-9.32.22-14A13.79,13.79,0,0,0,36,2.64a12.8,12.8,0,0,0-10.32,5.5L25,9c-.27-.34-.46-.57-.63-.8A13.34,13.34,0,0,0,13.82,2.64Z"/></svg>