<svg id="레이어_1" data-name="레이어 1" xmlns="http://www.w3.org/2000/svg" viewBox="0 0 41 41"><defs><style>.cls-1{fill:none;}.cls-2{fill:#c9c9c9;}</style></defs><path class="cls-1" d="M20.9,2.58l-.4-.39-.4.39L3.75,18.93l-1,1H6.57a.85.85,0,0,1,.84.85V39.17h7.8V30.1a.85.85,0,0,1,.85-.85h8.88a.85.85,0,0,1,.85.85v9.07h7.8V20.74a.85.85,0,0,1,.84-.85h3.78l-1-1Z"/><polygon class="cls-1" points="24.09 30.95 23.53 30.95 17.47 30.95 16.91 30.95 16.91 30.96 24.09 30.96 24.09 30.95"/><path class="cls-2" d="M40.86,20.14,21.1.39a.85.85,0,0,0-1.2,0L.14,20.14a.86.86,0,0,0-.18.93.85.85,0,0,0,.78.52h5V40a.85.85,0,0,0,.85.85H16.89V31h7.24v9.9h10.3a.85.85,0,0,0,.85-.85V21.59h5a.85.85,0,0,0,.78-.52A.86.86,0,0,0,40.86,20.14Zm-4-.25H34.43a.85.85,0,0,0-.84.85V39.17h-7.8V30.1a.85.85,0,0,0-.85-.85H16.06a.85.85,0,0,0-.85.85v9.07H7.41V20.74a.85.85,0,0,0-.84-.85H2.79l1-1L20.1,2.58l.4-.39.4.39L37.25,18.93l1,1Z"/></svg>