<svg id="레이어_1" data-name="레이어 1" xmlns="http://www.w3.org/2000/svg" viewBox="0 0 41 41"><defs><style>.cls-1{fill:#c9c9c9;}</style></defs><path class="cls-1" d="M29.56,17.76H28.08a10.2,10.2,0,1,0-14.65,0h-2A4.23,4.23,0,0,0,7.22,22V36.3a4.23,4.23,0,0,0,4.22,4.22H29.56a4.23,4.23,0,0,0,4.22-4.22V22A4.23,4.23,0,0,0,29.56,17.76ZM12.4,10.68a8.38,8.38,0,1,1,3.93,7.08A8.37,8.37,0,0,1,12.4,10.68ZM32.09,36.3a2.53,2.53,0,0,1-2.53,2.53H11.44A2.53,2.53,0,0,1,8.91,36.3V22a2.53,2.53,0,0,1,2.53-2.53h4.13a10.07,10.07,0,0,0,10.38,0h3.61A2.53,2.53,0,0,1,32.09,22Z"/></svg>