<svg id="레이어_1" data-name="레이어 1" xmlns="http://www.w3.org/2000/svg" viewBox="0 0 41 41"><defs><style>.cls-1{fill:#c9c9c9;}</style></defs><path class="cls-1" d="M20.5,22.4a7,7,0,1,0,7,7A7,7,0,0,0,20.5,22.4Zm0,12.41a5.43,5.43,0,1,1,5.42-5.43A5.43,5.43,0,0,1,20.5,34.81Z"/><path class="cls-1" d="M34.73,12.11h-.29V1.49h.29a.79.79,0,0,0,0-1.57H6.27a.79.79,0,0,0,0,1.57h.29V12.11H6.27a.79.79,0,0,0,0,1.57H19.69v1A2.48,2.48,0,0,0,18,17a2.35,2.35,0,0,0,.17.89,11.69,11.69,0,1,0,4.62,0A2.35,2.35,0,0,0,23,17a2.48,2.48,0,0,0-1.72-2.36v-1H34.73a.79.79,0,0,0,0-1.57ZM30.62,29.38A10.12,10.12,0,1,1,19.51,19.31a2.55,2.55,0,0,0,2,0A10.13,10.13,0,0,1,30.62,29.38ZM21.11,17.71l-.61,0-.61,0a.9.9,0,0,1-.3-.68.86.86,0,0,1,.18-.54.77.77,0,0,0,.71.45.78.78,0,0,0,.72-.49.92.92,0,0,1,.21.58A.9.9,0,0,1,21.11,17.71ZM8.13,1.49H11.4V12.11H8.13ZM13,12.11V1.49H28V12.11Zm16.64,0V1.49h3.27V12.11Z"/></svg>