<svg id="레이어_1" data-name="레이어 1" xmlns="http://www.w3.org/2000/svg" viewBox="0 0 41 41"><defs><style>.cls-1{fill:#121213;}</style></defs><path class="cls-1" d="M30,17.8a11.63,11.63,0,0,1-.86,1,11.86,11.86,0,0,1-2.45,1.93A11.7,11.7,0,0,1,12.36,18.8a10.87,10.87,0,0,1-.89-1h0A4.23,4.23,0,0,0,7.22,22V36.3a4.23,4.23,0,0,0,4.22,4.22H29.56a4.23,4.23,0,0,0,4.22-4.22V22A4.22,4.22,0,0,0,30,17.8Z"/><path class="cls-1" d="M15.57,19.44a10.07,10.07,0,0,0,10.38,0,10.19,10.19,0,1,0-12.52-1.68A10.5,10.5,0,0,0,15.57,19.44Z"/></svg>