<svg id="레이어_1" data-name="레이어 1" xmlns="http://www.w3.org/2000/svg" viewBox="0 0 41 41"><defs><style>.cls-1{fill:#121213;}</style></defs><path class="cls-1" d="M14.31.37H4.24A3.88,3.88,0,0,0,.37,4.24V15.08A3.88,3.88,0,0,0,4.24,19H14.31a3.89,3.89,0,0,0,3.87-3.87V4.24A3.89,3.89,0,0,0,14.31.37Z"/><path class="cls-1" d="M36.76.37H26.69a3.89,3.89,0,0,0-3.87,3.87V15.08A3.89,3.89,0,0,0,26.69,19H36.76a3.88,3.88,0,0,0,3.87-3.87V4.24A3.88,3.88,0,0,0,36.76.37Z"/><rect class="cls-1" x="0.37" y="22.05" width="17.81" height="18.58" rx="3.87"/><rect class="cls-1" x="22.82" y="22.05" width="17.81" height="18.58" rx="3.87"/></svg>