<svg id="레이어_1" data-name="레이어 1" xmlns="http://www.w3.org/2000/svg" viewBox="0 0 41 41"><defs><style>.cls-1{fill:#c9c9c9;}</style></defs><path class="cls-1" d="M14.31.22H4.24a4,4,0,0,0-4,4V15.08a4,4,0,0,0,4,4H14.31a4,4,0,0,0,4-4V4.24A4,4,0,0,0,14.31.22Zm2.17,14.86a2.17,2.17,0,0,1-2.17,2.17H4.24a2.17,2.17,0,0,1-2.17-2.17V4.24A2.17,2.17,0,0,1,4.24,2.07H14.31a2.17,2.17,0,0,1,2.17,2.17Z"/><path class="cls-1" d="M36.76.22H26.69a4,4,0,0,0-4,4V15.08a4,4,0,0,0,4,4H36.76a4,4,0,0,0,4-4V4.24A4,4,0,0,0,36.76.22Zm2.17,14.86a2.17,2.17,0,0,1-2.17,2.17H26.69a2.17,2.17,0,0,1-2.17-2.17V4.24a2.17,2.17,0,0,1,2.17-2.17H36.76a2.17,2.17,0,0,1,2.17,2.17Z"/><path class="cls-1" d="M14.31,21.9H4.24a4,4,0,0,0-4,4V36.76a4,4,0,0,0,4,4H14.31a4,4,0,0,0,4-4V25.92A4,4,0,0,0,14.31,21.9Zm2.17,14.86a2.17,2.17,0,0,1-2.17,2.17H4.24a2.17,2.17,0,0,1-2.17-2.17V25.92a2.17,2.17,0,0,1,2.17-2.17H14.31a2.17,2.17,0,0,1,2.17,2.17Z"/><path class="cls-1" d="M36.76,21.9H26.69a4,4,0,0,0-4,4V36.76a4,4,0,0,0,4,4H36.76a4,4,0,0,0,4-4V25.92A4,4,0,0,0,36.76,21.9Zm2.17,14.86a2.17,2.17,0,0,1-2.17,2.17H26.69a2.17,2.17,0,0,1-2.17-2.17V25.92a2.17,2.17,0,0,1,2.17-2.17H36.76a2.17,2.17,0,0,1,2.17,2.17Z"/></svg>