<svg id="레이어_1" data-name="레이어 1" xmlns="http://www.w3.org/2000/svg" viewBox="0 0 41 41"><defs><style>.cls-1{fill:#121213;}</style></defs><path class="cls-1" d="M35,27.69c-1.84-2-1.88-5-1.92-7.79,0-.39,0-.78,0-1.16,0-.13,0-.29,0-.48a18.84,18.84,0,0,0-1-7A11.12,11.12,0,0,0,25.11,4.5L25,4.44l0-.16a5,5,0,0,0-1.28-2.81A4.22,4.22,0,0,0,20.5.25a4.22,4.22,0,0,0-3.15,1.22,5,5,0,0,0-1.28,2.81l0,.16-.15.06A11.09,11.09,0,0,0,9,11.28,18.69,18.69,0,0,0,8,18.2c0,.22,0,.4,0,.54,0,.38,0,.77,0,1.16,0,2.84-.08,5.77-1.92,7.79a10.63,10.63,0,0,0-2.69,5.6.83.83,0,0,0,.2.66.82.82,0,0,0,.63.29H13l0,.22a7.58,7.58,0,0,0,14.94,0l0-.22h8.75a.82.82,0,0,0,.63-.29.83.83,0,0,0,.2-.66A10.63,10.63,0,0,0,35,27.69Z"/></svg>