<svg id="레이어_1" data-name="레이어 1" xmlns="http://www.w3.org/2000/svg" viewBox="0 0 41 41"><defs><style>.cls-1{fill:#c9c9c9;}</style></defs><path class="cls-1" d="M33,19.9c0-.39,0-.78,0-1.16,0-.13,0-.29,0-.48a18.84,18.84,0,0,0-1-7A11.12,11.12,0,0,0,25.11,4.5L25,4.44l0-.16a5,5,0,0,0-1.28-2.81A4.22,4.22,0,0,0,20.5.25a4.22,4.22,0,0,0-3.15,1.22,5,5,0,0,0-1.28,2.81l0,.16-.15.06A11.09,11.09,0,0,0,9,11.28,18.69,18.69,0,0,0,8,18.2c0,.22,0,.4,0,.54,0,.38,0,.77,0,1.16,0,2.84-.08,5.77-1.92,7.79a10.63,10.63,0,0,0-2.69,5.6.83.83,0,0,0,.2.66.82.82,0,0,0,.63.29H13l0,.22a7.58,7.58,0,0,0,14.94,0l0-.22h8.75a.82.82,0,0,0,.63-.29.83.83,0,0,0,.2-.66A10.63,10.63,0,0,0,35,27.69C33.11,25.67,33.07,22.74,33,19.9ZM26.28,34.58a5.91,5.91,0,0,1-11.47,0l-.08-.34H26.37Zm9.52-2H5.2l.11-.35a8.93,8.93,0,0,1,2-3.42c2.26-2.49,2.31-5.89,2.35-8.88,0-.39,0-.77,0-1.15v-.6c-.07-4.29.64-10.24,7.44-12.33A.83.83,0,0,0,17.67,5a3.73,3.73,0,0,1,.88-2.42,2.58,2.58,0,0,1,1.95-.71,2.58,2.58,0,0,1,1.95.71A3.82,3.82,0,0,1,23.33,5a.83.83,0,0,0,.58.82c6.8,2.09,7.51,8,7.44,12.33v.6c0,.38,0,.76,0,1.14,0,3,.09,6.4,2.35,8.89a9,9,0,0,1,2,3.42Z"/></svg>