<svg id="레이어_1" data-name="레이어 1" xmlns="http://www.w3.org/2000/svg" viewBox="0 0 720 720"><defs><style>.cls-1{fill:none;}.cls-2{fill:#bdbdbd;}.cls-3{isolation:isolate;}</style></defs><path class="cls-1" d="M318.45,289.63c-8.53,0-15.47-6.46-15.47-14.4s6.94-14.39,15.47-14.39,15.47,6.46,15.47,14.39S327,289.63,318.45,289.63Z"/><path class="cls-2" d="M361.5,191.5c-50.17,0-91,36.88-91,82.21a76.06,76.06,0,0,0,12.17,41.07l.88,1.39-15.79,40.37a1.43,1.43,0,0,0,.48,1.72,2.82,2.82,0,0,0,2.78.56l45.38-13.69,1.08.54a98.76,98.76,0,0,0,44,10.25c50.18,0,91-36.88,91-82.21S411.68,191.5,361.5,191.5Zm0,156.24a86.4,86.4,0,0,1-44.83-12.3l-24.24,7.29a5.23,5.23,0,0,1-5.05-1.11,4.92,4.92,0,0,1-1.39-5.38l7.67-21.84a69,69,0,0,1-13.34-40.69c0-40.82,36.42-74,81.18-74s81.2,33.21,81.2,74S406.27,347.74,361.5,347.74Z"/><path class="cls-2" d="M318.45,267.18c-5.11,0-9.27,3.61-9.27,8.05s4.16,8.06,9.27,8.06,9.28-3.62,9.28-8.06S323.56,267.18,318.45,267.18Z"/><path class="cls-2" d="M360.58,267.18c-5.11,0-9.27,3.61-9.27,8.05s4.16,8.06,9.27,8.06,9.28-3.62,9.28-8.06S365.7,267.18,360.58,267.18Z"/><path class="cls-2" d="M401.71,267.18c-5.12,0-9.28,3.61-9.28,8.05s4.16,8.06,9.28,8.06,9.27-3.62,9.27-8.06S406.82,267.18,401.71,267.18Z"/><g class="cls-3"><path class="cls-2" d="M89.38,486.75c-10.59,2.17-19.6,2.47-32.76,2.47h-6V448.33H85.13v8.32H60.67V480.9c10.7-.1,18.72-.59,27.82-2.47Zm8.22,12.07c0,10.79,12.28,20.79,29.6,23.37L123,530.11c-13.67-2.38-24.85-8.91-30.3-18.22-5.54,9.31-16.73,15.84-30.49,18.22L58,522.19c17.23-2.58,29.5-12.58,29.5-23.37v-3.07H97.6Zm5.55-6.63H93.64v-49.7h9.51v21h9.9V440.91h9.7V500h-9.7V471.8h-9.9Z"/><path class="cls-2" d="M213.23,473.48v8.22h-81v-8.22h58.81a96,96,0,0,0,2.08-20.59H142.45v-8.22h60.68v5.94a110.16,110.16,0,0,1-1.88,22.87Zm-61.28,48h53.56v8H141.76V505.46H193v-8H141.56v-8.12h61.67v23.76H152Z"/><path class="cls-2" d="M266.4,479c0,19.41-9.71,31.58-23.07,31.58s-23-12.17-23-31.58c0-19.2,9.7-31.48,23-31.48S266.4,459.82,266.4,479Zm-36.24,0c0,14.06,5.45,22.48,13.17,22.48S256.6,493.08,256.6,479c0-13.86-5.45-22.27-13.27-22.27S230.16,465.16,230.16,479ZM291,440.91V530.6h-10.3V440.91Z"/><path class="cls-2" d="M366.19,469.52c-2,10.1-11,16.83-22.87,16.83-13.37,0-23.27-8.51-23.27-20.89,0-12.18,9.9-20.69,23.27-20.69,11.78,0,20.79,6.53,22.77,16.33h16.63v-20h10.2v47.22h-10.2V469.52Zm-5.65,24v35.83H328.86V493.48h9.51v10.09h12.77V493.48Zm-17.22-15.55c7.82,0,13.56-4.95,13.56-12.47s-5.74-12.28-13.56-12.28-13.47,4.86-13.47,12.28S335.5,477.93,343.32,477.93Zm7.82,33.17H338.37v10.39h12.77Zm35.34-11.19c0,9.51,4.95,18.61,15.74,22.57l-5.05,7.73a27.44,27.44,0,0,1-15.84-15.65,29.15,29.15,0,0,1-15.64,15.65l-5.15-7.73c10.79-4.45,15.84-13.76,15.84-22.57v-7.13h10.1Z"/><path class="cls-2" d="M484.89,481v8.12h-81V481Zm-8-5.34c-14.55-2-26.63-8.72-32.47-18-5.75,9.3-17.82,16-32.38,18l-3.76-7.92c17.92-2.28,30.89-12,30.89-22.38V441.9h10.49v3.46c0,10.3,13.17,20.1,30.89,22.38Zm-12.58,19h10.2v34.64H413.91V494.67H424v9.1h40.29Zm0,16.92H424v9.61h40.29Z"/><path class="cls-2" d="M504.49,499.12a207.12,207.12,0,0,0,40.09-4.06l1.09,8.51A213.38,213.38,0,0,1,502,507.83h-7.62V449.72h10.1ZM563,441V530.4H552.8V441Z"/><path class="cls-2" d="M588,500c14.46-.1,25.35-.69,37.82-2.87l1.09,8.41c-13.56,2.48-25.64,3-41.78,3h-7.32v-59.1h41.58v8.32H588Zm69.4-16.24h-14V530.5H633.29V440.91h10.19v34.45h14Z"/><path class="cls-2" d="M661.5,516.15c0-4.66,3.37-8.12,7.63-8.12s7.62,3.46,7.62,8.12a7.63,7.63,0,1,1-15.25,0Z"/></g></svg>