<?xml version="1.0" encoding="utf-8"?>
<!-- Generator: Adobe Illustrator 25.0.1, SVG Export Plug-In . SVG Version: 6.00 Build 0)  -->
<svg version="1.1" id="Layer_1" xmlns="http://www.w3.org/2000/svg" xmlns:xlink="http://www.w3.org/1999/xlink" x="0px" y="0px"
	 viewBox="0 0 68 68" style="enable-background:new 0 0 68 68;" xml:space="preserve">
<style type="text/css">
	.st0{fill:#EF998C;}
	.st1{fill:#FFFFFF;}
</style>
<g>
	<circle class="st0" cx="34" cy="34" r="34"/>
	<g>
		<path class="st1" d="M31.13,43.67c-5.37-1.02-8.94-5.78-8.94-12.95c0-8.19,4.59-12.95,11.25-12.95c6.66,0,11.25,4.79,11.25,12.95
			c0,6.87-3.26,11.49-8.26,12.78c1.16,1.9,3.43,2.69,5.71,2.69c1.09,0,2.04-0.17,2.75-0.41l0.92,3.71
			c-0.88,0.41-2.41,0.75-4.25,0.75C36.43,50.23,32.86,47.48,31.13,43.67z M39.56,30.72c0-5.41-2.38-8.64-6.12-8.64
			c-3.74,0-6.12,3.23-6.12,8.64c0,5.64,2.38,9.04,6.12,9.04C37.18,39.76,39.56,36.36,39.56,30.72z"/>
	</g>
</g>
<text transform="matrix(1 0 0 1 -129.5219 37.435)" class="st1" style="font-family:'NotoSansKR-Bold-KSCpc-EUC-H'; font-size:34px;">Q</text>
</svg>
