<?xml version="1.0" encoding="utf-8"?>
<!-- Generator: Adobe Illustrator 25.0.1, SVG Export Plug-In . SVG Version: 6.00 Build 0)  -->
<svg version="1.1" id="Layer_1" xmlns="http://www.w3.org/2000/svg" xmlns:xlink="http://www.w3.org/1999/xlink" x="0px" y="0px"
	 viewBox="0 0 68 68" style="enable-background:new 0 0 68 68;" xml:space="preserve">
<style type="text/css">
	.st0{fill:#DEDEDE;}
	.st1{fill:#FFFFFF;}
</style>
<g>
	<circle class="st0" cx="34" cy="34" r="34"/>
	<path class="st1" d="M48.55,43.47c0-0.01-0.01-0.02-0.01-0.03c-0.08-0.24-0.05-0.5,0.08-0.71c1.58-2.63,2.41-5.65,2.41-8.74
		c0-4.55-1.77-8.82-4.99-12.04c-3.22-3.22-7.49-4.99-12.04-4.99c-4.55,0-8.82,1.77-12.04,4.99c-3.22,3.22-4.99,7.49-4.99,12.04
		c0,4.55,1.77,8.82,4.99,12.04c3.22,3.22,7.49,4.99,12.04,4.99c2.85,0,5.68-0.72,8.17-2.09c0.22-0.12,0.48-0.14,0.71-0.05
		c0.01,0,0.02,0.01,0.03,0.01l6.96,2.11c0.04,0.01,0.09,0.02,0.13,0.02c0.12,0,0.23-0.05,0.32-0.13c0.12-0.12,0.17-0.29,0.12-0.45
		L48.55,43.47z M26.53,36.12c-1.17,0-2.12-0.95-2.12-2.12c0-1.17,0.95-2.12,2.12-2.12c1.17,0,2.12,0.95,2.12,2.12
		C28.65,35.17,27.7,36.12,26.53,36.12z M34,36.12c-1.17,0-2.12-0.95-2.12-2.12c0-1.17,0.95-2.12,2.12-2.12
		c1.17,0,2.12,0.95,2.12,2.12C36.12,35.17,35.17,36.12,34,36.12z M41.47,36.12c-1.17,0-2.12-0.95-2.12-2.12
		c0-1.17,0.95-2.12,2.12-2.12c1.17,0,2.12,0.95,2.12,2.12C43.59,35.17,42.64,36.12,41.47,36.12z"/>
</g>
</svg>
