<?xml version="1.0" encoding="utf-8"?>
<!-- Generator: Adobe Illustrator 25.0.1, SVG Export Plug-In . SVG Version: 6.00 Build 0)  -->
<svg version="1.1" id="Layer_1" xmlns="http://www.w3.org/2000/svg" xmlns:xlink="http://www.w3.org/1999/xlink" x="0px" y="0px"
	 viewBox="0 0 33 33" style="enable-background:new 0 0 33 33;" xml:space="preserve">
<style type="text/css">
	.st0{fill:#BDBDBD;}
	.st1{fill:#FFFFFF;stroke:#FFFFFF;stroke-width:0.3;stroke-miterlimit:10;}
	.st2{fill:#FFFFFF;}
</style>
<circle class="st0" cx="127" cy="75.5" r="16.2"/>
<g>
	<path class="st1" d="M125.6,73.9c0,0,0.1,0,0.1,0c0.1,0.1,0.1,0.2,0.1,0.3c0,0.1-0.1,0.3-0.1,0.5c0,0,0,0,0,0l-0.7,2.3c0,0,0,0,0,0
		c0,0,0,0,0,0l-1.2,4.1c0,0,0,0,0,0c-0.1,0.4-0.2,0.8-0.2,1.1c0,0.5,0.2,0.9,0.5,1.2c0.3,0.3,0.7,0.5,1.3,0.5c1.3,0,2.6-1,3.7-3l0,0
		c0,0,0.1-0.3-0.1-0.5l0.2-0.2l-0.2,0.2c0,0,0,0-0.1,0c0,0,0,0,0,0c0,0,0,0,0,0c0,0,0,0,0,0c0,0,0,0,0,0c0,0,0,0,0,0c0,0,0,0,0,0
		c0,0,0,0,0,0c0,0,0,0,0,0c0,0,0,0,0,0c0,0,0,0-0.1,0c0,0,0,0,0,0l0,0c0,0,0,0-0.1,0c0,0,0,0,0,0l0,0c0,0-0.1,0.1-0.1,0.1
		c0,0,0,0,0,0l0,0c0,0,0,0,0,0c0,0,0,0,0,0c0,0,0,0,0,0c0,0,0,0,0,0c0,0,0,0,0,0c0,0,0,0,0,0c0,0,0,0,0,0c0,0,0,0,0,0l0,0
		c0,0,0,0,0,0l0,0c0,0,0,0,0,0c-0.4,0.7-0.7,1-1,1.2c-0.1,0.1-0.2,0.1-0.3,0c-0.1-0.1-0.1-0.2-0.1-0.3c0-0.1,0.1-0.3,0.1-0.5
		c0,0,0,0,0,0l0.7-2.3c0,0,0,0,0,0c0,0,0,0,0,0l0.5-1.8c0,0,0,0,0,0c0,0,0,0,0,0c0,0,0,0,0,0l0.7-2.3c0,0,0,0,0,0
		c0.1-0.4,0.2-0.8,0.2-1.1c0-0.5-0.2-0.9-0.5-1.2c-0.3-0.3-0.7-0.5-1.3-0.5c-1.3,0-2.6,1-3.7,3c0,0-0.1,0.3,0.1,0.5c0,0,0,0,0,0
		c0,0,0,0,0.1,0c0,0,0,0,0,0c0,0,0,0,0,0c0,0,0,0,0,0c0,0,0,0,0,0c0,0,0,0,0,0c0,0,0,0,0,0c0,0,0,0,0,0c0,0,0,0,0,0c0,0,0,0,0,0
		c0,0,0,0,0,0c0,0,0.1,0,0.1,0c0,0,0,0,0,0c0,0,0,0,0,0c0,0,0,0,0.1,0l0,0c0,0,0.1-0.1,0.1-0.1l0,0c0,0,0,0,0,0c0,0,0,0,0,0l0,0
		c0,0,0,0,0,0c0,0,0,0,0,0c0,0,0,0,0,0l0,0c0,0,0,0,0,0c0,0,0,0,0,0l0,0c0,0,0,0,0,0c0.4-0.7,0.7-1,1-1.2
		C125.5,73.9,125.6,73.9,125.6,73.9z"/>
	<path class="st1" d="M128.4,67c-1,0-1.8,0.8-1.8,1.8c0,1,0.8,1.8,1.8,1.8c1,0,1.8-0.8,1.8-1.8C130.3,67.9,129.4,67,128.4,67z"/>
</g>
<circle class="st0" cx="167.2" cy="74.9" r="16.2"/>
<text transform="matrix(1 0 0 1 159.3983 81.9041)" style="fill:#FFFFFF;stroke:#FFFFFF;stroke-width:0.9;stroke-linecap:round;stroke-linejoin:round;stroke-miterlimit:10; font-family:'MS-PGothic'; font-size:22.0563px;">Q</text>
<g>
	<circle class="st0" cx="16.5" cy="16.5" r="16.2"/>
	<path class="st2" d="M22.5,19.5c-0.8-0.8-0.8-2-0.8-3.2c0-0.2,0-0.3,0-0.5c0-0.1,0-0.1,0-0.2c0-0.6,0-1.7-0.4-2.9
		c-0.5-1.4-1.5-2.3-2.9-2.8l-0.1,0l0-0.1c0-0.3-0.2-0.8-0.5-1.2c-0.3-0.3-0.8-0.5-1.3-0.5c-0.5,0-1,0.2-1.3,0.5
		c-0.4,0.4-0.5,0.8-0.5,1.2l0,0.1l-0.1,0c-1.4,0.5-2.4,1.5-2.9,2.8c-0.4,1.2-0.4,2.3-0.4,2.9c0,0.1,0,0.2,0,0.2c0,0.2,0,0.3,0,0.5
		c0,1.2,0,2.4-0.8,3.2c-0.8,0.9-1,1.8-1.1,2.3c0,0.1,0,0.2,0.1,0.3c0.1,0.1,0.2,0.1,0.3,0.1h3.7l0,0.1c0.3,1.5,1.6,2.6,3.1,2.6
		c1.5,0,2.8-1.1,3.1-2.6l0-0.1h3.6c0.1,0,0.2,0,0.3-0.1c0.1-0.1,0.1-0.2,0.1-0.3C23.5,21.3,23.3,20.4,22.5,19.5z"/>
</g>
</svg>
