<?xml version="1.0" encoding="utf-8"?>
<!-- Generator: Adobe Illustrator 25.2.0, SVG Export Plug-In . SVG Version: 6.00 Build 0)  -->
<svg version="1.1" id="레이어_1" xmlns="http://www.w3.org/2000/svg" xmlns:xlink="http://www.w3.org/1999/xlink" x="0px"
	 y="0px" viewBox="0 0 18.3 24" style="enable-background:new 0 0 18.3 24;" xml:space="preserve">
<style type="text/css">
	.st0{fill:#FFFFFF;}
	.st1{fill:none;stroke:#DCDCDC;stroke-miterlimit:10;}
	.st2{fill:none;stroke:#DCDCDC;stroke-width:2;stroke-miterlimit:10;}
	.st3{fill:#C9C9C9;}
	.st4{fill:none;stroke:#C9C9C9;stroke-width:2;stroke-miterlimit:10;}
	.st5{opacity:0;}
	.st6{fill:#EF998C;}
	.st7{fill:#AFAFAF;}
	.st8{fill:#121213;}
	.st9{fill:#108CA4;}
	.st10{fill:none;stroke:#BDBDBD;stroke-miterlimit:10;}
	.st11{fill:#E25B57;}
	.st12{fill:none;stroke:#EF998C;stroke-miterlimit:10;}
	.st13{opacity:0.5;}
	.st14{fill:#69BACA;}
	.st15{fill:none;stroke:#EFEFEF;stroke-width:0.8;stroke-miterlimit:10;}
	.st16{fill:none;stroke:#121213;stroke-width:2.5;stroke-linecap:round;stroke-miterlimit:10;}
	.st17{opacity:0.3;fill:#108CA4;}
	.st18{opacity:0.3;fill:#4BC464;}
	.st19{fill:#BDBDBD;}
	.st20{opacity:0.2;fill:#108CA4;}
	.st21{opacity:0.4;fill:#108CA4;}
</style>
<g>
	<path class="st8" d="M5.7,21.9c-0.4,0-0.8-0.3-0.8-0.8V3.5L1.7,7.6C1.4,8,0.9,8,0.6,7.7C0.2,7.5,0.2,7,0.5,6.7l4.7-5.8
		C5.3,0.6,5.7,0.5,6,0.6C6.3,0.7,6.5,1,6.5,1.3v19.8C6.5,21.6,6.2,21.9,5.7,21.9z"/>
</g>
<g>
	<path class="st8" d="M12.7,21.9c-0.1,0-0.2,0-0.3,0c-0.3-0.1-0.5-0.4-0.5-0.7V1.3c0-0.4,0.3-0.8,0.8-0.8s0.8,0.3,0.8,0.8v17.6
		l3.3-4.1c0.3-0.3,0.8-0.4,1.1-0.1c0.3,0.3,0.4,0.8,0.1,1.1l-4.7,5.9C13.2,21.8,12.9,21.9,12.7,21.9z"/>
</g>
</svg>
