<svg id="레이어_1" data-name="레이어 1" xmlns="http://www.w3.org/2000/svg" viewBox="0 0 336 33"><defs><style>.cls-1{fill:#fff;}.cls-2{fill:#fefefe;}</style></defs><path class="cls-1" d="M27.72,32.61h0l-9.12,0a7,7,0,0,1-2.08-.31L14,31.53a2.23,2.23,0,0,1-1.55-2.12l0-12.53a3,3,0,0,1,.72-2c1.46-1.72,2.45-2.94,2.72-3.33L17.72,9a12.35,12.35,0,0,0,1.67-3.63l.95-3.52a.48.48,0,0,1,.08-.16A3.13,3.13,0,0,1,24.83.83C26.42,2,26,7.51,25.27,9a20.86,20.86,0,0,0-1.57,4,.56.56,0,0,0,0,.2h0a.3.3,0,0,0,.08.07,9,9,0,0,0,1.91.06H26c1.5,0,5.85,0,6,0a3.26,3.26,0,0,1,3.22,2.75h0a3.23,3.23,0,0,1-1.57,3.27,3.32,3.32,0,0,1,.53,1.79,3.21,3.21,0,0,1-1.78,2.88A3.25,3.25,0,0,1,31,28.75a3,3,0,0,1-.06,1.52A3.31,3.31,0,0,1,27.72,32.61ZM21.32,2.17,20.39,5.6a13.38,13.38,0,0,1-1.82,4l-1.8,2.64c-.37.55-1.72,2.16-2.78,3.42a2,2,0,0,0-.47,1.27l0,12.53a1.14,1.14,0,0,0,.81,1.1l2.5.75a6.35,6.35,0,0,0,1.79.26l9.12,0h0A2.26,2.26,0,0,0,29.91,30a2.08,2.08,0,0,0-.06-1.37.52.52,0,0,1,0-.44.57.57,0,0,1,.34-.27,2.16,2.16,0,0,0,.94-3.68.52.52,0,0,1-.14-.53.53.53,0,0,1,.4-.38,2.15,2.15,0,0,0,1.72-2.11,2.19,2.19,0,0,0-.7-1.61.53.53,0,0,1-.16-.51.54.54,0,0,1,.37-.39,2.13,2.13,0,0,0,1.54-2.4h0A2.2,2.2,0,0,0,32,14.44c-.05,0-4.53,0-6,0H25.7c-1.44,0-2.19,0-2.56-.27a1.16,1.16,0,0,1-.46-1.31,23.09,23.09,0,0,1,1.65-4.28c.7-1.48.77-6.27-.1-6.88A2.11,2.11,0,0,0,21.32,2.17Z"/><path class="cls-1" d="M27.72,32.86l-9.13,0a7.45,7.45,0,0,1-2.15-.31l-2.51-.75a2.44,2.44,0,0,1-1.73-2.36l0-12.53A3.31,3.31,0,0,1,13,14.75c1.45-1.71,2.43-2.92,2.7-3.3l1.8-2.65a11.57,11.57,0,0,0,1.63-3.55l1-3.52a.7.7,0,0,1,.11-.23A3.41,3.41,0,0,1,22.42.05,3.35,3.35,0,0,1,25,.62c1.72,1.21,1.29,6.9.53,8.52A20.05,20.05,0,0,0,24,13.09v0a16,16,0,0,0,1.71,0H26c1.51,0,6,0,6,0a3.48,3.48,0,0,1,2,6.35,3.47,3.47,0,0,1-1.24,4.69,3.54,3.54,0,0,1,.4,1.63,3.46,3.46,0,0,1-1.88,3.09,3.39,3.39,0,0,1-.11,1.45A3.56,3.56,0,0,1,27.72,32.86ZM23,.51a3.12,3.12,0,0,0-.52,0,2.88,2.88,0,0,0-1.88,1.23.36.36,0,0,0,0,.09l-1,3.51a12.26,12.26,0,0,1-1.7,3.71l-1.81,2.64c-.27.4-1.26,1.62-2.73,3.35a2.8,2.8,0,0,0-.65,1.8l0,12.53a2,2,0,0,0,1.38,1.88l2.5.74a7.25,7.25,0,0,0,2,.3l9.12,0v0a3.07,3.07,0,0,0,3-2.15,3,3,0,0,0,.06-1.4l-.05-.2.19-.09a3,3,0,0,0,1.31-4.3L32,24l.25-.12a3,3,0,0,0,1.64-2.66,2.94,2.94,0,0,0-.5-1.65l-.14-.22.23-.14A3,3,0,0,0,32,13.64s-4.53-.05-6,0h-.28a6.68,6.68,0,0,1-2-.09.13.13,0,0,1-.07,0h-.14l0-.22a1.26,1.26,0,0,1,0-.27A21.2,21.2,0,0,1,25,8.92c.68-1.43,1.11-6.85-.36-7.89A2.88,2.88,0,0,0,23,.51ZM27.72,31.8l-9.13,0a6.87,6.87,0,0,1-1.86-.28l-2.5-.74a1.4,1.4,0,0,1-1-1.35l0-12.53a2.27,2.27,0,0,1,.52-1.44c1.5-1.76,2.48-3,2.77-3.39l1.8-2.64a12.66,12.66,0,0,0,1.78-3.88l1-3.51a2.35,2.35,0,0,1,3.26-.53c1,.73.89,5.7.18,7.19a22.05,22.05,0,0,0-1.63,4.22A.92.92,0,0,0,23.29,14a5.11,5.11,0,0,0,2.41.22H26c1.18,0,4.2,0,5.9,0H32a2.46,2.46,0,0,1,2.46,2,2.41,2.41,0,0,1-1.73,2.69.26.26,0,0,0-.19.2.3.3,0,0,0,.08.27,2.41,2.41,0,0,1-1.14,4.15.28.28,0,0,0-.21.2.27.27,0,0,0,.08.28,2.38,2.38,0,0,1,.77,1.77,2.4,2.4,0,0,1-1.83,2.34.28.28,0,0,0-.18.37A2.43,2.43,0,0,1,30.16,30,2.53,2.53,0,0,1,27.72,31.8ZM21.55,2.29l-.92,3.38a13.24,13.24,0,0,1-1.85,4L17,12.33c-.38.57-1.73,2.19-2.8,3.44a1.72,1.72,0,0,0-.4,1.11l0,12.53a.89.89,0,0,0,.63.86l2.51.75a6.15,6.15,0,0,0,1.71.25l9.12,0a2,2,0,0,0,2-1.39,1.8,1.8,0,0,0-.06-1.21.78.78,0,0,1,0-.65.8.8,0,0,1,.5-.4A1.9,1.9,0,0,0,31,24.4a.8.8,0,0,1-.22-.79.78.78,0,0,1,.6-.56,1.91,1.91,0,0,0,.9-3.28.79.79,0,0,1,.31-1.33,1.89,1.89,0,0,0,1.36-2.13A2,2,0,0,0,32,14.69h-.12c-1.7,0-4.72,0-5.88,0h-.27c-1.53,0-2.29,0-2.73-.33a1.43,1.43,0,0,1-.55-1.55A22.85,22.85,0,0,1,24.1,8.46c.7-1.46.69-6.06,0-6.56A1.86,1.86,0,0,0,21.55,2.29Z"/><path class="cls-1" d="M12,32.75h0l-7.7,0a1.52,1.52,0,0,1-1.5-1.53l0-15.38a1.52,1.52,0,0,1,1.5-1.52h0l7.71,0a1.52,1.52,0,0,1,1.49,1.53l0,15.38A1.51,1.51,0,0,1,12,32.75ZM4.29,15.36A.43.43,0,0,0,4,15.5a.44.44,0,0,0-.14.33l0,15.37a.45.45,0,0,0,.14.33.43.43,0,0,0,.32.14l7.7,0h0a.46.46,0,0,0,.46-.47l0-15.37a.46.46,0,0,0-.46-.47l-7.7,0Z"/><path class="cls-1" d="M12,33l-7.7,0A1.72,1.72,0,0,1,3,32.45,1.76,1.76,0,0,1,2.5,31.2l0-15.38a1.76,1.76,0,0,1,1.75-1.77l7.71,0a1.76,1.76,0,0,1,1.74,1.78l0,15.38A1.76,1.76,0,0,1,12,33ZM4.29,14.56a1.26,1.26,0,0,0-1.24,1.26L3,31.2a1.3,1.3,0,0,0,.36.9,1.23,1.23,0,0,0,.88.37l7.7,0v0a1.26,1.26,0,0,0,1.25-1.26l0-15.38A1.26,1.26,0,0,0,12,14.58ZM12,31.94l-7.7,0a.67.67,0,0,1-.5-.21.71.71,0,0,1-.21-.51l0-15.38a.72.72,0,0,1,.71-.71l7.7,0a.71.71,0,0,1,.71.72l0,15.38a.7.7,0,0,1-.2.5A.71.71,0,0,1,12,31.94ZM4.29,15.36v.26a.24.24,0,0,0-.14.05.25.25,0,0,0-.06.16l0,15.37a.2.2,0,0,0,.06.15.2.2,0,0,0,.14.06l7.7,0a.17.17,0,0,0,.14-.06.2.2,0,0,0,.07-.15l0-15.37a.21.21,0,0,0-.21-.21l-7.7,0Z"/><path class="cls-2" d="M60.74,15.31c0,6.49-3.23,10.56-7.59,10.56s-7.59-4.07-7.59-10.56,3.23-10.5,7.59-10.5S60.74,8.84,60.74,15.31Zm-11.2,0C49.54,19.69,51,22,53.15,22s3.61-2.34,3.61-6.72-1.48-6.69-3.61-6.69S49.54,11,49.54,15.31ZM68.67,2.73V32.3H64.53V2.73Z"/><path class="cls-2" d="M88.08,20a76,76,0,0,1-12.88.73H72.81V11h8.91V8.08H72.78V4.72h13v9.44H76.92v3.13a68.78,68.78,0,0,0,10.85-.7Zm8.5,8.41v3.36H76.67v-9h4.14v5.63Zm-4.86-15H87.24V9.84h4.48V2.77h4.14V24.46H91.72Z"/><path class="cls-2" d="M119.26,15.31c0,6.49-3.23,10.56-7.59,10.56s-7.59-4.07-7.59-10.56,3.2-10.5,7.59-10.5S119.26,8.84,119.26,15.31Zm-4,0c0-4.35-1.47-6.69-3.6-6.69s-3.61,2.34-3.61,6.69S109.5,22,111.67,22,115.27,19.69,115.27,15.31Zm15.46,2h-4.2V32.24h-4.14V2.77h4.14v11.1h4.2Z"/><path class="cls-2" d="M146.88,15.31c0,6.49-3.23,10.56-7.58,10.56s-7.59-4.07-7.59-10.56,3.23-10.5,7.59-10.5S146.88,8.84,146.88,15.31Zm-11.19,0c0,4.38,1.47,6.72,3.61,6.72s3.6-2.34,3.6-6.72-1.47-6.69-3.6-6.69S135.69,11,135.69,15.31ZM154.82,2.73V32.3h-4.14V2.73Z"/><path class="cls-2" d="M184,14.19v3.33H157.89V14.19ZM165,28.75h16.56V32H160.87V24h15.84V22.35H160.84V19.18h19.94V27H165Zm15.93-16.13H161.12V3.34h19.57V6.7H165.23V9.29h15.68Z"/><path class="cls-2" d="M199.82,3.25h3.86V30.92h-3.86V17h-2.26c-.37,5.76-2.73,9.21-6.24,9.21-3.82,0-6.24-4-6.24-10.72s2.42-10.69,6.24-10.69c3.42,0,5.74,3.27,6.21,8.77h2.29Zm-6,12.28c0-4.51-.91-6.72-2.51-6.72s-2.51,2.21-2.51,6.72.94,6.75,2.51,6.75S193.83,20.08,193.83,15.53ZM209.6,2.73V32.2h-3.92V2.73Z"/><path class="cls-2" d="M226.63,3.41h3.86V30.92h-3.86V17.42h-4.51a20.51,20.51,0,0,1-8.34,8.7l-2.36-3c5.77-3.52,8.31-7.78,8.82-13.54H213V6.25h11.32A28.09,28.09,0,0,1,223.4,14h3.23Zm10-.68V32.2h-3.92V2.73Z"/><path class="cls-2" d="M270.19,14.25v3.3H244v-3.3H255V11.56h4.14v2.69ZM245.1,10.06c5.18-.32,8-1.76,8.85-3.36h-7.56V3.5h21.38V6.7h-7.61c.84,1.6,3.66,3,8.87,3.36l-1.29,3.14c-5.55-.39-9.18-2.18-10.69-4.74-1.5,2.56-5.11,4.35-10.66,4.74Zm14,10.5h8.62v3.13H246.36V20.56H255V18.48h4.14Zm6.74,7.9c0,2.53-3.23,3.87-8.84,3.87s-8.78-1.34-8.78-3.87,3.23-3.9,8.78-3.9S265.83,25.93,265.83,28.46Zm-4.26,0c0-.8-1.54-1.12-4.58-1.12s-4.52.32-4.52,1.12S254,29.55,257,29.55,261.57,29.23,261.57,28.46Z"/><path class="cls-2" d="M286.31,15.31c0,6.49-3.23,10.56-7.59,10.56s-7.59-4.07-7.59-10.56,3.2-10.5,7.59-10.5S286.31,8.84,286.31,15.31Zm-4,0c0-4.35-1.48-6.69-3.61-6.69s-3.6,2.34-3.6,6.69,1.44,6.72,3.6,6.72S282.33,19.69,282.33,15.31Zm15.46,2h-4.21V32.24h-4.13V2.77h4.13v11.1h4.21Z"/><path class="cls-2" d="M324.1,25.39v3.42H298V25.39h5.77v-7.2a6.92,6.92,0,0,1-3.49-6.05c0-4.83,4.55-7.93,10.76-7.93s10.79,3.1,10.79,7.93a7.06,7.06,0,0,1-3.48,6.05v7.2ZM304.31,12.14c0,2.91,2.67,4.61,6.68,4.61s6.71-1.7,6.71-4.61S315,7.53,311,7.53,304.31,9.2,304.31,12.14Zm3.51,13.25h6.37V19.76A17.17,17.17,0,0,1,311,20a16.92,16.92,0,0,1-3.17-.28Z"/><path class="cls-2" d="M326.51,26.86a2.88,2.88,0,1,1,5.74,0,2.88,2.88,0,1,1-5.74,0Zm.69-17.25-.15-4.44h4.64l-.16,4.44-.66,11.81h-3Z"/></svg>