<?xml version="1.0" encoding="utf-8"?>
<!-- Generator: Adobe Illustrator 25.0.1, SVG Export Plug-In . SVG Version: 6.00 Build 0)  -->
<svg version="1.1" id="Layer_1" xmlns="http://www.w3.org/2000/svg" xmlns:xlink="http://www.w3.org/1999/xlink" x="0px" y="0px"
	 viewBox="0 0 68 68" style="enable-background:new 0 0 68 68;" xml:space="preserve">
<style type="text/css">
	.st0{fill:#CAE3ED;}
	.st1{fill:#FFFFFF;}
</style>
<g>
	<circle class="st0" cx="34" cy="34" r="34"/>
	<path class="st1" d="M51.18,23.54c-1.03-1.45-2.64-2.29-4.38-2.34c-0.04-1.71-0.87-3.3-2.28-4.34c-1.93-1.42-4.63-1.42-6.56,0.02
		c-1.7,1.26-2.54,3.33-2.2,5.4c0.26,1.59-0.23,3.2-1.32,4.29l-7.88,7.88c-1.09,1.09-2.69,1.59-4.29,1.32
		c-2.07-0.34-4.14,0.5-5.39,2.2c-1.43,1.93-1.44,4.63-0.02,6.56c1.04,1.41,2.63,2.24,4.34,2.28c0.05,1.74,0.9,3.35,2.34,4.38
		c0.95,0.68,2.08,1.02,3.21,1.02c1.19,0,2.38-0.38,3.36-1.13c1.64-1.26,2.45-3.29,2.13-5.32c-0.26-1.64,0.22-3.21,1.32-4.31
		l7.88-7.88c1.1-1.1,2.68-1.59,4.31-1.32c2.03,0.33,4.06-0.49,5.32-2.13C52.54,28.21,52.58,25.5,51.18,23.54z"/>
</g>
</svg>
