<svg id="레이어_1" data-name="레이어 1" xmlns="http://www.w3.org/2000/svg" viewBox="0 0 720 66"><defs><style>.cls-1{fill:#f5f5f5;}.cls-2{fill:#ef998c;}.cls-3{fill:#dcdcdc;}</style></defs><rect class="cls-1" width="720" height="66"/><path class="cls-2" d="M321.74,32.52a83.09,83.09,0,0,1-11.63.64l-.25-1.93h2.39v-5.5H310.4V23.87h10.73v1.86H319.3V31c.75-.05,1.49-.12,2.19-.18V29h2.91V27.3h-2.91V25.41h2.91V22.63h2.32v11H324.4V30.86h-2.8Zm5.68,8.85v1.84H313.51V37.9h10.91V36.36H313.47V34.52h13.25v5.1H315.81v1.75ZM314.48,31.21c.86,0,1.71-.05,2.59-.1V25.73h-2.59Z"/><path class="cls-2" d="M336.52,29.23a9.07,9.07,0,0,0,5,8.07l-1.26,1.84a9.75,9.75,0,0,1-4.89-5.8,10,10,0,0,1-4.92,6.12l-1.28-1.82a9.47,9.47,0,0,0,5-8.41V28h-4.39V26.12h4.37V23h2.35v3.08h4.26V28h-4.29Zm9.58-6.65V43.42h-2.32V35.28H340V33.34h3.83V31H340V29h3.83V22.58Z"/><path class="cls-2" d="M367.06,38.91v2H348.63v-2h8V34.72H350.7V24H353V27.5h9.65V24h2.29V34.72h-6v4.19ZM353,32.82h9.65V29.41H353Z"/><path class="cls-2" d="M378.81,24.81c0,6.19-2.44,11.43-9.42,14.88l-1.24-1.88c5.34-2.63,7.86-6.28,8.27-11.06h-7.26V24.81Zm6-2.18V43.39h-2.32V22.63Z"/><path class="cls-2" d="M402.64,38a1.51,1.51,0,0,1-1.14-.52l-6-7a1.5,1.5,0,1,1,2.28-2l4.86,5.68,4.86-5.68a1.5,1.5,0,0,1,2.28,2l-6,7A1.51,1.51,0,0,1,402.64,38Z"/><rect class="cls-3" width="720" height="1"/></svg>