<svg id="레이어_1" data-name="레이어 1" xmlns="http://www.w3.org/2000/svg" viewBox="0 0 246 32"><defs><style>.cls-1{fill:#3fa8bc;}.cls-2{fill:#4e4e4e;}.cls-3{fill:#d4d4d4;}</style></defs><path class="cls-1" d="M31.59,1.52,25,24.34H19.87L15.79,10l-4.08,14.3H6.57L0,1.52H5.45L9.36,16.45,13.28,1.52h5.28l3.89,14.87L26.39,1.52Z"/><path class="cls-1" d="M34.76,23.63a7.78,7.78,0,0,1-3-3.07,8.89,8.89,0,0,1-1.09-4.42,8.89,8.89,0,0,1,1.09-4.42,7.78,7.78,0,0,1,3-3.07,9.28,9.28,0,0,1,8.8,0,7.87,7.87,0,0,1,3,3.07,9,9,0,0,1,1.09,4.42,10.67,10.67,0,0,1-.12,1.6h-12A3.7,3.7,0,0,0,36.81,20a3.6,3.6,0,0,0,2.35.78,4.69,4.69,0,0,0,1.89-.35,2.12,2.12,0,0,0,1.13-.94h5a6.24,6.24,0,0,1-1.56,2.76,7.84,7.84,0,0,1-2.83,1.86,9.61,9.61,0,0,1-3.63.68A8.69,8.69,0,0,1,34.76,23.63Zm8.06-9.11a3.74,3.74,0,0,0-1.26-2.26,3.69,3.69,0,0,0-2.4-.77,3.62,3.62,0,0,0-2.38.77,3.92,3.92,0,0,0-1.23,2.26Z"/><path class="cls-1" d="M53.35,23.63a7.87,7.87,0,0,1-3-3.07,9,9,0,0,1-1.09-4.42,9,9,0,0,1,1.09-4.42,7.87,7.87,0,0,1,3-3.07,9.28,9.28,0,0,1,8.8,0,7.78,7.78,0,0,1,3,3.07,8.89,8.89,0,0,1,1.09,4.42,10.67,10.67,0,0,1-.11,1.6h-12A3.7,3.7,0,0,0,55.4,20a3.58,3.58,0,0,0,2.35.78,4.69,4.69,0,0,0,1.89-.35,2.12,2.12,0,0,0,1.13-.94h5a6.24,6.24,0,0,1-1.56,2.76,7.84,7.84,0,0,1-2.83,1.86,9.65,9.65,0,0,1-3.63.68A8.69,8.69,0,0,1,53.35,23.63Zm8.06-9.11a3.74,3.74,0,0,0-1.26-2.26,3.69,3.69,0,0,0-2.4-.77,3.62,3.62,0,0,0-2.38.77,3.92,3.92,0,0,0-1.23,2.26Z"/><path class="cls-1" d="M75.61,18.32l-2,2.24v3.78h-5V.82h5V14.63l5.78-6.69H85l-6.29,7,6.62,9.4H79.61Z"/><path class="cls-1" d="M91.71,24.34h-5V.82h5Z"/><path class="cls-1" d="M111.05,7.94l-9.42,23.24H96.74l3-7.28-6.45-16h5.5l3.55,10.13,3.58-10.13Z"/><path class="cls-2" d="M166.82,19.77H156.28v9.39h-3V19.77H142.86V17.28h24Zm-22.64-6.9c5-.69,8.78-3.66,9-6.81h-8.08V3.57h19.52V6.06h-8c.18,3.15,3.9,6.12,9,6.81l-1.08,2.43c-4.38-.66-8-2.88-9.6-5.88-1.62,3-5.2,5.22-9.57,5.88Z"/><path class="cls-2" d="M181.66,4.11c0,7.17-4.66,12.27-12.38,14.67L168,16.32c6.08-1.89,9.84-5.4,10.37-9.68h-9.25V4.11ZM175,26.1h14.79v2.52H172V19.68H175ZM192.55,10v2.55h-3.78v9.15h-3V2.05h3V10Z"/><path class="cls-2" d="M212,4.59V22.5H199.6V4.59Zm-9.48,2.46V20h6.52v-13ZM220,2V29.19h-3.06V2Z"/><path class="cls-2" d="M237.37,18.48a11.32,11.32,0,0,1-6-6.33A11.31,11.31,0,0,1,225,18.84l-1.64-2.43A10,10,0,0,0,229.8,6.9V3.55h3.08V6.9A9.75,9.75,0,0,0,239,16.05ZM246,26.1v2.52H228.12V20.25h3.06V26.1Zm-3.64-12.36h-4.93V11.25h4.93V8.34h-4.93V5.82h4.93V2.05h3V22.2h-3Z"/><path class="cls-3" d="M127.91,5V28h-1.4V5Z"/></svg>